<?xml version="1.0" encoding="iso-8859-1"?>
<!-- Generator: Adobe Illustrator 19.0.0, SVG Export Plug-In . SVG Version: 6.00 Build 0)  -->
<svg version="1.1" id="Capa_1" xmlns="http://www.w3.org/2000/svg" xmlns:xlink="http://www.w3.org/1999/xlink" x="0px" y="0px"
	 viewBox="0 0 460 460" style="enable-background:new 0 0 460 460;" xml:space="preserve">
<g id="XMLID_1315_">
	<path id="XMLID_1316_" style="fill:#A78966;" d="M247.453,333.47c-2.224,0.392-4.473,0.71-6.745,0.952
		c-0.218,0.023-0.435,0.05-0.653,0.072c-0.522,0.052-1.046,0.096-1.571,0.14c-0.465,0.039-0.93,0.077-1.397,0.11
		c-0.445,0.031-0.891,0.06-1.338,0.085c-0.592,0.034-1.186,0.061-1.781,0.084c-0.354,0.014-0.707,0.03-1.063,0.041
		C231.94,334.982,230.972,335,230,335s-1.94-0.018-2.905-0.046c-0.355-0.01-0.708-0.027-1.063-0.041
		c-0.595-0.023-1.189-0.05-1.781-0.084c-0.447-0.025-0.893-0.054-1.338-0.085c-0.467-0.033-0.932-0.071-1.397-0.11
		c-0.524-0.044-1.049-0.088-1.571-0.14c-0.218-0.022-0.434-0.049-0.651-0.072c-2.273-0.242-4.522-0.561-6.746-0.952
		c-0.062-0.011-0.124-0.021-0.185-0.032c-0.791-0.141-1.578-0.29-2.362-0.45V425h40v-92.013c-0.784,0.159-1.571,0.309-2.362,0.45
		C247.576,333.448,247.514,333.459,247.453,333.47z"/>
	<path id="XMLID_1324_" style="fill:#317F46;" d="M460,215c0-20.571-12.427-38.234-30.18-45.909c0.109-1.351,0.18-2.712,0.18-4.091
		c0-27.614-22.386-50-50-50c0-27.614-22.386-50-50-50c-8.435,0-16.377,2.097-23.347,5.786C288.309,48.912,260.781,35,230,35v300
		c0.972,0,1.94-0.018,2.905-0.046c0.355-0.01,0.708-0.027,1.063-0.041c0.595-0.023,1.189-0.051,1.781-0.084
		c0.447-0.025,0.893-0.054,1.338-0.085c0.467-0.033,0.932-0.071,1.397-0.11c0.524-0.044,1.049-0.088,1.571-0.14
		c0.218-0.022,0.435-0.049,0.653-0.072c2.272-0.242,4.521-0.56,6.745-0.952c0.062-0.011,0.124-0.021,0.185-0.032
		c0.791-0.141,1.578-0.29,2.362-0.45c9.767-1.983,19.02-5.38,27.527-9.984C286.265,330.477,297.601,335,310,335
		c19.335,0,36.095-10.982,44.414-27.043C361.9,312.426,370.648,315,380,315c27.614,0,50-22.386,50-50c0-1.379-0.071-2.74-0.18-4.091
		C447.573,253.234,460,235.571,460,215z M300,285c-16.569,0-30-13.431-30-30c0-11.046,8.954-20,20-20c3.647,0,7.056,0.992,10,2.697
		c2.944-1.705,6.353-2.697,10-2.697c11.046,0,20,8.954,20,20C330,271.569,316.569,285,300,285z M300,155c-16.569,0-30-13.431-30-30
		c0-11.046,8.954-20,20-20c3.647,0,7.056,0.992,10,2.697c2.944-1.705,6.353-2.697,10-2.697c11.046,0,20,8.954,20,20
		C330,141.569,316.569,155,300,155z M370,235c-16.569,0-30-13.431-30-30c0-11.046,8.954-20,20-20c3.647,0,7.056,0.992,10,2.697
		c2.944-1.705,6.353-2.697,10-2.697c11.046,0,20,8.954,20,20C400,221.569,386.569,235,370,235z"/>
	<path id="XMLID_1335_" style="fill:#3FA45A;" d="M212.547,333.47c2.224,0.392,4.474,0.71,6.746,0.952
		c0.217,0.023,0.434,0.05,0.651,0.072c0.522,0.052,1.047,0.096,1.571,0.14c0.465,0.039,0.93,0.078,1.397,0.11
		c0.445,0.031,0.891,0.06,1.338,0.085c0.592,0.034,1.186,0.061,1.781,0.084c0.354,0.014,0.707,0.03,1.063,0.041
		C228.06,334.982,229.028,335,230,335V35c-30.781,0-58.309,13.912-76.653,35.786C146.377,67.097,138.435,65,130,65
		c-27.614,0-50,22.386-50,50c-27.614,0-50,22.386-50,50c0,1.379,0.071,2.74,0.18,4.091C12.427,176.766,0,194.429,0,215
		s12.427,38.234,30.18,45.909C30.071,262.26,30,263.621,30,265c0,27.614,22.386,50,50,50c9.352,0,18.1-2.574,25.586-7.043
		C113.905,324.018,130.665,335,150,335c12.399,0,23.735-4.523,32.473-11.996c8.507,4.604,17.761,8,27.527,9.984
		c0.784,0.159,1.571,0.309,2.362,0.45C212.424,333.448,212.486,333.459,212.547,333.47z M90,225c-16.569,0-30-13.431-30-30
		c0-11.046,8.954-20,20-20c3.647,0,7.056,0.992,10,2.697c2.944-1.705,6.353-2.697,10-2.697c11.046,0,20,8.954,20,20
		C120,211.569,106.569,225,90,225z M160,275c-16.569,0-30-13.431-30-30c0-11.046,8.954-20,20-20c3.647,0,7.056,0.992,10,2.697
		c2.944-1.705,6.353-2.697,10-2.697c11.046,0,20,8.954,20,20C190,261.569,176.569,275,160,275z"/>
	<path id="XMLID_1339_" style="fill:#FF728B;" d="M170,225c-3.647,0-7.056,0.992-10,2.697V275c16.569,0,30-13.431,30-30
		C190,233.954,181.046,225,170,225z"/>
	<path id="XMLID_1340_" style="fill:#FFA5B5;" d="M150,225c-11.046,0-20,8.954-20,20c0,16.569,13.431,30,30,30v-47.303
		C157.056,225.992,153.647,225,150,225z"/>
	<path id="XMLID_1341_" style="fill:#FF728B;" d="M100,175c-3.647,0-7.056,0.992-10,2.697V225c16.569,0,30-13.431,30-30
		C120,183.954,111.046,175,100,175z"/>
	<path id="XMLID_1342_" style="fill:#FFA5B5;" d="M80,175c-11.046,0-20,8.954-20,20c0,16.569,13.431,30,30,30v-47.303
		C87.056,175.992,83.647,175,80,175z"/>
	<path id="XMLID_1343_" style="fill:#FF7956;" d="M310,235c-3.647,0-7.056,0.992-10,2.697V285c16.569,0,30-13.431,30-30
		C330,243.954,321.046,235,310,235z"/>
	<path id="XMLID_1344_" style="fill:#FF9478;" d="M290,235c-11.046,0-20,8.954-20,20c0,16.569,13.431,30,30,30v-47.303
		C297.056,235.992,293.647,235,290,235z"/>
	<path id="XMLID_1345_" style="fill:#FF7956;" d="M380,185c-3.647,0-7.056,0.992-10,2.697V235c16.569,0,30-13.431,30-30
		C400,193.954,391.046,185,380,185z"/>
	<path id="XMLID_1346_" style="fill:#FF9478;" d="M360,185c-11.046,0-20,8.954-20,20c0,16.569,13.431,30,30,30v-47.303
		C367.056,185.992,363.647,185,360,185z"/>
	<path id="XMLID_1347_" style="fill:#FF7956;" d="M310,105c-3.647,0-7.056,0.992-10,2.697V155c16.569,0,30-13.431,30-30
		C330,113.954,321.046,105,310,105z"/>
	<path id="XMLID_1348_" style="fill:#FF9478;" d="M290,105c-11.046,0-20,8.954-20,20c0,16.569,13.431,30,30,30v-47.303
		C297.056,105.992,293.647,105,290,105z"/>
</g>
<g>
</g>
<g>
</g>
<g>
</g>
<g>
</g>
<g>
</g>
<g>
</g>
<g>
</g>
<g>
</g>
<g>
</g>
<g>
</g>
<g>
</g>
<g>
</g>
<g>
</g>
<g>
</g>
<g>
</g>
</svg>
