<?xml version="1.0" encoding="iso-8859-1"?>
<!-- Generator: Adobe Illustrator 19.0.0, SVG Export Plug-In . SVG Version: 6.00 Build 0)  -->
<svg version="1.1" id="Layer_1" xmlns="http://www.w3.org/2000/svg" xmlns:xlink="http://www.w3.org/1999/xlink" x="0px" y="0px"
	 viewBox="0 0 512 512" style="enable-background:new 0 0 512 512;" xml:space="preserve">
<g>
	<polygon style="fill:#8F6127;" points="17.655,441.379 494.345,441.379 494.345,70.621 17.655,70.621 	"/>
	<g>
		<polygon style="fill:#AD7E4E;" points="0,70.621 512,70.621 512,0 0,0 		"/>
		<polygon style="fill:#AD7E4E;" points="0,512 512,512 512,441.379 0,441.379 		"/>
	</g>
	<g>
		<polygon style="fill:#70491E;" points="132.414,70.621 494.345,441.379 476.69,441.379 388.414,441.379 17.655,70.621 
			35.31,70.621 		"/>
		<polygon style="fill:#70491E;" points="203.034,256 17.655,441.379 35.31,441.379 123.586,441.379 256,308.966 		"/>
	</g>
	<g>
		<path style="fill:#8F6127;" d="M423.724,26.483c-4.873,0-8.828,3.946-8.828,8.828s3.955,8.828,8.828,8.828H512V26.483H423.724z"/>
		<path style="fill:#8F6127;" d="M247.172,44.138c4.873,0,8.828-3.946,8.828-8.828s-3.955-8.828-8.828-8.828H0v17.655H247.172z"/>
		<path style="fill:#8F6127;" d="M264.828,467.862c-4.873,0-8.828,3.946-8.828,8.828c0,4.882,3.955,8.828,8.828,8.828H512v-17.655
			H264.828z"/>
		<path style="fill:#8F6127;" d="M88.276,485.517c4.873,0,8.828-3.946,8.828-8.828c0-4.882-3.955-8.828-8.828-8.828H0v17.655H88.276
			z"/>
		<path style="fill:#8F6127;" d="M414.897,423.724c-2.304,0-4.599-0.9-6.329-2.675L99.602,103.256
			c-3.399-3.496-3.319-9.084,0.177-12.482c3.496-3.407,9.092-3.31,12.482,0.177l308.966,317.793
			c3.399,3.496,3.319,9.084-0.177,12.482C419.337,422.894,417.112,423.724,414.897,423.724"/>
	</g>
	<polygon style="fill:#70491E;" points="311.199,253.767 494.345,70.621 476.69,70.621 388.414,70.621 258.869,200.166 	"/>
	<g>
		<path style="fill:#8F6127;" d="M308.966,212.354c-2.251,0-4.502-0.856-6.232-2.569c-3.452-3.443-3.46-9.031-0.018-12.482
			L408.647,90.877c3.434-3.452,9.022-3.469,12.482-0.035c3.452,3.443,3.46,9.039,0.018,12.482L315.215,209.75
			C313.494,211.48,311.234,212.354,308.966,212.354"/>
		<path style="fill:#8F6127;" d="M97.103,423.724c-2.26,0-4.52-0.865-6.241-2.586c-3.452-3.452-3.452-9.031,0-12.482
			l105.931-105.931c3.452-3.452,9.031-3.452,12.482,0c3.452,3.452,3.452,9.031,0,12.482L103.345,421.138
			C101.623,422.859,99.363,423.724,97.103,423.724"/>
	</g>
	<g>
		<path style="fill:#70491E;" d="M326.621,158.897H185.379c-4.873,0-8.828-3.946-8.828-8.828s3.955-8.828,8.828-8.828h141.241
			c4.873,0,8.828,3.946,8.828,8.828S331.493,158.897,326.621,158.897"/>
		<path style="fill:#70491E;" d="M326.621,361.931H194.207c-4.873,0-8.828-3.946-8.828-8.828c0-4.882,3.955-8.828,8.828-8.828
			h132.414c4.873,0,8.828,3.946,8.828,8.828C335.448,357.985,331.493,361.931,326.621,361.931"/>
		<path style="fill:#70491E;" d="M388.414,344.276c-4.873,0-8.828,3.946-8.828,8.828c0,4.882,3.955,8.828,8.828,8.828h105.931
			v-17.655H388.414z"/>
		<path style="fill:#70491E;" d="M313.272,247.172c-4.873,0-8.828,3.946-8.828,8.828s3.955,8.828,8.828,8.828h181.071v-17.655
			H313.272z"/>
		<path style="fill:#70491E;" d="M397.241,141.241c-4.873,0-8.828,3.946-8.828,8.828s3.955,8.828,8.828,8.828h97.103v-17.655
			H397.241z"/>
		<path style="fill:#70491E;" d="M114.759,158.897c4.873,0,8.828-3.946,8.828-8.828s-3.955-8.828-8.828-8.828H17.655v17.655H114.759
			z"/>
		<path style="fill:#70491E;" d="M203.034,264.828c4.873,0,8.828-3.946,8.828-8.828s-3.955-8.828-8.828-8.828H17.655v17.655H203.034
			z"/>
		<path style="fill:#70491E;" d="M132.414,361.931c4.873,0,8.828-3.946,8.828-8.828c0-4.882-3.955-8.828-8.828-8.828H17.655v17.655
			H132.414z"/>
	</g>
</g>
<g>
</g>
<g>
</g>
<g>
</g>
<g>
</g>
<g>
</g>
<g>
</g>
<g>
</g>
<g>
</g>
<g>
</g>
<g>
</g>
<g>
</g>
<g>
</g>
<g>
</g>
<g>
</g>
<g>
</g>
</svg>
