<?xml version="1.0" encoding="UTF-8" standalone="no"?>
<!DOCTYPE svg PUBLIC "-//W3C//DTD SVG 1.1//EN" "http://www.w3.org/Graphics/SVG/1.1/DTD/svg11.dtd">
<svg width="100%" height="100%" viewBox="0 0 960 640" version="1.1" xmlns="http://www.w3.org/2000/svg" xmlns:xlink="http://www.w3.org/1999/xlink" xml:space="preserve" xmlns:serif="http://www.serif.com/" style="fill-rule:evenodd;clip-rule:evenodd;stroke-linejoin:round;stroke-miterlimit:10;">
    <g transform="matrix(1,0,0,1,0,-40)">
        <path d="M100.845,516.079C100.845,447.282 154.183,391.512 219.979,391.512C251.575,391.512 281.877,404.636 304.219,427.997C326.561,451.357 339.113,483.042 339.113,516.079C339.113,584.875 285.775,640.646 219.979,640.646C154.183,640.646 100.845,584.875 100.845,516.079L100.845,516.079Z" style="fill:rgb(207,226,243);"/>
        <path d="M258.781,346.903C280.212,368.333 280.212,403.079 258.781,424.509C245.847,437.444 232.913,450.378 219.978,463.312C207.044,450.378 194.11,437.444 181.175,424.509C159.745,403.079 159.745,368.333 181.175,346.903C202.605,325.473 237.351,325.473 258.781,346.903L258.781,346.903Z" style="fill:rgb(255,0,0);"/>
        <path d="M591.407,259.205C591.407,190.408 644.745,134.638 710.541,134.638C742.137,134.638 772.439,147.762 794.781,171.123C817.123,194.483 829.675,226.168 829.675,259.205C829.675,328.001 776.336,383.772 710.541,383.772C644.745,383.772 591.407,328.001 591.407,259.205L591.407,259.205Z" style="fill:rgb(217,234,211);"/>
        <path d="M749.343,90.029C770.774,111.459 770.774,146.205 749.343,167.635C736.409,180.57 723.474,193.504 710.54,206.438C697.606,193.504 684.671,180.57 671.737,167.635C650.306,146.205 650.306,111.459 671.737,90.029C693.167,68.598 727.913,68.598 749.343,90.029Z" style="fill:rgb(255,0,0);"/>
        <path d="M224.428,522.018L698.979,256.066" style="fill:none;"/>
        <path d="M224.428,522.018L698.979,256.066" style="fill:none;stroke:rgb(17,85,204);stroke-width:3px;stroke-dasharray:24,9;"/>
    </g>
</svg>
