<?xml version="1.0" encoding="UTF-8" standalone="no"?>
<!DOCTYPE svg PUBLIC "-//W3C//DTD SVG 1.1//EN" "http://www.w3.org/Graphics/SVG/1.1/DTD/svg11.dtd">
<svg width="100%" height="100%" viewBox="0 0 960 640" version="1.1" xmlns="http://www.w3.org/2000/svg" xmlns:xlink="http://www.w3.org/1999/xlink" xml:space="preserve" xmlns:serif="http://www.serif.com/" style="fill-rule:evenodd;clip-rule:evenodd;stroke-linejoin:round;stroke-miterlimit:10;">
    <g transform="matrix(1,0,0,1,0,-40)">
        <path d="M108.753,252.908C108.753,321.705 162.091,377.475 227.887,377.475C259.483,377.475 289.786,364.351 312.128,340.99C334.469,317.629 347.021,285.945 347.021,252.908C347.021,184.112 293.683,128.341 227.887,128.341C162.091,128.341 108.753,184.112 108.753,252.908L108.753,252.908Z" style="fill:rgb(207,226,243);"/>
        <path d="M108.753,252.908C108.753,321.705 162.091,377.475 227.887,377.475C259.483,377.475 289.786,364.351 312.128,340.99C334.469,317.629 347.021,285.945 347.021,252.908C347.021,184.112 293.683,128.341 227.887,128.341C162.091,128.341 108.753,184.112 108.753,252.908L108.753,252.908Z" style="fill:none;stroke:rgb(0,0,255);stroke-width:2.48px;stroke-dasharray:2.48,7.43;"/>
        <path d="M599.315,509.782C599.315,578.579 652.653,634.349 718.449,634.349C750.045,634.349 780.347,621.225 802.689,597.864C825.031,574.503 837.583,542.819 837.583,509.782C837.583,440.986 784.245,385.215 718.449,385.215C652.653,385.215 599.315,440.986 599.315,509.782L599.315,509.782Z" style="fill:rgb(217,234,211);"/>
        <path d="M599.315,509.782C599.315,578.579 652.653,634.349 718.449,634.349C750.045,634.349 780.347,621.225 802.689,597.864C825.031,574.503 837.583,542.819 837.583,509.782C837.583,440.986 784.245,385.215 718.449,385.215C652.653,385.215 599.315,440.986 599.315,509.782L599.315,509.782Z" style="fill:none;stroke:rgb(56,118,29);stroke-width:2.48px;stroke-dasharray:2.48,7.43;"/>
        <path d="M319.724,247.978L609.924,415.656L630.703,379.703L661.055,493.159L547.585,523.514L568.365,487.561L278.165,319.883L319.724,247.978Z" style="fill:rgb(242,13,13);"/>
        <path d="M319.724,247.978L609.924,415.656L630.703,379.703L661.055,493.159L547.585,523.514L568.365,487.561L278.165,319.883L319.724,247.978Z" style="fill:none;stroke:rgb(230,97,26);stroke-width:2.48px;"/>
    </g>
</svg>
