<?xml version="1.0" encoding="UTF-8" standalone="no"?>
<!-- Created with Inkscape (http://www.inkscape.org/) -->

<svg
   width="300"
   height="169.31564"
   viewBox="0 0 79.375 44.798097"
   version="1.1"
   id="svg5"
   xmlns:xlink="http://www.w3.org/1999/xlink"
   xmlns="http://www.w3.org/2000/svg"
   xmlns:svg="http://www.w3.org/2000/svg">
  <defs
     id="defs2">
    <linearGradient
       xlink:href="#linearGradient2122"
       id="linearGradient2124"
       x1="80.051651"
       y1="99.360504"
       x2="79.866951"
       y2="144.61237"
       gradientUnits="userSpaceOnUse" />
    <linearGradient
       id="linearGradient2122">
      <stop
         style="stop-color:#ffffff;stop-opacity:1;"
         offset="0"
         id="stop2118" />
      <stop
         style="stop-color:#ffffff;stop-opacity:1;"
         offset="0.65484953"
         id="stop2213" />
      <stop
         style="stop-color:#ffffff;stop-opacity:0.34674922;"
         offset="1"
         id="stop2120" />
    </linearGradient>
  </defs>
  <g
     id="layer1"
     transform="translate(-48.190642,-99.545203)"
     style="font-variation-settings:normal;opacity:1;vector-effect:none;fill:url(#linearGradient2124);fill-opacity:1;stroke-width:1.85207999;stroke-linecap:round;stroke-linejoin:miter;stroke-miterlimit:4;stroke-dasharray:none;stroke-dashoffset:0;stroke-opacity:1;-inkscape-stroke:none;stop-color:#000000;stop-opacity:1">
    <path
       id="path234"
       style="fill:url(#linearGradient2124);fill-opacity:1;stroke-width:1.85207999;stroke-linecap:round;font-variation-settings:normal;vector-effect:none;stroke-linejoin:miter;stroke-miterlimit:4;stroke-dasharray:none;stroke-dashoffset:0;stroke-opacity:1;-inkscape-stroke:none;stop-color:#000000;stop-opacity:1"
       d="M 95.355722 99.545203 A 19.767012 16.636361 0 0 0 76.701563 110.70525 A 16.927272 10.100371 0 0 0 75.27271 110.66494 A 16.927272 10.100371 0 0 0 58.345578 120.76561 A 16.927272 10.100371 0 0 0 58.37245 121.23897 A 14.130449 11.787592 0 0 0 48.190642 132.55559 A 14.130449 11.787592 0 0 0 62.321046 144.3435 L 112.83372 144.3435 A 14.731683 13.819311 0 0 0 127.56564 130.52419 A 14.731683 13.819311 0 0 0 115.09354 116.87024 A 19.767012 16.636361 0 0 0 115.12247 116.1814 A 19.767012 16.636361 0 0 0 95.355722 99.545203 z " />
  </g>
</svg>
