<?xml version="1.0" encoding="UTF-8" standalone="no"?>
<!-- Created with Inkscape (http://www.inkscape.org/) -->

<svg
   width="79.375mm"
   height="54.586849mm"
   viewBox="0 0 79.375 54.586848"
   version="1.1"
   id="svg5"
   xmlns:xlink="http://www.w3.org/1999/xlink"
   xmlns="http://www.w3.org/2000/svg"
   xmlns:svg="http://www.w3.org/2000/svg">
  <defs
     id="defs2">
    <linearGradient
       xlink:href="#linearGradient2122"
       id="linearGradient2124"
       x1="37.822636"
       y1="0"
       x2="37.822636"
       y2="55.473198"
       gradientUnits="userSpaceOnUse" />
    <linearGradient
       id="linearGradient2122">
      <stop
         style="stop-color:#ffffff;stop-opacity:1;"
         offset="0"
         id="stop2118" />
      <stop
         style="stop-color:#ffffff;stop-opacity:1;"
         offset="0.65484953"
         id="stop2213" />
      <stop
         style="stop-color:#ffffff;stop-opacity:0.34674922;"
         offset="1"
         id="stop2120" />
    </linearGradient>
  </defs>
  <path
     id="path234"
     style="fill:url(#linearGradient2124);stroke-width:1.85208;stroke-linecap:round;font-variation-settings:normal;opacity:1;vector-effect:none;fill-opacity:1;stroke-linejoin:miter;stroke-miterlimit:4;stroke-dasharray:none;stroke-dashoffset:0;stroke-opacity:1;-inkscape-stroke:none;stop-color:#000000;stop-opacity:1"
     d="m 47.488574,0 a 9.6132526,7.7221208 0 0 1 9.429916,6.243546 14.446145,12.029698 0 0 1 10.479463,11.564669 14.446145,12.029698 0 0 1 -1.179256,4.744413 22.89965,14.256155 0 0 1 5.947441,9.564274 22.89965,14.256155 0 0 1 -1.296045,4.72271 17.145,9.5249991 0 0 1 8.504907,8.222237 17.145,9.5249991 0 0 1 -17.145207,9.525 h -50.8 A 11.43,9.5249991 0 0 1 0,45.061849 11.43,9.5249991 0 0 1 7.888924,36.005554 15.39875,12.064999 0 0 1 7.208862,32.473987 15.39875,12.064999 0 0 1 22.607922,20.40909 15.39875,12.064999 0 0 1 31.877641,22.842016 22.89965,14.256155 0 0 1 38.649837,19.500618 14.446145,12.029698 0 0 1 38.50566,17.808215 14.446145,12.029698 0 0 1 39.972237,12.528951 9.6132526,7.7221208 0 0 1 37.875208,7.722526 9.6132526,7.7221208 0 0 1 47.488574,0 Z" />
</svg>
