<?xml version="1.0" encoding="UTF-8" standalone="no"?>
<!-- Created with Inkscape (http://www.inkscape.org/) -->

<svg
   width="79.375mm"
   height="36.725883mm"
   viewBox="0 0 79.375 36.725883"
   version="1.1"
   id="svg5"
   xmlns="http://www.w3.org/2000/svg"
   xmlns:svg="http://www.w3.org/2000/svg">
  <defs
     id="defs2" />
  <g
     id="layer1"
     transform="translate(-41.633738,-107.61742)">
    <g
       id="g434"
       transform="matrix(0.85949491,0,0,0.85949491,5.8497517,15.120795)"
       style="stroke-width:1.16347">
      <path
         id="path234"
         style="fill:#ffffff;stroke-width:2.15485;stroke-linecap:round"
         d="M 81.529263,139.26494 A 19.947762,11.082089 0 0 1 61.581501,150.34703 19.947762,11.082089 0 0 1 41.633739,139.26494 19.947762,11.082089 0 0 1 61.581501,128.18285 19.947762,11.082089 0 0 1 81.529263,139.26494 Z" />
      <path
         id="ellipse236"
         style="fill:#ffffff;stroke-width:2.15485;stroke-linecap:round"
         d="M 122.1636,139.26494 A 28.998135,11.082089 0 0 1 93.165466,150.34703 28.998135,11.082089 0 0 1 64.167332,139.26494 28.998135,11.082089 0 0 1 93.165466,128.18285 28.998135,11.082089 0 0 1 122.1636,139.26494 Z" />
      <path
         id="ellipse346"
         style="fill:#ffffff;stroke-width:2.15485;stroke-linecap:round"
         d="m 133.98449,139.26494 a 13.298508,11.082089 0 0 1 -13.29851,11.08209 13.298508,11.082089 0 0 1 -13.29851,-11.08209 13.298508,11.082089 0 0 1 13.29851,-11.08209 13.298508,11.082089 0 0 1 13.29851,11.08209 z" />
      <path
         id="path348"
         style="fill:#ffffff;stroke-width:2.15485;stroke-linecap:round"
         d="m 125.59702,124.61941 a 17.916046,14.037313 0 0 1 -17.91605,14.03731 17.916046,14.037313 0 0 1 -17.916047,-14.03731 17.916046,14.037313 0 0 1 17.916047,-14.03732 17.916046,14.037313 0 0 1 17.91605,14.03732 z" />
      <path
         id="path379"
         style="fill:#ffffff;stroke-width:2.15485;stroke-linecap:round"
         d="M 103.30751,124.20409 A 26.643148,16.586666 0 0 1 76.66436,140.79075 26.643148,16.586666 0 0 1 50.021212,124.20409 26.643148,16.586666 0 0 1 76.66436,107.61742 26.643148,16.586666 0 0 1 103.30751,124.20409 Z" />
    </g>
  </g>
</svg>
