<?xml version="1.0" encoding="UTF-8" standalone="no"?>
<!-- Created with Inkscape (http://www.inkscape.org/) -->

<svg
   width="300"
   height="169.31564"
   viewBox="0 0 79.375 44.798097"
   version="1.1"
   id="svg5"
   xmlns:xlink="http://www.w3.org/1999/xlink"
   xmlns="http://www.w3.org/2000/svg"
   xmlns:svg="http://www.w3.org/2000/svg">
  <defs
     id="defs2">
    <linearGradient
       id="linearGradient2122">
      <stop
         style="stop-color:#ffffff;stop-opacity:1;"
         offset="0"
         id="stop2118" />
      <stop
         style="stop-color:#ffffff;stop-opacity:1;"
         offset="0.65484953"
         id="stop2213" />
      <stop
         style="stop-color:#ffffff;stop-opacity:0.34674922;"
         offset="1"
         id="stop2120" />
    </linearGradient>
    <linearGradient
       xlink:href="#linearGradient2122"
       id="linearGradient2124"
       x1="80.051651"
       y1="99.360504"
       x2="79.866951"
       y2="144.61237"
       gradientUnits="userSpaceOnUse" />
  </defs>
  <g
     id="layer1"
     transform="translate(-48.190642,-99.545203)">
    <path
       id="path234"
       style="fill:url(#linearGradient2124);fill-opacity:1;stroke-width:1.85208;stroke-linecap:round"
       d="m 80.40056,99.545203 a 19.767012,16.636361 0 0 1 18.654159,11.160047 16.927272,10.100371 0 0 1 1.428851,-0.0403 16.927272,10.100371 0 0 1 16.92713,10.10067 16.927272,10.100371 0 0 1 -0.0269,0.47336 14.130449,11.787592 0 0 1 10.18181,11.31662 14.130449,11.787592 0 0 1 -14.1304,11.78791 H 62.922562 a 14.731683,13.819311 0 0 1 -14.73192,-13.81931 14.731683,13.819311 0 0 1 12.4721,-13.65395 19.767012,16.636361 0 0 1 -0.02893,-0.68884 19.767012,16.636361 0 0 1 19.766748,-16.636197 z" />
  </g>
</svg>
