<?xml version="1.0" encoding="UTF-8" standalone="no"?>
<!-- Created with Inkscape (http://www.inkscape.org/) -->

<svg
   width="79.375mm"
   height="43.342751mm"
   viewBox="0 0 79.375 43.34275"
   version="1.1"
   id="svg5"
   xmlns:xlink="http://www.w3.org/1999/xlink"
   xmlns="http://www.w3.org/2000/svg"
   xmlns:svg="http://www.w3.org/2000/svg">
  <defs
     id="defs2">
    <linearGradient
       xlink:href="#linearGradient2122"
       id="linearGradient2124"
       x1="37.356956"
       y1="0.15247738"
       x2="37.356956"
       y2="43.761005"
       gradientUnits="userSpaceOnUse" />
    <linearGradient
       id="linearGradient2122">
      <stop
         style="stop-color:#ffffff;stop-opacity:1;"
         offset="0"
         id="stop2118" />
      <stop
         style="stop-color:#ffffff;stop-opacity:1;"
         offset="0.7317726"
         id="stop2213" />
      <stop
         style="stop-color:#ffffff;stop-opacity:0.34674922;"
         offset="1"
         id="stop2120" />
    </linearGradient>
  </defs>
  <path
     id="path234"
     style="fill:url(#linearGradient2124);stroke-width:1.85208;stroke-linecap:round;font-variation-settings:normal;opacity:1;vector-effect:none;fill-opacity:1;stroke-linejoin:miter;stroke-miterlimit:4;stroke-dasharray:none;stroke-dashoffset:0;stroke-opacity:1;-inkscape-stroke:none;stop-color:#000000;stop-opacity:1"
     d="M 50.228975 0 A 13.55311 13.068797 0 0 0 37.97701 7.4889486 A 22.89965 14.256155 0 0 0 30.108757 6.6166504 A 22.89965 14.256155 0 0 0 7.2088623 20.872628 A 22.89965 14.256155 0 0 0 8.5049072 25.595337 A 17.145 9.5249991 0 0 0 0 33.817574 A 17.145 9.5249991 0 0 0 17.145207 43.342574 L 67.945207 43.342574 A 11.43 9.5249991 0 0 0 79.375 33.817574 A 11.43 9.5249991 0 0 0 71.486076 24.761279 A 15.39875 12.064999 0 0 0 72.166138 21.229712 A 15.39875 12.064999 0 0 0 63.494316 10.393681 A 13.55311 13.068797 0 0 0 50.228975 0 z " />
</svg>
