<?xml version="1.0" encoding="UTF-8" standalone="no"?>
<!-- Created with Inkscape (http://www.inkscape.org/) -->

<svg
   width="880"
   height="880"
   viewBox="0 0 232.83333 232.83332"
   version="1.1"
   id="svg4223"
   xml:space="preserve"
   xmlns="http://www.w3.org/2000/svg"
   xmlns:svg="http://www.w3.org/2000/svg"><defs
     id="defs4220" /><g
     id="layer1"
     transform="translate(-42.333332,-42.333332)"><path
       id="rect9356"
       style="fill:#3399ff;stroke-width:3.96875;paint-order:markers stroke fill;stop-color:#000000"
       d="M 42.333332,42.333332 H 275.16666 V 275.16666 H 42.333332 Z" /><path
       id="rect4364"
       style="font-variation-settings:'wdth' 75;fill:#f8fcff;fill-opacity:1;stroke:none;stroke-width:5.29166;paint-order:markers stroke fill;stop-color:#000000"
       d="m 226.21875,142.87499 v 31.75 h 7.9375 v -23.8125 h 7.9375 v 23.8125 h 7.9375 v -23.8125 a 7.9375,7.9375 0 0 0 -7.9375,-7.9375 h -7.9375 z" /><path
       id="rect4756"
       style="font-variation-settings:'wdth' 75;fill:#f8fcff;stroke-width:5.29166;paint-order:markers stroke fill;stop-color:#000000"
       d="m 178.59375,142.875 h 7.9375 v 31.75 h -7.9375 z" /><path
       id="path4768"
       style="font-variation-settings:'wdth' 75;fill:#f8fcff;fill-opacity:1;stroke:none;stroke-width:5.29166;paint-order:markers stroke fill;stop-color:#000000"
       d="m 115.09375,142.87499 v 23.8125 a 7.9375,7.9375 0 0 0 7.9375,7.9375 h 7.9375 v 7.9375 h -63.5 v 7.9375 h 63.5 a 7.9375066,7.9375066 0 0 0 7.9375,-7.9375 v -7.9375 -31.75 h -7.9375 v 23.8125 h -7.9375 v -23.8125 z" /><path
       id="path4801"
       style="font-variation-settings:'wdth' 75;fill:#f8fcff;fill-opacity:1;stroke:none;stroke-width:5.29166;paint-order:markers stroke fill;stop-color:#000000"
       d="m 146.84375,142.87499 v 6.61459 l 12.89844,17.19791 h -12.89844 v 7.9375 h 18.85156 4.96094 v -6.61045 l -0.99528,-1.32705 -11.90626,-15.875 h 12.90154 v -7.9375 h -18.85466 -2.312 z" /><path
       id="rect4819"
       style="font-variation-settings:'wdth' 75;fill:#f8fcff;stroke-width:7.9375;paint-order:markers stroke fill;stop-color:#000000"
       d="m 99.21875,127 h 7.9375 v 47.625 h -7.9375 z" /><path
       id="rect5547"
       style="font-variation-settings:'wdth' 75;fill:#f8fcff;fill-opacity:1;stroke:none;stroke-width:7.9375;stroke-dasharray:none;stroke-opacity:1;paint-order:markers stroke fill;stop-color:#000000"
       d="m 67.46875,126.99999 v 47.625 h 7.9375 15.875 v -7.9375 h -15.875 v -15.875 h 15.875 v -7.9375 h -15.875 v -7.9375 h 15.875 v -7.9375 h -15.875 z" /><g
       aria-label="架空国家学会"
       id="text5568"
       style="font-weight:bold;font-size:12.7px;font-family:'Noto Sans JP';-inkscape-font-specification:'Noto Sans JP, Bold';font-variant-ligatures:none;text-align:center;letter-spacing:5.29166px;text-anchor:middle;fill:#f8fcff;stroke-width:7.9375;paint-order:markers stroke fill;stop-color:#000000"><path
         d="m 146.38233,185.415 h 11.3538 v 1.3462 h -11.3538 z m 4.8895,-0.9144 h 1.5875 v 6.0198 h -1.5875 z m -0.4191,1.778 1.1811,0.508 q -0.5715,0.762 -1.3716,1.4478 -0.7874,0.6858 -1.7018,1.2192 -0.9144,0.5334 -1.8542,0.8763 -0.1143,-0.1905 -0.2921,-0.4191 -0.1651,-0.2286 -0.3556,-0.4572 -0.1905,-0.2159 -0.3556,-0.3556 0.9271,-0.2667 1.8288,-0.6985 0.9017,-0.4318 1.6637,-0.9779 0.7747,-0.5461 1.2573,-1.143 z m 2.413,-0.0508 q 0.4826,0.5842 1.2446,1.1176 0.7747,0.5207 1.6891,0.9398 0.9271,0.4064 1.8542,0.6477 -0.1524,0.1524 -0.3556,0.381 -0.1905,0.2286 -0.3683,0.4572 -0.1651,0.2413 -0.2794,0.4445 -0.9525,-0.3302 -1.8923,-0.8509 -0.9271,-0.5207 -1.7272,-1.1811 -0.8001,-0.6731 -1.3843,-1.4224 z m -6.8834,-6.3881 h 4.9403 v 1.3081 h -4.9403 z m 4.318,0 h 1.4605 q 0,0 -0.0127,0.2032 0,0.2032 -0.0127,0.3302 -0.0508,1.1303 -0.1143,1.8796 -0.0635,0.7366 -0.1651,1.1557 -0.0889,0.4191 -0.2413,0.6096 -0.1905,0.2159 -0.3937,0.3175 -0.2032,0.1016 -0.4699,0.1397 -0.2286,0.0381 -0.5969,0.0508 -0.3556,0 -0.762,-0.0127 -0.0254,-0.3175 -0.1397,-0.6985 -0.1016,-0.381 -0.254,-0.635 0.3175,0.0254 0.5842,0.0381 0.2667,0.0127 0.4064,0.0127 0.2413,0 0.381,-0.1397 0.0889,-0.1143 0.1524,-0.4318 0.0635,-0.3175 0.1016,-0.9525 0.0508,-0.635 0.0762,-1.6637 z m -2.5781,-1.2573 h 1.4605 q -0.0508,1.1176 -0.1524,2.0828 -0.1016,0.9525 -0.3683,1.7526 -0.254,0.8001 -0.762,1.4478 -0.4953,0.635 -1.3208,1.1049 -0.127,-0.2794 -0.4064,-0.6223 -0.2667,-0.3556 -0.508,-0.5461 0.6985,-0.381 1.0922,-0.889 0.4064,-0.508 0.5969,-1.1557 0.2032,-0.6604 0.2667,-1.4478 0.0762,-0.8001 0.1016,-1.7272 z m 6.0198,2.2606 v 2.0447 h 1.8034 v -2.0447 z m -1.4351,-1.3081 h 4.7625 v 4.6482 h -4.7625 z"
         id="path6366" /><path
         d="m 169.25079,178.5697 h 1.5748 v 2.0828 h -1.5748 z m 0,7.5311 h 1.5748 v 3.3909 h -1.5748 z m -1.3589,-5.1308 h 1.5875 q -0.0889,0.8255 -0.2921,1.4986 -0.2032,0.6731 -0.6477,1.2065 -0.4445,0.5334 -1.2319,0.9398 -0.7874,0.3937 -2.032,0.6604 -0.0635,-0.1905 -0.2032,-0.4318 -0.127,-0.2413 -0.2921,-0.4699 -0.1651,-0.2413 -0.3175,-0.381 1.0795,-0.1905 1.7272,-0.4572 0.6477,-0.2794 0.9906,-0.6477 0.3556,-0.3683 0.4953,-0.8509 0.1524,-0.4826 0.2159,-1.0668 z m 2.794,-0.0254 h 1.5113 v 2.1717 q 0,0.2667 0.0762,0.3302 0.0889,0.0635 0.381,0.0635 0.0762,0 0.2159,0 0.1524,0 0.3302,0 0.1778,0 0.3429,0 0.1651,0 0.2413,0 0.1651,0 0.2413,-0.0635 0.0889,-0.0762 0.127,-0.2667 0.0381,-0.2032 0.0635,-0.5969 0.1524,0.1143 0.381,0.2159 0.2286,0.1016 0.4826,0.1905 0.254,0.0762 0.4445,0.1143 -0.0762,0.6604 -0.254,1.0414 -0.1778,0.3683 -0.4953,0.5207 -0.3175,0.1397 -0.8382,0.1397 -0.1143,0 -0.3175,0 -0.2032,0 -0.4445,0 -0.2286,0 -0.4445,0 -0.2032,0 -0.3048,0 -0.7112,0 -1.0922,-0.1524 -0.3683,-0.1651 -0.508,-0.5334 -0.1397,-0.3683 -0.1397,-0.9906 z m -6.0452,-1.2319 h 10.9093 v 2.6416 h -1.5748 v -1.2573 h -7.8359 v 1.4986 h -1.4986 z m 1.1938,5.8039 h 8.7503 v 1.3589 h -8.7503 z m -1.3335,3.2639 h 11.1633 v 1.3843 h -11.1633 z"
         id="path6368" /><path
         d="m 184.86755,181.1605 h 6.2738 v 1.3208 h -6.2738 z m 0.3429,2.5273 h 5.6515 v 1.2827 h -5.6515 z m -0.4699,2.794 h 6.6167 v 1.2446 h -6.6167 z m 2.5527,-4.9022 h 1.4097 v 5.5626 h -1.4097 z m 1.8161,3.7973 0.9652,-0.4953 q 0.2794,0.2667 0.5842,0.6223 0.3048,0.3429 0.4572,0.6096 l -1.016,0.5715 q -0.1524,-0.2667 -0.4445,-0.635 -0.2794,-0.3683 -0.5461,-0.6731 z m -6.4262,-6.2992 h 10.7315 v 11.4046 h -1.6256 v -10.0076 h -7.5565 v 10.0076 h -1.5494 z m 0.8509,9.3726 h 9.0043 v 1.4097 h -9.0043 z"
         id="path6370" /><path
         d="m 205.25951,178.5824 h 1.5748 v 1.8161 h -1.5748 z m -4.5847,1.0033 h 10.8204 v 2.8575 h -1.5621 V 180.97 h -7.7597 v 1.4732 h -1.4986 z m 1.9431,2.1844 h 6.858 v 1.2954 h -6.858 z m 1.2319,2.2733 1.1811,-0.6858 q 0.9017,0.6223 1.4478,1.397 0.5461,0.762 0.8001,1.5621 0.254,0.7874 0.2413,1.524 -0.0127,0.7239 -0.2413,1.2954 -0.2286,0.5588 -0.6477,0.8636 -0.3556,0.3048 -0.7112,0.4191 -0.3429,0.1143 -0.8509,0.1143 -0.2286,0.0127 -0.508,0 -0.2794,-0.0127 -0.5715,-0.0254 -0.0127,-0.3175 -0.1143,-0.7366 -0.1016,-0.4064 -0.3175,-0.7239 0.3556,0.0254 0.6604,0.0508 0.3175,0.0127 0.5588,0.0127 0.2413,0 0.4318,-0.0508 0.1905,-0.0508 0.3429,-0.2159 0.2286,-0.1778 0.3302,-0.5461 0.1143,-0.381 0.0762,-0.889 -0.0254,-0.5207 -0.254,-1.0922 -0.2159,-0.5842 -0.6731,-1.1684 -0.4445,-0.5842 -1.1811,-1.1049 z m 2.0193,-1.9431 1.2573,0.5334 q -0.6731,0.6858 -1.6256,1.2446 -0.9525,0.5461 -2.032,0.9652 -1.0668,0.4191 -2.1209,0.6985 -0.0762,-0.1524 -0.2159,-0.3683 -0.1397,-0.2286 -0.2921,-0.4572 -0.1524,-0.2286 -0.2794,-0.3683 1.0287,-0.2032 2.032,-0.5207 1.016,-0.3175 1.8669,-0.7493 0.8509,-0.4445 1.4097,-0.9779 z m -0.9906,2.5273 0.9779,0.6858 q -0.5207,0.4064 -1.27,0.8382 -0.7493,0.4318 -1.5621,0.8001 -0.8001,0.3683 -1.5113,0.6223 -0.127,-0.254 -0.3429,-0.5969 -0.2159,-0.3429 -0.4191,-0.5588 0.508,-0.127 1.0795,-0.3175 0.5842,-0.2032 1.143,-0.4445 0.5715,-0.2413 1.0668,-0.4953 0.4953,-0.2667 0.8382,-0.5334 z m 1.0287,1.2192 1.0414,0.7747 q -0.508,0.4826 -1.2065,0.9652 -0.6858,0.4826 -1.4859,0.9271 -0.7874,0.4318 -1.6002,0.8001 -0.8128,0.3683 -1.5621,0.6223 -0.1397,-0.2921 -0.3683,-0.6477 -0.2159,-0.3683 -0.4318,-0.6223 0.7493,-0.1778 1.5494,-0.4826 0.8001,-0.3048 1.5621,-0.6858 0.762,-0.381 1.4097,-0.8001 0.6477,-0.4318 1.0922,-0.8509 z m 1.9177,-3.5306 q 0.3175,1.3335 0.8636,2.5019 0.5461,1.1684 1.3589,2.0574 0.8255,0.889 1.9558,1.397 -0.1651,0.1524 -0.3683,0.381 -0.2032,0.2286 -0.3937,0.4826 -0.1778,0.254 -0.3048,0.4572 -1.1938,-0.6477 -2.0447,-1.6764 -0.8509,-1.0414 -1.4097,-2.3876 -0.5588,-1.3589 -0.9271,-2.9464 z m 2.4892,0.8255 1.1811,1.0287 q -0.4318,0.3302 -0.9271,0.6731 -0.4953,0.3302 -0.9779,0.6223 -0.4826,0.2794 -0.9017,0.508 l -0.9652,-0.9271 q 0.3937,-0.2286 0.8636,-0.5461 0.4826,-0.3302 0.9398,-0.6858 0.4572,-0.3556 0.7874,-0.6731 z"
         id="path6372" /><path
         d="m 220.66037,182.9131 h 5.8547 v 1.3208 h -5.8547 z m -2.2733,2.8575 h 11.3665 v 1.397 h -11.3665 z m 4.8895,-0.8255 h 1.5621 v 3.9243 q 0,0.5842 -0.1651,0.9144 -0.1651,0.3302 -0.6223,0.4953 -0.4572,0.1651 -1.0668,0.2032 -0.6096,0.0381 -1.4224,0.0381 -0.0762,-0.3302 -0.2667,-0.762 -0.1778,-0.4191 -0.3556,-0.7239 0.4064,0.0127 0.8255,0.0254 0.4191,0.0127 0.7366,0.0127 0.3302,0 0.4572,-0.0127 0.1905,0 0.254,-0.0508 0.0635,-0.0508 0.0635,-0.1778 z m 2.7559,-2.032 h 0.3683 l 0.3302,-0.0762 0.9525,0.7366 q -0.4191,0.4699 -0.9779,0.9398 -0.5588,0.4699 -1.1684,0.889 -0.6096,0.4064 -1.2319,0.7112 -0.1397,-0.2032 -0.3937,-0.4572 -0.2413,-0.2667 -0.4064,-0.4318 0.4953,-0.254 0.9779,-0.6096 0.4953,-0.3556 0.9017,-0.7239 0.4064,-0.381 0.6477,-0.6858 z m -7.4803,-2.3241 h 11.0617 v 3.1115 h -1.4986 v -1.7653 h -8.1407 v 1.7653 h -1.4224 z m 8.7884,-1.9304 1.651,0.4826 q -0.4318,0.635 -0.9017,1.2446 -0.4699,0.6096 -0.8509,1.0287 l -1.2573,-0.4572 q 0.254,-0.3302 0.4953,-0.7239 0.254,-0.3937 0.4826,-0.8001 0.2286,-0.4191 0.381,-0.7747 z m -7.9375,0.6223 1.2954,-0.5842 q 0.3429,0.381 0.6731,0.8509 0.3302,0.4572 0.4826,0.8255 l -1.3716,0.6477 q -0.1397,-0.3556 -0.4572,-0.8382 -0.3048,-0.4953 -0.6223,-0.9017 z m 3.1877,-0.2794 1.3462,-0.4953 q 0.3048,0.4064 0.5842,0.9271 0.2921,0.5207 0.4191,0.9144 l -1.4351,0.5588 q -0.1016,-0.381 -0.3683,-0.9144 -0.254,-0.5461 -0.5461,-0.9906 z"
         id="path6374" /><path
         d="m 236.87403,188.6281 q 1.1303,-0.0381 2.6162,-0.0762 1.4986,-0.0508 3.1369,-0.1143 1.651,-0.0635 3.2512,-0.127 l -0.0508,1.397 q -1.5494,0.0889 -3.1496,0.1524 -1.5875,0.0762 -3.0226,0.1397 -1.4351,0.0762 -2.5908,0.127 z m -0.0635,-3.7719 h 10.5537 v 1.4224 h -10.5537 z m 2.2606,-2.4511 h 5.9563 v 1.397 h -5.9563 z m 0.8382,3.3782 1.7399,0.4699 q -0.2921,0.5969 -0.6223,1.2192 -0.3175,0.6096 -0.635,1.1684 -0.3048,0.5588 -0.5842,0.9906 l -1.3335,-0.4445 q 0.254,-0.4699 0.5334,-1.0541 0.2794,-0.5969 0.508,-1.2065 0.2413,-0.6223 0.3937,-1.143 z m 3.1623,1.3081 1.3335,-0.7112 q 0.5715,0.4953 1.1303,1.0668 0.5588,0.5715 1.0287,1.1557 0.4699,0.5715 0.762,1.0541 l -1.4224,0.8636 q -0.254,-0.4826 -0.7239,-1.0922 -0.4572,-0.5969 -1.016,-1.2192 -0.5461,-0.6223 -1.0922,-1.1176 z m -1.0414,-7.0358 q -0.508,0.7239 -1.3081,1.4859 -0.8001,0.7493 -1.778,1.4224 -0.9779,0.6731 -2.032,1.1811 -0.0762,-0.1905 -0.2413,-0.4191 -0.1524,-0.2413 -0.3302,-0.4572 -0.1651,-0.2286 -0.3302,-0.3937 1.0922,-0.4826 2.0955,-1.1938 1.0033,-0.7239 1.7907,-1.524 0.8001,-0.8128 1.27,-1.5621 h 1.6002 q 0.508,0.6985 1.1303,1.3208 0.6223,0.6223 1.3208,1.143 0.6985,0.508 1.4351,0.9144 0.7493,0.3937 1.5113,0.6731 -0.2794,0.2794 -0.5334,0.6604 -0.254,0.381 -0.4572,0.7239 -0.9525,-0.4445 -1.9304,-1.0922 -0.9779,-0.6477 -1.8288,-1.397 -0.8382,-0.7493 -1.3843,-1.4859 z"
         id="path6376" /></g><path
       id="path308"
       style="font-variation-settings:'wdth' 75;fill:#f8fcff;fill-opacity:1;stroke:none;stroke-width:5.29166;paint-order:markers stroke fill;stop-color:#000000"
       d="m 202.40625,142.875 a 7.9375,7.9375 0 0 0 -7.9375,7.9375 v 7.9375 7.9375 a 7.9375,7.9375 0 0 0 7.9375,7.9375 h 3.96875 3.96875 a 7.9375,7.9375 0 0 0 7.9375,-7.9375 v -7.9375 -7.9375 a 7.9375,7.9375 0 0 0 -7.9375,-7.9375 H 206.375 Z m 0,7.9375 h 3.96875 3.96875 v 7.9375 7.9375 H 206.375 202.40625 V 158.75 Z" /><path
       id="rect565"
       style="fill:#f8fcff;stroke-width:0.333333;stroke-linecap:round;stroke-linejoin:round;paint-order:markers stroke fill;stop-color:#000000"
       d="m 178.59375,127 h 7.9375 v 7.9375 h -7.9375 z" /></g></svg>
