<?xml version="1.0" encoding="UTF-8" standalone="no"?>
<svg
   viewBox="0 0 566.93 566.93"
   version="1.1"
   id="svg1905"
   xmlns="http://www.w3.org/2000/svg"
   xmlns:svg="http://www.w3.org/2000/svg">
  <defs
     id="defs1799">
    <style
       id="style1797">.cls-1{fill:#c18f00;}.cls-2{fill:#fff;}</style>
  </defs>
  <rect
     class="cls-1"
     width="566.92999"
     height="566.92999"
     id="rect1801"
     x="0"
     y="0"
     style="fill:#3399ff;fill-opacity:1" />
  <path
     id="path833"
     style="font-style:normal;font-variant:normal;font-weight:500;font-stretch:normal;font-size:12.7px;line-height:1.25;font-family:Montserrat;-inkscape-font-specification:'Montserrat Medium';letter-spacing:0.105833px;fill:#ffffff;fill-opacity:1;stroke:none;stroke-width:0.999999"
     d="m 196.88571,292.91957 a 2.1479535,2.1479535 0 0 0 -1.4786,0.63074 2.0728503,2.0728503 0 0 0 -0.63367,1.50207 1.9977471,1.9977471 0 0 0 0.63367,1.50206 2.1930155,2.1930155 0 0 0 1.59004,0.60141 2.1329329,2.1329329 0 0 0 1.57834,-0.63075 2.1028915,2.1028915 0 0 0 0.63078,-1.50206 1.9677057,1.9677057 0 0 0 -0.63078,-1.50206 2.2380775,2.2380775 0 0 0 -1.57834,-0.60141 2.1479535,2.1479535 0 0 0 -0.11127,0 z m 167.69694,0.49578 v 25.2798 h 3.27402 v -25.2798 z m 23.22329,0 v 9.95702 a 6.8043563,6.8043563 0 0 0 -2.71954,-2.16214 8.5617728,8.5617728 0 0 0 -3.57623,-0.73636 9.5230948,9.5230948 0 0 0 -4.69984,1.15881 8.3214425,8.3214425 0 0 0 -3.25932,3.23002 10.514458,10.514458 0 0 0 0,9.62551 8.3965453,8.3965453 0 0 0 3.25932,3.25935 9.5230948,9.5230948 0 0 0 4.69984,1.15588 8.516711,8.516711 0 0 0 3.68183,-0.79502 6.9545629,6.9545629 0 0 0 2.74889,-2.26777 v 2.8545 h 3.13908 v -25.2798 z m -282.40516,1.44045 v 23.83935 h 3.41192 V 294.8558 Z m 183.19281,0 7.96211,23.83935 h 3.64951 l 6.50406,-19.04566 6.50406,19.04566 h 3.57617 l 7.97386,-23.83935 h -3.24468 l -6.56276,19.52973 -6.58031,-19.52973 h -3.13908 l -6.7006,19.37718 -6.44242,-19.37718 z m -130.12782,5.53005 v 0.003 a 8.2012775,8.2012775 0 0 0 -0.40193,0.009 13.803981,13.803981 0 0 0 -4.13071,0.60141 9.7333836,9.7333836 0 0 0 -3.33267,1.71328 l 1.36415,2.44672 a 8.336463,8.336463 0 0 1 2.5846,-1.41113 9.7634255,9.7634255 0 0 1 3.13909,-0.52512 5.137064,5.137064 0 0 1 3.60551,1.12655 4.1457006,4.1457006 0 0 1 1.23216,3.23002 v 0.64542 h -5.18386 a 8.4716491,8.4716491 0 0 0 -5.51245,1.50204 5.0319192,5.0319192 0 0 0 0.0761,7.67461 7.5103271,7.5103271 0 0 0 4.86702,1.50206 8.7420212,8.7420212 0 0 0 3.59087,-0.67476 5.1070226,5.1070226 0 0 0 2.32641,-1.92451 v 2.39098 h 3.10974 v -10.90755 a 7.1498318,7.1498318 0 0 0 -1.99782,-5.48018 8.2012775,8.2012775 0 0 0 -5.33646,-1.92157 z m 76.5758,0 v 0.003 a 8.2313183,8.2313183 0 0 0 -0.40195,0.009 13.743898,13.743898 0 0 0 -4.1307,0.60141 9.7333836,9.7333836 0 0 0 -3.33563,1.71328 l 1.3671,2.44672 a 8.336463,8.336463 0 0 1 2.58461,-1.41113 9.7634255,9.7634255 0 0 1 3.13909,-0.52512 5.1671052,5.1671052 0 0 1 3.60556,1.12655 4.2057832,4.2057832 0 0 1 1.23215,3.23002 v 0.64542 h -5.18391 a 8.4716491,8.4716491 0 0 0 -5.51245,1.50204 4.731506,4.731506 0 0 0 -1.74257,3.83143 4.6714234,4.6714234 0 0 0 1.81888,3.84318 7.5103271,7.5103271 0 0 0 4.84942,1.50206 8.817124,8.817124 0 0 0 3.60552,-0.67476 5.1070226,5.1070226 0 0 0 2.32941,-1.92451 v 2.39098 h 3.09504 v -10.90755 a 7.1498318,7.1498318 0 0 0 -1.98318,-5.48018 8.2313183,8.2313183 0 0 0 -5.33645,-1.92157 z m 22.75686,0.0852 a 9.2076613,9.2076613 0 0 0 -3.72292,0.81556 5.5276008,5.5276008 0 0 0 -2.49366,2.44965 v -3.00705 h -3.13909 v 18.02473 h 3.27699 v -9.00944 a 6.2035303,6.2035303 0 0 1 1.50205,-4.50911 5.482539,5.482539 0 0 1 4.15999,-1.59007 4.7465268,4.7465268 0 0 1 0.75107,0 v -3.17134 a 9.2076613,9.2076613 0 0 0 -0.33437,-0.003 z m 102.15485,0 a 9.2076613,9.2076613 0 0 0 -3.72292,0.81556 5.6327456,5.6327456 0 0 0 -2.50831,2.44965 v -3.00705 h -3.12149 v 18.02473 h 3.25644 v -9.00944 a 6.2636132,6.2636132 0 0 1 1.50499,-4.50911 5.5426216,5.5426216 0 0 1 4.17469,-1.59007 4.8817126,4.8817126 0 0 1 0.75103,0 v -3.17134 a 9.2076613,9.2076613 0 0 0 -0.33439,-0.003 z m -23.42575,0.003 a 9.9737149,9.9737149 0 0 0 -4.68808,1.17349 8.5617728,8.5617728 0 0 0 -3.35027,3.27402 9.9737149,9.9737149 0 0 0 0,9.4935 8.6969594,8.6969594 0 0 0 3.35027,3.28869 9.8235078,9.8235078 0 0 0 4.83478,1.19989 9.6432599,9.6432599 0 0 0 4.82301,-1.19989 8.6969594,8.6969594 0 0 0 3.35033,-3.28869 9.9737149,9.9737149 0 0 0 0,-9.4935 8.5617728,8.5617728 0 0 0 -3.35033,-3.27402 9.7934663,9.7934663 0 0 0 -4.82301,-1.17349 9.9737149,9.9737149 0 0 0 -0.14646,0 z m -121.61707,0.0351 a 7.4202034,7.4202034 0 0 0 -0.38435,0.009 9.1776198,9.1776198 0 0 0 -3.8314,0.75396 6.3236955,6.3236955 0 0 0 -2.6726,2.14455 v -2.73155 h -3.12444 v 18.02472 h 3.25938 v -9.29987 a 6.008262,6.008262 0 0 1 1.50205,-4.50325 5.6177247,5.6177247 0 0 1 4.1923,-1.50499 4.7465268,4.7465268 0 0 1 3.62016,1.3231 5.5426216,5.5426216 0 0 1 1.2615,3.95172 v 10.01863 h 3.25938 v -10.39415 a 7.8107402,7.8107402 0 0 0 -2.02723,-5.82929 7.4202034,7.4202034 0 0 0 -5.05475,-1.96265 z m -76.3587,0.003 a 7.3451002,7.3451002 0 0 0 -0.56918,0.0176 9.3578672,9.3578672 0 0 0 -4.116,0.88599 6.9695838,6.9695838 0 0 0 -2.83979,2.44965 5.7529108,5.7529108 0 0 0 -2.52301,-2.47899 7.9309052,7.9309052 0 0 0 -3.74052,-0.85665 8.5617728,8.5617728 0 0 0 -3.64951,0.73637 6.2636132,6.2636132 0 0 0 -2.58461,2.11814 v -2.68729 h -3.13908 v 18.02474 h 3.27403 v -9.29986 a 6.2485921,6.2485921 0 0 1 1.50204,-4.50619 5.1671052,5.1671052 0 0 1 3.95176,-1.50207 4.5061962,4.5061962 0 0 1 3.47057,1.32312 5.7529108,5.7529108 0 0 1 1.19985,3.95171 v 10.01568 h 3.27403 v -9.29693 a 6.2485921,6.2485921 0 0 1 1.5021,-4.50618 5.1671052,5.1671052 0 0 1 3.95171,-1.50205 4.5061962,4.5061962 0 0 1 3.47057,1.32309 5.7529108,5.7529108 0 0 1 1.19991,3.94879 v 10.01862 h 3.27402 v -10.39121 a 7.8858434,7.8858434 0 0 0 -1.99492,-5.85863 7.3451002,7.3451002 0 0 0 -4.91397,-1.92744 z m 40.62015,0.0176 a 10.063839,10.063839 0 0 0 -4.50907,1.08255 8.1712355,8.1712355 0 0 0 -3.28869,3.09506 9.297785,9.297785 0 0 0 0,9.01236 8.1712355,8.1712355 0 0 0 3.28869,3.09508 9.7333836,9.7333836 0 0 0 4.68512,1.11187 9.478033,9.478033 0 0 0 3.66717,-0.69235 7.1798727,7.1798727 0 0 0 2.83689,-2.10347 v 1.50206 a 6.1134061,6.1134061 0 0 1 -1.50209,4.50619 6.3687573,6.3687573 0 0 1 -4.67043,1.50206 11.926399,11.926399 0 0 1 -3.84611,-0.63076 9.3728882,9.3728882 0 0 1 -3.10974,-1.71328 l -1.5021,2.51125 a 9.432971,9.432971 0 0 0 3.74052,1.99786 16.793092,16.793092 0 0 0 4.86702,0.70409 9.778446,9.778446 0 0 0 6.94115,-2.26775 9.297785,9.297785 0 0 0 2.35581,-6.99985 v -15.60455 l -3.09213,0.0587 v 2.79583 a 7.0146457,7.0146457 0 0 0 -2.88385,-2.2091 9.3728882,9.3728882 0 0 0 -3.80211,-0.75103 10.063839,10.063839 0 0 0 -0.17315,-0.003 z m 16.23521,0.10559 v 18.02474 h 3.27403 v -18.02474 z m 63.88159,0 7.95917,18.02474 -0.56913,1.26443 a 5.4975594,5.4975594 0 0 1 -1.50205,2.16215 3.1393169,3.1393169 0 0 1 -1.99787,0.63076 4.5061962,4.5061962 0 0 1 -3.24468,-1.33778 l -1.39645,2.44965 a 5.212167,5.212167 0 0 0 2.07122,1.24683 7.8107402,7.8107402 0 0 0 2.56991,0.43417 6.1584684,6.1584684 0 0 0 3.72582,-1.12653 8.8621858,8.8621858 0 0 0 2.70193,-3.89011 l 8.75714,-19.85831 h -3.13904 l -6.23417,14.45147 -6.29281,-14.45147 z m 77.38846,2.69022 a 6.609088,6.609088 0 0 1 3.12143,0.78037 5.647766,5.647766 0 0 1 2.16217,2.23842 7.5103271,7.5103271 0 0 1 0,6.639 5.7829516,5.7829516 0 0 1 -2.16217,2.2531 6.5039433,6.5039433 0 0 1 -6.23411,0 5.8129929,5.8129929 0 0 1 -2.17683,-2.2531 7.3150582,7.3150582 0 0 1 0,-6.639 5.6778074,5.6778074 0 0 1 2.17683,-2.23842 6.609088,6.609088 0 0 1 3.11268,-0.78037 z m 45.08234,0 a 6.5790467,6.5790467 0 0 1 3.11564,0.78037 5.482539,5.482539 0 0 1 2.17971,2.23842 7.3150582,7.3150582 0 0 1 0,6.639 5.6177247,5.6177247 0 0 1 -2.17971,2.2531 6.4739019,6.4739019 0 0 1 -6.21657,0 6.008262,6.008262 0 0 1 -2.17971,-2.2531 7.3150582,7.3150582 0 0 1 0,-6.639 5.7829516,5.7829516 0 0 1 2.17971,-2.23842 6.5790467,6.5790467 0 0 1 3.10093,-0.78037 z m -202.19741,0.0233 a 6.9846037,6.9846037 0 0 1 4.62359,1.6458 5.5426216,5.5426216 0 0 1 1.74258,4.2363 5.8730758,5.8730758 0 0 1 -0.79797,3.00412 5.5576421,5.5576421 0 0 1 -2.22372,2.10347 h -0.0585 a 7.1948936,7.1948936 0 0 1 -6.39841,0 5.5576421,5.5576421 0 0 1 -2.22378,-2.10347 5.8730758,5.8730758 0 0 1 -0.79502,-3.00412 5.5426216,5.5426216 0 0 1 1.74264,-4.2363 6.9846037,6.9846037 0 0 1 4.38879,-1.6458 z m -22.08499,7.30787 h 5.04891 v 2.52594 a 4.7164856,4.7164856 0 0 1 -1.98317,2.3587 6.008262,6.008262 0 0 1 -3.23003,0.83904 4.911754,4.911754 0 0 1 -2.92785,-0.78037 2.5384905,2.5384905 0 0 1 -1.05321,-2.14748 c 0,-1.86252 1.38152,-2.79583 4.14535,-2.79583 z m 76.57585,0 h 5.0489 v 2.52594 a 4.7915886,4.7915886 0 0 1 -1.98323,2.3587 6.008262,6.008262 0 0 1 -3.22997,0.83904 4.8817126,4.8817126 0 0 1 -2.93079,-0.78037 2.5535111,2.5535111 0 0 1 -1.06496,-2.14748 c 0,-1.86252 1.39627,-2.79583 4.16005,-2.79583 z M 343.84715,337.908 a 5.9031172,5.9031172 0 0 0 -4.03384,1.59007 5.7078489,5.7078489 0 0 0 -1.50205,4.25095 v 1.60474 h -3.00414 v 2.69022 h 3.00414 v 15.35212 h 3.27399 v -15.35212 h 5.18391 v -2.69022 h -5.24257 v -1.57539 c 0,-2.10285 0.97693,-3.17135 2.8545,-3.17135 a 3.9954941,3.9954941 0 0 1 2.50831,0.85664 l 0.99162,-2.49071 a 5.0319192,5.0319192 0 0 0 -1.637,-0.78331 7.3901621,7.3901621 0 0 0 -2.04483,-0.26988 5.9031172,5.9031172 0 0 0 -0.35198,-0.012 z m -91.63161,0.012 a 2.2080361,2.2080361 0 0 0 -2.17972,2.31469 2.1779949,2.1779949 0 0 0 0.39001,1.32017 2.1028915,2.1028915 0 0 0 1.03555,0.79797 l -1.26144,5.07533 h 2.15036 l 1.63409,-4.77608 a 9.1025166,9.1025166 0 0 0 0.43713,-1.41112 4.5061962,4.5061962 0 0 0 0.1056,-1.00627 2.3432221,2.3432221 0 0 0 -0.63072,-1.65167 2.1179123,2.1179123 0 0 0 -1.59299,-0.66302 2.2080361,2.2080361 0 0 0 -0.088,0 z m -136.45585,1.3671 a 13.32332,13.32332 0 0 0 -6.15197,1.57835 11.610966,11.610966 0 0 0 -4.50618,4.37122 12.737514,12.737514 0 0 0 0,12.49762 11.535863,11.535863 0 0 0 4.50618,4.35363 13.233197,13.233197 0 0 0 6.44241,1.59301 13.518588,13.518588 0 0 0 5.12226,-0.95932 10.349231,10.349231 0 0 0 3.96641,-2.79583 l -2.20617,-2.14748 a 8.9222686,8.9222686 0 0 1 -6.71525,2.86918 9.7484045,9.7484045 0 0 1 -4.80837,-1.20282 8.5617728,8.5617728 0 0 1 -3.35028,-3.27403 9.6282394,9.6282394 0 0 1 0,-9.37321 8.6969594,8.6969594 0 0 1 3.35028,-3.2887 9.7484045,9.7484045 0 0 1 4.80837,-1.18522 9.0123929,9.0123929 0 0 1 6.71525,2.82224 l 2.20617,-2.14748 a 10.379272,10.379272 0 0 0 -3.9517,-2.77823 13.668796,13.668796 0 0 0 -5.10467,-0.93293 13.32332,13.32332 0 0 0 -0.32245,0 z m 163.45774,0 a 13.278258,13.278258 0 0 0 -6.14027,1.57835 11.656027,11.656027 0 0 0 -4.50619,4.37122 12.737514,12.737514 0 0 0 0,12.49762 11.671048,11.671048 0 0 0 4.50619,4.35363 13.173114,13.173114 0 0 0 6.51872,1.59301 13.593692,13.593692 0 0 0 5.13696,-0.95932 10.514458,10.514458 0 0 0 3.96634,-2.79583 l -2.22371,-2.14748 a 8.8772068,8.8772068 0 0 1 -6.69771,2.86918 9.7183631,9.7183631 0 0 1 -4.80831,-1.20282 8.4566287,8.4566287 0 0 1 -3.35033,-3.27403 9.6282394,9.6282394 0 0 1 0,-9.37321 8.6068347,8.6068347 0 0 1 3.35033,-3.2887 9.7033426,9.7033426 0 0 1 4.80831,-1.18522 8.8772068,8.8772068 0 0 1 6.69771,2.82224 l 2.13278,-2.14748 a 10.514458,10.514458 0 0 0 -3.94876,-2.77823 13.668796,13.668796 0 0 0 -5.10762,-0.93293 13.278258,13.278258 0 0 0 -0.33438,0 z m -94.04018,2.10347 v 3.96639 h -3.00415 v 2.68728 h 3.00415 v 9.86902 a 5.5726628,5.5726628 0 0 0 1.50204,4.18934 5.7679311,5.7679311 0 0 0 4.2187,1.50206 7.5103271,7.5103271 0 0 0 2.17977,-0.31389 5.1220432,5.1220432 0 0 0 1.77193,-0.94759 l -1.02091,-2.34109 a 3.9804734,3.9804734 0 0 1 -2.55526,0.83903 2.7037179,2.7037179 0 0 1 -2.08587,-0.78036 3.124296,3.124296 0 0 1 -0.73637,-2.23844 v -9.77805 h 5.16625 V 345.357 h -5.16625 v -3.96639 z m -13.84125,3.67009 a 8.1411946,8.1411946 0 0 0 -0.3991,0.012 13.638754,13.638754 0 0 0 -4.11599,0.60141 9.928653,9.928653 0 0 0 -3.35033,1.71036 l 1.36709,2.46432 a 7.7506574,7.7506574 0 0 1 2.58461,-1.41111 9.3879091,9.3879091 0 0 1 3.13909,-0.54274 5.137064,5.137064 0 0 1 3.60557,1.12654 4.1607213,4.1607213 0 0 1 1.23216,3.24469 v 0.64543 h -5.18392 a 8.5918142,8.5918142 0 0 0 -5.51245,1.50206 5.0319192,5.0319192 0 0 0 0.0908,7.69219 7.5103271,7.5103271 0 0 0 4.84942,1.49913 9.0123929,9.0123929 0 0 0 3.59087,-0.6601 5.1971466,5.1971466 0 0 0 2.32937,-1.92157 v 2.37338 h 3.10979 v -10.88996 a 7.0446866,7.0446866 0 0 0 -1.99788,-5.4831 8.1411946,8.1411946 0 0 0 -5.33936,-1.96265 z m 244.23457,0.0763 v 0.003 a 7.4202034,7.4202034 0 0 0 -0.38435,0.006 9.4179501,9.4179501 0 0 0 -3.8285,0.75103 6.3236955,6.3236955 0 0 0 -2.6726,2.14747 v -2.65795 h -3.14204 v 18.02474 h 3.27699 v -9.29693 a 6.008262,6.008262 0 0 1 1.50204,-4.50912 5.6778074,5.6778074 0 0 1 4.18934,-1.49913 4.7465268,4.7465268 0 0 1 3.62023,1.33484 5.5876834,5.5876834 0 0 1 1.2468,3.95171 v 10.00104 h 3.27403 v -10.37655 a 7.8257612,7.8257612 0 0 0 -2.02719,-5.84396 7.4202034,7.4202034 0 0 0 -5.05481,-2.03599 z m -91.03605,0.003 a 7.4202034,7.4202034 0 0 0 -0.19075,0.006 9.4179501,9.4179501 0 0 0 -3.83141,0.75103 6.3236955,6.3236955 0 0 0 -2.67555,2.14747 v -2.65795 h -3.13614 v 18.02474 h 3.27403 v -9.29693 a 6.008262,6.008262 0 0 1 1.50205,-4.50619 5.6778074,5.6778074 0 0 1 4.18935,-1.50206 4.731506,4.731506 0 0 1 3.60551,1.33777 5.5276008,5.5276008 0 0 1 1.2615,3.94878 v 10.00397 h 3.24468 v -10.37948 a 7.8257612,7.8257612 0 0 0 -2.02717,-5.84396 7.4202034,7.4202034 0 0 0 -5.21616,-2.03307 z m -185.65712,0.0323 0.003,0.003 a 9.0123929,9.0123929 0 0 0 -3.67591,0.83025 5.6027042,5.6027042 0 0 0 -2.50837,2.34402 v -3.00705 h -3.12733 v 18.02768 h 3.26234 v -9.01237 a 6.3236955,6.3236955 0 0 1 1.49909,-4.50618 5.5426216,5.5426216 0 0 1 4.17759,-1.50208 h 0.75108 v -3.17133 a 9.0123929,9.0123929 0 0 0 -0.3815,-0.006 z m 90.92166,0 v 0.003 a 9.0123929,9.0123929 0 0 0 -3.67597,0.83025 5.6027042,5.6027042 0 0 0 -2.5083,2.34402 v -3.00705 h -3.13909 v 18.02768 h 3.27403 v -9.01237 a 6.3236955,6.3236955 0 0 1 1.50205,-4.50618 5.5125802,5.5125802 0 0 1 4.17469,-1.50208 h 0.75102 v -3.17133 a 9.0123929,9.0123929 0 0 0 -0.37866,-0.006 z m 150.23837,0 v 0.003 a 9.0123929,9.0123929 0 0 0 -3.67886,0.83025 5.4975594,5.4975594 0 0 0 -2.49366,2.34402 v -3.00705 h -3.13909 v 18.02768 h 3.27403 v -9.01237 a 6.2636132,6.2636132 0 0 1 1.50209,-4.50618 5.482539,5.482539 0 0 1 4.16295,-1.50208 h 0.75103 v -3.17133 a 9.0123929,9.0123929 0 0 0 -0.37867,-0.006 z m -173.48512,0.003 a 10.514458,10.514458 0 0 0 -4.82302,1.17643 8.5617728,8.5617728 0 0 0 -3.35033,3.27401 9.8986111,9.8986111 0 0 0 0,9.50817 8.6068347,8.6068347 0 0 0 3.35033,3.2887 10.424334,10.424334 0 0 0 9.65774,0 8.7720616,8.7720616 0 0 0 3.33563,-3.2887 9.8986111,9.8986111 0 0 0 0,-9.50817 8.7269997,8.7269997 0 0 0 -3.33563,-3.27401 10.514458,10.514458 0 0 0 -4.83472,-1.17643 z m 94.18098,0 a 10.514458,10.514458 0 0 0 -4.82597,1.17643 8.5617728,8.5617728 0 0 0 -3.34732,3.27401 9.8986111,9.8986111 0 0 0 0,9.50817 8.6068347,8.6068347 0 0 0 3.34732,3.2887 10.424334,10.424334 0 0 0 9.66075,0 8.5617728,8.5617728 0 0 0 3.33268,-3.2887 9.8986111,9.8986111 0 0 0 0,-9.50817 8.5317319,8.5317319 0 0 0 -3.33268,-3.27401 10.514458,10.514458 0 0 0 -4.83478,-1.17643 z m 135.66961,0.003 a 10.168983,10.168983 0 0 0 -4.73797,1.17349 8.7870831,8.7870831 0 0 0 -3.39428,3.27401 9.8986111,9.8986111 0 0 0 0,9.50817 8.817124,8.817124 0 0 0 3.39428,3.2887 10.003756,10.003756 0 0 0 4.92867,1.18522 9.1926403,9.1926403 0 0 0 4.37124,-1.00333 7.0296661,7.0296661 0 0 0 3.0012,-2.87211 l -2.47606,-1.57548 a 5.5876834,5.5876834 0 0 1 -2.11818,1.95387 6.1734889,6.1734889 0 0 1 -2.7958,0.6454 6.4588814,6.4588814 0 0 1 -3.18308,-0.79797 5.5125802,5.5125802 0 0 1 -2.20913,-2.22083 7.4202034,7.4202034 0 0 1 0,-6.68593 5.6177247,5.6177247 0 0 1 2.20913,-2.22375 6.4588814,6.4588814 0 0 1 3.18308,-0.78037 6.008262,6.008262 0 0 1 2.7958,0.64542 5.6627868,5.6627868 0 0 1 2.11818,1.93919 l 2.47606,-1.59301 a 6.9395424,6.9395424 0 0 0 -3.0012,-2.86918 9.3728882,9.3728882 0 0 0 -4.37124,-0.99158 10.168983,10.168983 0 0 0 -0.19074,0 z m -196.61751,0.003 v 0.003 a 9.0874957,9.0874957 0 0 0 -4.99612,1.51086 4.6263616,4.6263616 0 0 0 -2.04188,3.93706 4.1607213,4.1607213 0 0 0 0.97697,3.00412 5.5726628,5.5726628 0 0 0 2.37337,1.50206 25.114534,25.114534 0 0 0 3.55856,0.78037 c 1.06649,0.18051 1.89359,0.34589 2.46436,0.49577 a 3.7551637,3.7551637 0 0 1 1.50204,0.68943 1.6372513,1.6372513 0 0 1 0.56913,1.30843 c 0,1.62223 -1.42602,2.44672 -4.29493,2.44672 a 12.316936,12.316936 0 0 1 -3.43832,-0.51049 9.88359,9.88359 0 0 1 -2.88676,-1.36417 l -1.36714,2.58167 a 9.0123929,9.0123929 0 0 0 3.20068,1.50206 14.870448,14.870448 0 0 0 4.25094,0.58381 9.88359,9.88359 0 0 0 5.69145,-1.49914 4.5061962,4.5061962 0 0 0 2.10347,-3.90477 3.9504321,3.9504321 0 0 0 -0.95931,-2.8545 5.1520844,5.1520844 0 0 0 -2.30008,-1.50206 28.148704,28.148704 0 0 0 -3.51456,-0.79798 c -1.03641,-0.21061 -1.93685,-0.38933 -2.53766,-0.53976 a 4.1006387,4.1006387 0 0 1 -1.50209,-0.75103 1.7423959,1.7423959 0 0 1 -0.61609,-1.39645 2.0277883,2.0277883 0 0 1 1.09721,-1.80423 5.8580554,5.8580554 0 0 1 3.15379,-0.68944 9.402929,9.402929 0 0 1 5.21026,1.50207 l 1.3994,-2.58167 a 9.4930539,9.4930539 0 0 0 -3.00414,-1.18815 14.810365,14.810365 0 0 0 -3.60552,-0.45179 9.0874957,9.0874957 0 0 0 -0.48709,-0.012 z m -88.94138,0.0408 a 9.2827645,9.2827645 0 0 0 -4.51204,1.17349 8.6068347,8.6068347 0 0 0 -3.23003,3.28869 10.003756,10.003756 0 0 0 0,9.50816 8.4115668,8.4115668 0 0 0 3.42657,3.28869 11.505821,11.505821 0 0 0 9.14732,0.42244 7.9909881,7.9909881 0 0 0 3.00414,-2.17974 l -1.81599,-2.11815 a 6.6691703,6.6691703 0 0 1 -5.2132,2.19442 6.8343978,6.8343978 0 0 1 -4.42994,-1.50206 5.647766,5.647766 0 0 1 -2.10348,-3.8285 h 14.64512 a 9.6883217,9.6883217 0 0 0 0.14987,-0.94759 10.138942,10.138942 0 0 0 -1.1412,-4.83769 8.4566287,8.4566287 0 0 0 -3.17139,-3.2887 9.0123929,9.0123929 0 0 0 -4.60883,-1.17054 9.2827645,9.2827645 0 0 0 -0.14647,-0.003 z m 241.18648,0 a 9.2827645,9.2827645 0 0 0 -4.51209,1.17349 8.6068347,8.6068347 0 0 0 -3.22709,3.28869 9.6132189,9.6132189 0 0 0 -1.17344,4.73208 9.402929,9.402929 0 0 0 1.20279,4.77608 8.4115668,8.4115668 0 0 0 3.42364,3.28869 11.505821,11.505821 0 0 0 9.14736,0.42244 7.9909881,7.9909881 0 0 0 3.00409,-2.17974 l -1.80129,-2.1186 a 6.7142326,6.7142326 0 0 1 -5.2132,2.19442 6.8494182,6.8494182 0 0 1 -4.50619,-1.50206 5.647766,5.647766 0 0 1 -2.10347,-3.8285 h 14.64512 a 9.6883217,9.6883217 0 0 0 0.18166,-0.94759 9.9586938,9.9586938 0 0 0 -1.14126,-4.83769 8.4566287,8.4566287 0 0 0 -3.17133,-3.2887 9.0123929,9.0123929 0 0 0 -4.60889,-1.17054 9.2827645,9.2827645 0 0 0 -0.14645,-0.003 z m 63.49141,0 a 9.2827645,9.2827645 0 0 0 -4.50914,1.17349 8.6068347,8.6068347 0 0 0 -3.22997,3.28869 9.6132189,9.6132189 0 0 0 -1.17352,4.73208 9.402929,9.402929 0 0 0 1.20281,4.77608 8.4115668,8.4115668 0 0 0 3.42368,3.28869 11.505821,11.505821 0 0 0 9.15027,0.42244 7.9909881,7.9909881 0 0 0 3.00408,-2.17974 l -1.80423,-2.11815 a 6.7142326,6.7142326 0 0 1 -5.21321,2.19442 6.8494182,6.8494182 0 0 1 -4.50324,-1.50206 5.647766,5.647766 0 0 1 -2.10347,-3.8285 h 14.64511 a 9.6883217,9.6883217 0 0 0 0.17884,-0.94759 9.9586938,9.9586938 0 0 0 -1.14121,-4.83769 8.4566287,8.4566287 0 0 0 -3.16843,-3.2887 9.0123929,9.0123929 0 0 0 -4.61178,-1.17054 9.2827645,9.2827645 0 0 0 -0.14645,-0.003 z m -98.20313,0.003 a 9.7484045,9.7484045 0 0 0 -4.63233,1.17055 8.5317319,8.5317319 0 0 0 -3.24468,3.28869 9.6132189,9.6132189 0 0 0 -1.17057,4.73208 9.4179501,9.4179501 0 0 0 1.21751,4.77609 8.2763801,8.2763801 0 0 0 3.40898,3.28869 11.505821,11.505821 0 0 0 9.14731,0.42244 7.8858434,7.8858434 0 0 0 3.00414,-2.17975 l -1.80423,-2.11815 a 6.6992117,6.6992117 0 0 1 -5.21031,2.19443 6.8494182,6.8494182 0 0 1 -4.50618,-1.50206 5.6327456,5.6327456 0 0 1 -2.08877,-3.8285 h 14.64505 a 9.0123929,9.0123929 0 0 0 0.16747,-0.94759 9.9586938,9.9586938 0 0 0 -1.14121,-4.83769 8.4115668,8.4115668 0 0 0 -3.15667,-3.28871 9.7484045,9.7484045 0 0 0 -4.63529,-1.17054 z m -0.20551,2.65795 h 0.003 a 5.7078489,5.7078489 0 0 1 0.16746,0 5.6327456,5.6327456 0 0 1 3.93411,1.50205 5.8580554,5.8580554 0 0 1 1.86294,3.74049 h -11.64098 a 5.7979726,5.7979726 0 0 1 1.84824,-3.75515 h 0.0284 a 5.7078489,5.7078489 0 0 1 3.79628,-1.48739 z m -206.26647,0.0674 a 6.1134061,6.1134061 0 0 1 4.00155,1.43459 5.8430345,5.8430345 0 0 1 1.84823,3.74047 h -11.57938 a 5.7529108,5.7529108 0 0 1 1.86294,-3.75515 v 0.0176 a 6.1134061,6.1134061 0 0 1 3.86666,-1.43458 z m 241.15713,0 a 6.1134061,6.1134061 0 0 1 4.00155,1.43459 5.8430345,5.8430345 0 0 1 1.84823,3.74047 h -11.58226 a 5.8129929,5.8129929 0 0 1 1.86287,-3.75515 v 0.0176 a 6.1134061,6.1134061 0 0 1 3.86961,-1.43458 z m 63.56766,0 a 6.1134061,6.1134061 0 0 1 4.00159,1.43459 5.8430345,5.8430345 0 0 1 1.84825,3.74047 h -11.58228 a 5.7529108,5.7529108 0 0 1 1.86289,-3.75515 v 0.0176 a 6.1134061,6.1134061 0 0 1 3.86955,-1.43458 z m -249.18084,0.0967 a 6.2185513,6.2185513 0 0 1 0.17315,0 6.128427,6.128427 0 0 1 3.1127,0.78037 5.4074355,5.4074355 0 0 1 2.15921,2.22375 7.3451002,7.3451002 0 0 1 0,6.6566 5.4524976,5.4524976 0 0 1 -2.15921,2.23549 6.008262,6.008262 0 0 1 -3.1127,0.81263 6.0983857,6.0983857 0 0 1 -3.12438,-0.81263 5.7829516,5.7829516 0 0 1 -2.17682,-2.23549 7.3451002,7.3451002 0 0 1 0,-6.6566 5.7378897,5.7378897 0 0 1 2.17682,-2.22375 6.2185513,6.2185513 0 0 1 2.95129,-0.78037 z m 94.18105,0 a 6.128427,6.128427 0 0 1 0.17314,0 6.2185513,6.2185513 0 0 1 3.12438,0.78037 5.6027042,5.6027042 0 0 1 2.16507,2.22375 7.5103271,7.5103271 0 0 1 0,6.6566 5.647766,5.647766 0 0 1 -2.16507,2.23549 6.0983857,6.0983857 0 0 1 -3.08038,0.81263 6.008262,6.008262 0 0 1 -3.10678,-0.81263 5.7078489,5.7078489 0 0 1 -2.19442,-2.23549 7.3451002,7.3451002 0 0 1 0,-6.6566 5.6778074,5.6778074 0 0 1 2.14747,-2.22375 6.128427,6.128427 0 0 1 2.93663,-0.78037 z m -130.22173,7.31668 h 5.04898 v 2.52299 a 4.7915886,4.7915886 0 0 1 -1.96853,2.37337 6.128427,6.128427 0 0 1 -3.24468,0.82437 4.8066094,4.8066094 0 0 1 -2.9308,-0.78036 2.5234699,2.5234699 0 0 1 -1.05026,-2.14749 c 0,-1.86258 1.38158,-2.79288 4.14529,-2.79288 z m -58.90892,28.80319 c -1.83245,0 -3.49885,0.31315 -4.99612,0.93879 -1.47491,0.62573 -2.6688,1.49652 -3.58502,2.61394 l 2.27952,1.98025 c 1.40786,-1.69835 3.40716,-2.54939 5.99942,-2.54939 1.609,0 2.83849,0.34608 3.68767,1.03854 0.87154,0.6704 1.3055,1.62243 1.3055,2.85156 0,0.82681 -0.1987,1.65218 -0.60137,2.47901 -0.40251,0.80448 -1.18498,1.76646 -2.34697,2.88383 l -9.55515,9.21772 v 2.2795 h 16.86303 v -2.91595 h -12.0341 l 7.17293,-6.90595 c 1.49728,-1.43022 2.51472,-2.70522 3.05104,-3.82263 0.53648,-1.11731 0.80381,-2.30128 0.80381,-3.55273 0,-2.01122 -0.72717,-3.59644 -2.17971,-4.75849 -1.4526,-1.18441 -3.40625,-1.77783 -5.86448,-1.77783 z m 21.5657,0 c -1.85482,0 -3.50832,0.47978 -4.96092,1.44045 -1.43017,0.93855 -2.5586,2.31468 -3.38547,4.12481 -0.82681,1.81014 -1.24095,3.95603 -1.24095,6.43658 0,2.48053 0.41442,4.62349 1.24095,6.43363 0.82687,1.81013 1.9553,3.19611 3.38547,4.15707 1.4526,0.93859 3.1061,1.40818 4.96092,1.40818 1.8325,0 3.46319,-0.46956 4.89342,-1.40818 1.45254,-0.96096 2.59102,-2.34694 3.41777,-4.15707 0.82687,-1.81014 1.24101,-3.9531 1.24101,-6.43363 0,-2.48055 -0.41386,-4.62644 -1.24101,-6.43658 -0.82675,-1.81013 -1.96523,-3.18626 -3.41777,-4.12481 -1.43023,-0.96096 -3.06092,-1.44045 -4.89342,-1.44045 z m 20.3893,0 c -1.83245,0 -3.49595,0.31315 -4.99317,0.93879 -1.4749,0.62573 -2.67169,1.49652 -3.58791,2.61394 l 2.27946,1.98025 c 1.40786,-1.69835 3.40716,-2.54939 5.99948,-2.54939 1.609,0 2.84138,0.34608 3.69062,1.03854 0.87154,0.6704 1.3055,1.62243 1.3055,2.85156 0,0.82681 -0.1987,1.65218 -0.60143,2.47901 -0.4025,0.80448 -1.18787,1.76646 -2.34992,2.88383 l -9.55214,9.21772 v 2.2795 h 16.86003 v -2.91595 h -12.03411 l 7.17293,-6.90595 c 1.49728,-1.43022 2.51762,-2.70522 3.05399,-3.82263 0.53649,-1.11731 0.80388,-2.30128 0.80388,-3.55273 0,-2.01122 -0.72718,-3.59644 -2.17978,-4.75849 -1.45254,-1.18441 -3.4092,-1.77783 -5.86743,-1.77783 z m 112.09427,0 c -1.98891,0 -3.65531,0.30311 -4.99612,0.90653 -1.34086,0.60341 -2.34543,1.40587 -3.01582,2.4115 -0.64805,1.00564 -0.97107,2.13411 -0.97107,3.38551 0,1.49727 0.37865,2.69402 1.13824,3.58793 0.78214,0.87149 1.71148,1.52048 2.78411,1.94506 1.09501,0.42464 2.52364,0.84864 4.28909,1.27323 1.40787,0.33551 2.49366,0.6354 3.25348,0.90358 0.78213,0.26796 1.42813,0.65949 1.94213,1.1735 0.53648,0.49162 0.80677,1.14054 0.80677,1.94503 0,1.095 -0.48255,1.97581 -1.4434,2.64623 -0.9609,0.64803 -2.4123,0.97398 -4.35654,0.97398 -1.4749,0 -2.91637,-0.24774 -4.32428,-0.7393 -1.38555,-0.51377 -2.52687,-1.17281 -3.42074,-1.97731 l -1.23799,2.61687 c 0.93859,0.87154 2.22354,1.58586 3.85491,2.14454 1.65361,0.53648 3.3627,0.80384 5.1281,0.80384 1.98891,0 3.66518,-0.29044 5.02836,-0.87131 1.36319,-0.60337 2.37774,-1.40589 3.04815,-2.41152 0.67046,-1.02795 1.00921,-2.15935 1.00921,-3.38844 0,-1.4749 -0.39456,-2.64597 -1.1764,-3.51753 -0.75977,-0.87154 -1.67621,-1.52046 -2.74891,-1.94504 -1.07268,-0.42465 -2.49138,-0.84864 -4.25684,-1.27323 -1.36318,-0.31282 -2.44603,-0.60318 -3.25052,-0.87131 -0.7822,-0.29067 -1.44096,-0.68186 -1.97733,-1.17349 -0.53649,-0.51378 -0.80383,-1.17282 -0.80383,-1.97733 0,-1.09504 0.47007,-1.99156 1.40815,-2.68435 0.9609,-0.69276 2.3896,-1.03559 4.28909,-1.03559 1.07269,0 2.16843,0.16673 3.28578,0.50169 1.11743,0.3128 2.16752,0.77951 3.15078,1.40524 l 1.10602,-2.68142 c -0.9609,-0.67046 -2.11216,-1.18265 -3.45297,-1.54019 -1.34088,-0.35765 -2.70406,-0.53688 -4.08961,-0.5369 z m 34.95227,0 c -2.36883,0 -4.50482,0.52514 -6.40432,1.57541 -1.8995,1.028 -3.39648,2.45664 -4.49149,4.28909 -1.07268,1.8325 -1.60767,3.88023 -1.60767,6.13734 0,2.25702 0.53535,4.30193 1.60767,6.13438 1.09501,1.83246 2.59199,3.27399 4.49149,4.3243 1.8995,1.02794 4.03549,1.5402 6.40432,1.5402 2.34645,0 4.46956,-0.51212 6.36911,-1.5402 1.89949,-1.05031 3.38368,-2.48188 4.45629,-4.29203 1.07268,-1.8325 1.61064,-3.88726 1.61064,-6.16665 0,-2.27941 -0.53761,-4.3272 -1.61064,-6.13734 -1.07261,-1.83245 -2.5568,-3.26109 -4.45629,-4.28909 -1.89955,-1.05031 -4.02266,-1.57541 -6.36911,-1.57541 z m -135.33512,0.26694 v 2.91611 h 11.29773 l -5.90263,7.24335 v 2.34404 h 1.88048 c 1.94423,0 3.39563,0.3585 4.35659,1.07373 0.96096,0.71509 1.44045,1.71973 1.44045,3.01586 0,1.29613 -0.49221,2.31361 -1.47565,3.05106 -0.96096,0.73745 -2.31137,1.10601 -4.0544,1.10601 -1.40791,0 -2.73839,-0.22203 -3.98985,-0.66888 -1.25146,-0.4695 -2.27884,-1.08255 -3.08334,-1.84238 l -1.54314,2.64621 c 0.98327,0.89392 2.24545,1.59833 3.78741,2.11227 1.54195,0.49164 3.15288,0.73637 4.82892,0.73637 1.92181,0 3.54267,-0.31327 4.86117,-0.93879 1.34082,-0.64809 2.34543,-1.50611 3.01584,-2.57873 0.67041,-1.09505 1.00626,-2.31455 1.00626,-3.65541 0,-1.85482 -0.60336,-3.37459 -1.81008,-4.55899 -1.20678,-1.20673 -2.96134,-1.92103 -5.26311,-2.14454 l 6.13443,-7.5778 v -2.27928 z m 31.02985,0 v 23.46678 h 17.02727 v -2.91611 h -13.67694 v -7.57779 h 11.76711 v -2.84863 h -11.76711 v -7.20814 h 13.20756 v -2.9159 z m 22.73632,0 v 23.46678 h 16.05621 v -2.91611 h -12.70298 v -20.55046 z m 14.09063,0 9.32041,15.28759 v 8.17919 h 3.31802 v -8.11172 l 9.31747,-15.35506 h -3.31804 l -7.54257,12.37148 -7.50736,-12.37148 z m 46.21476,0 v 23.46678 h 3.35032 v -23.46657 z m 39.1064,0 v 23.46678 h 3.35323 v -17.49666 l 14.07894,17.49666 h 2.74883 v -23.46657 h -3.35322 v 17.4996 l -14.07888,-17.4996 z m -185.27868,2.71662 c 1.87718,0 3.37417,0.77269 4.49154,2.31471 1.13967,1.54194 1.71033,3.77603 1.71033,6.70354 0,2.92748 -0.57066,5.16157 -1.71033,6.70353 -1.11737,1.54194 -2.61436,2.31176 -4.49154,2.31176 -1.8995,0 -3.41925,-0.76982 -4.55898,-2.31176 -1.11736,-1.54196 -1.67809,-3.77605 -1.67809,-6.70353 0,-2.92751 0.5609,-5.1616 1.67809,-6.70354 1.13973,-1.54202 2.65948,-2.31471 4.55898,-2.31471 z m 167.43584,0 c 1.72072,0 3.26035,0.3911 4.62353,1.17349 1.3855,0.78214 2.47129,1.865 3.25348,3.25055 0.8045,1.36318 1.20577,2.89579 1.20577,4.59421 0,1.69841 -0.40138,3.23797 -1.20577,4.62352 -0.78219,1.36312 -1.86798,2.43903 -3.25348,3.22122 -1.36318,0.78214 -2.90281,1.17055 -4.62353,1.17055 -1.72073,0 -3.28605,-0.38814 -4.69392,-1.17055 -1.38556,-0.78219 -2.48129,-1.8581 -3.28578,-3.22122 -0.78214,-1.38555 -1.17057,-2.92511 -1.17057,-4.62352 0,-1.69842 0.38888,-3.23103 1.17057,-4.59421 0.80449,-1.38555 1.90022,-2.46841 3.28578,-3.25055 1.40787,-0.78218 2.97319,-1.17349 4.69392,-1.17349 z" />
  <rect
     class="cls-2"
     x="-265.53"
     y="102.38"
     width="4.25"
     height="170.08"
     transform="rotate(-90)"
     id="rect1803" />
  <path
     class="cls-2"
     d="m 105.56,159.47 h 9.57 v 67 h -9.57 z"
     id="path1893" />
  <path
     class="cls-2"
     d="m 229.84,159.47 -22.39,67 h -10 L 179.13,173 160.86,226.48 h -10.24 l -22.38,-67 h 9.85 l 18.08,54.43 18.83,-54.44 h 8.8 l 18.46,54.72 18.47,-54.72 z"
     id="path1895" />
  <path
     class="cls-2"
     d="m 254.76,222.75 a 32.75,32.75 0 0 1 -12.68,-12.25 35.87,35.87 0 0 1 0,-35.11 32.59,32.59 0 0 1 12.73,-12.24 37.19,37.19 0 0 1 18.19,-4.45 38,38 0 0 1 14.35,2.63 29.35,29.35 0 0 1 11.1,7.8 l -6.22,6 a 25,25 0 0 0 -18.84,-7.94 27.32,27.32 0 0 0 -13.49,3.35 24.39,24.39 0 0 0 -9.43,9.23 27.22,27.22 0 0 0 0,26.31 24.35,24.35 0 0 0 9.43,9.24 27.31,27.31 0 0 0 13.49,3.34 25,25 0 0 0 18.84,-8 l 6.22,6 a 29.77,29.77 0 0 1 -11.14,7.84 37.64,37.64 0 0 1 -14.4,2.68 36.92,36.92 0 0 1 -18.15,-4.43 z"
     id="path1897" />
  <path
     class="cls-2"
     d="m 323.93,222.75 a 32.75,32.75 0 0 1 -12.68,-12.25 35.87,35.87 0 0 1 0,-35.11 32.63,32.63 0 0 1 12.75,-12.24 37.2,37.2 0 0 1 18.18,-4.45 38,38 0 0 1 14.35,2.63 29.35,29.35 0 0 1 11.1,7.8 l -6.22,6 a 25,25 0 0 0 -18.85,-7.94 27.35,27.35 0 0 0 -13.56,3.37 24.36,24.36 0 0 0 -9.42,9.23 27.22,27.22 0 0 0 0,26.31 24.32,24.32 0 0 0 9.42,9.24 27.34,27.34 0 0 0 13.49,3.34 25,25 0 0 0 18.85,-8 l 6.22,6 a 29.73,29.73 0 0 1 -11.15,7.84 37.62,37.62 0 0 1 -14.39,2.68 36.92,36.92 0 0 1 -18.09,-4.45 z"
     id="path1899" />
</svg>
