<?xml version="1.0" encoding="UTF-8" standalone="no"?>
<svg
   xmlns:dc="http://purl.org/dc/elements/1.1/"
   xmlns:cc="http://creativecommons.org/ns#"
   xmlns:rdf="http://www.w3.org/1999/02/22-rdf-syntax-ns#"
   xmlns:svg="http://www.w3.org/2000/svg"
   xmlns="http://www.w3.org/2000/svg"
   xmlns:sodipodi="http://sodipodi.sourceforge.net/DTD/sodipodi-0.dtd"
   xmlns:inkscape="http://www.inkscape.org/namespaces/inkscape"
   id="レイヤー_1"
   data-name="レイヤー 1"
   viewBox="0 0 283.45999 283.46"
   version="1.1"
   sodipodi:docname="iwcc2021aut_logo_fv.svg"
   width="283.45999"
   height="283.45999"
   inkscape:version="0.92.4 (5da689c313, 2019-01-14)">
  <metadata
     id="metadata109">
    <rdf:RDF>
      <cc:Work
         rdf:about="">
        <dc:format>image/svg+xml</dc:format>
        <dc:type
           rdf:resource="http://purl.org/dc/dcmitype/StillImage" />
        <dc:title></dc:title>
      </cc:Work>
    </rdf:RDF>
  </metadata>
  <sodipodi:namedview
     pagecolor="#ffffff"
     bordercolor="#666666"
     borderopacity="1"
     objecttolerance="10"
     gridtolerance="10"
     guidetolerance="10"
     inkscape:pageopacity="0"
     inkscape:pageshadow="2"
     inkscape:window-width="1842"
     inkscape:window-height="1051"
     id="namedview107"
     showgrid="false"
     inkscape:zoom="0.72907723"
     inkscape:cx="516.4172"
     inkscape:cy="350.3605"
     inkscape:window-x="1669"
     inkscape:window-y="-9"
     inkscape:window-maximized="1"
     inkscape:current-layer="レイヤー_1" />
  <defs
     id="defs4">
    <style
       id="style2">.cls-1{fill:#fff;}.cls-2{fill:#595757;}</style>
  </defs>
  <path
     class="cls-2"
     d="m 64.27,119.41 h 6.38 v 44.65 h -6.38 z"
     id="path98"
     inkscape:connector-curvature="0"
     style="fill:#595757" />
  <path
     class="cls-2"
     d="m 147.12,119.41 -14.92,44.65 h -6.7 L 113.32,128.4 101.14,164.06 H 94.31 L 79.39,119.41 H 86 l 12,36.29 12.56,-36.29 h 5.87 l 12.31,36.48 12.31,-36.48 z"
     id="path100"
     inkscape:connector-curvature="0"
     style="fill:#595757" />
  <path
     class="cls-2"
     d="m 163.73,161.6 a 21.88,21.88 0 0 1 -8.45,-8.16 23.92,23.92 0 0 1 0,-23.41 21.65,21.65 0 0 1 8.49,-8.16 24.77,24.77 0 0 1 12.11,-3 25.28,25.28 0 0 1 9.57,1.75 19.67,19.67 0 0 1 7.4,5.2 l -4.15,4 a 16.61,16.61 0 0 0 -12.56,-5.29 18.16,18.16 0 0 0 -9,2.23 16.24,16.24 0 0 0 -6.29,6.15 18.15,18.15 0 0 0 0,17.54 16.19,16.19 0 0 0 6.29,6.16 18.16,18.16 0 0 0 9,2.23 16.67,16.67 0 0 0 12.56,-5.36 l 4.15,4 a 19.8,19.8 0 0 1 -7.43,5.23 25.13,25.13 0 0 1 -9.6,1.79 24.67,24.67 0 0 1 -12.09,-2.9 z"
     id="path102"
     inkscape:connector-curvature="0"
     style="fill:#595757" />
  <path
     class="cls-2"
     d="m 209.85,161.6 a 21.81,21.81 0 0 1 -8.45,-8.16 23.92,23.92 0 0 1 0,-23.41 21.62,21.62 0 0 1 8.48,-8.16 24.78,24.78 0 0 1 12.12,-3 25.26,25.26 0 0 1 9.56,1.75 19.59,19.59 0 0 1 7.4,5.2 l -4.14,4 a 16.64,16.64 0 0 0 -12.57,-5.29 18.19,18.19 0 0 0 -9,2.23 16.21,16.21 0 0 0 -6.25,6.24 18.08,18.08 0 0 0 0,17.54 16.17,16.17 0 0 0 6.28,6.16 18.19,18.19 0 0 0 9,2.23 16.69,16.69 0 0 0 12.57,-5.36 l 4.14,4 a 19.8,19.8 0 0 1 -7.43,5.23 25.13,25.13 0 0 1 -9.6,1.79 24.6,24.6 0 0 1 -12.11,-2.99 z"
     id="path104"
     inkscape:connector-curvature="0"
     style="fill:#595757" />
</svg>
