<?xml version="1.0" encoding="UTF-8" standalone="no"?>
<svg
   xmlns:dc="http://purl.org/dc/elements/1.1/"
   xmlns:cc="http://creativecommons.org/ns#"
   xmlns:rdf="http://www.w3.org/1999/02/22-rdf-syntax-ns#"
   xmlns:svg="http://www.w3.org/2000/svg"
   xmlns="http://www.w3.org/2000/svg"
   xmlns:sodipodi="http://sodipodi.sourceforge.net/DTD/sodipodi-0.dtd"
   xmlns:inkscape="http://www.inkscape.org/namespaces/inkscape"
   id="レイヤー_1"
   data-name="レイヤー 1"
   viewBox="0 0 283.45999 283.46"
   version="1.1"
   sodipodi:docname="iwcc_logo_icon.svg"
   width="283.45999"
   height="283.45999"
   inkscape:version="0.92.4 (5da689c313, 2019-01-14)"
   inkscape:export-filename="D:\ResDev\_Orgs\CL-GDAL\CL_KIITA\IWCC\IWCC\docs\assets\logo\iwcc_logo_icon.png"
   inkscape:export-xdpi="25.4"
   inkscape:export-ydpi="25.4">
  <metadata
     id="metadata109">
    <rdf:RDF>
      <cc:Work
         rdf:about="">
        <dc:format>image/svg+xml</dc:format>
        <dc:type
           rdf:resource="http://purl.org/dc/dcmitype/StillImage" />
        <dc:title></dc:title>
      </cc:Work>
    </rdf:RDF>
  </metadata>
  <sodipodi:namedview
     pagecolor="#ffffff"
     bordercolor="#666666"
     borderopacity="1"
     objecttolerance="10"
     gridtolerance="10"
     guidetolerance="10"
     inkscape:pageopacity="0"
     inkscape:pageshadow="2"
     inkscape:window-width="967"
     inkscape:window-height="429"
     id="namedview107"
     showgrid="false"
     inkscape:zoom="0.72907723"
     inkscape:cx="189.69545"
     inkscape:cy="78.197529"
     inkscape:window-x="840"
     inkscape:window-y="643"
     inkscape:window-maximized="0"
     inkscape:current-layer="レイヤー_1" />
  <defs
     id="defs4">
    <style
       id="style2">.cls-1{fill:#fff;}.cls-2{fill:#595757;}</style>
  </defs>
  <path
     style="opacity:1;fill:#595757;fill-opacity:1;stroke:none;stroke-width:4.02519703;stroke-linecap:round;stroke-linejoin:round;stroke-miterlimit:4;stroke-dasharray:none;stroke-dashoffset:53.70708847;stroke-opacity:1;paint-order:normal"
     d="m 50.806641,19.484375 c -18.616684,0 -33.603516,14.988785 -33.603516,33.605469 V 235.88086 c 0,18.61668 14.986832,33.60352 33.603516,33.60352 H 233.59766 c 18.61668,0 33.60546,-14.98684 33.60546,-33.60352 V 53.089844 c 0,-18.616684 -14.98878,-33.605469 -33.60546,-33.605469 z m 2.691406,6.914063 H 231.59375 c 16.27697,0 29.38086,13.103884 29.38086,29.380859 V 233.87695 c 0,16.27698 -13.10389,29.38086 -29.38086,29.38086 H 53.498047 c -16.276975,0 -29.380859,-13.10388 -29.380859,-29.38086 V 55.779297 c 0,-16.276975 13.103884,-29.380859 29.380859,-29.380859 z"
     id="rect819"
     inkscape:connector-curvature="0" />
  <path
     class="cls-2"
     d="m 35.926397,84.21224 h 7.865717 v 55.0477 h -7.865717 z"
     id="path98"
     inkscape:connector-curvature="0"
     style="fill:#595757;stroke-width:1.23287094" />
  <path
     class="cls-2"
     d="m 138.06973,84.21224 -18.39441,55.0477 h -8.26023 L 96.398715,95.29579 81.382346,139.25994 H 72.961838 L 54.567403,84.21224 h 8.149278 l 14.79445,44.74094 15.484848,-44.74094 h 7.236981 l 15.17665,44.97517 15.17662,-44.97517 z"
     id="path100"
     inkscape:connector-curvature="0"
     style="fill:#595757;stroke-width:1.23287094" />
  <path
     class="cls-2"
     d="m 158.54774,136.2271 a 26.975218,26.975218 0 0 1 -10.41778,-10.06024 29.490275,29.490275 0 0 1 0,-28.8615 26.691657,26.691657 0 0 1 10.4671,-10.06026 30.538214,30.538214 0 0 1 14.93006,-3.69855 31.166977,31.166977 0 0 1 11.79858,2.15748 24.250568,24.250568 0 0 1 9.12324,6.41097 l -5.1164,4.93147 a 20.477987,20.477987 0 0 0 -15.48489,-6.52188 22.388937,22.388937 0 0 0 -11.0958,2.74928 20.021827,20.021827 0 0 0 -7.7548,7.58213 22.376607,22.376607 0 0 0 0,21.6246 19.960182,19.960182 0 0 0 7.7548,7.59449 22.388937,22.388937 0 0 0 11.0958,2.74931 20.551961,20.551961 0 0 0 15.48489,-6.60822 l 5.1164,4.93148 a 24.410844,24.410844 0 0 1 -9.16022,6.44791 30.982045,30.982045 0 0 1 -11.83555,2.20686 30.414925,30.414925 0 0 1 -14.90543,-3.57533 z"
     id="path102"
     inkscape:connector-curvature="0"
     style="fill:#595757;stroke-width:1.23287094" />
  <path
     class="cls-2"
     d="m 215.40777,136.2271 a 26.888915,26.888915 0 0 1 -10.4178,-10.06024 29.490275,29.490275 0 0 1 0,-28.8615 26.65467,26.65467 0 0 1 10.45475,-10.06026 30.550543,30.550543 0 0 1 14.94243,-3.69855 31.142319,31.142319 0 0 1 11.78621,2.15748 24.151941,24.151941 0 0 1 9.12326,6.41097 l -5.10405,4.93147 a 20.514975,20.514975 0 0 0 -15.49724,-6.52188 22.425922,22.425922 0 0 0 -11.09581,2.74928 19.984836,19.984836 0 0 0 -7.70542,7.69311 22.290307,22.290307 0 0 0 0,21.62456 19.935528,19.935528 0 0 0 7.74239,7.59449 22.425922,22.425922 0 0 0 11.09586,2.7493 20.576616,20.576616 0 0 0 15.49718,-6.6082 l 5.10405,4.93147 a 24.410844,24.410844 0 0 1 -9.16022,6.44797 30.982045,30.982045 0 0 1 -11.83554,2.2068 30.328625,30.328625 0 0 1 -14.93005,-3.68627 z"
     id="path104"
     inkscape:connector-curvature="0"
     style="fill:#595757;stroke-width:1.23287094" />
  <flowRoot
     xml:space="preserve"
     id="flowRoot840"
     style="font-style:normal;font-weight:normal;font-size:18.66666667px;line-height:1.25;font-family:sans-serif;letter-spacing:0px;word-spacing:0px;fill:#000000;fill-opacity:1;stroke:none;"><flowRegion
       id="flowRegion842"
       style="font-size:18.66666667px;"><rect
         id="rect844"
         width="254.0883"
         height="81.610008"
         x="28.803534"
         y="176.81834"
         style="font-size:18.66666667px;" /></flowRegion><flowPara
       id="flowPara846" /></flowRoot>  <path
     inkscape:connector-curvature="0"
     class="cls-2"
     d="m 36.766256,168.93751 h 2.49343 v 17.43204 h -2.49343 z"
     id="path10"
     style="fill:#595757;stroke-width:1.0984261" />
  <path
     inkscape:connector-curvature="0"
     class="cls-2"
     d="m 64.600364,174.48456 a 5.766736,5.766736 0 0 1 1.460909,4.28384 v 7.60115 h -2.394568 v -7.32654 a 4.206971,4.206971 0 0 0 -0.87874,-2.88886 3.2952774,3.2952774 0 0 0 -2.537363,-0.96662 3.7785846,3.7785846 0 0 0 -2.888858,1.09844 4.5694516,4.5694516 0 0 0 -1.098432,3.29529 v 6.79924 h -2.394567 v -7.3265 a 4.206971,4.206971 0 0 0 -0.878738,-2.88886 3.2952774,3.2952774 0 0 0 -2.53737,-0.96662 3.7785846,3.7785846 0 0 0 -2.888854,1.09842 4.5694516,4.5694516 0 0 0 -1.098428,3.29528 v 6.79926 h -2.394567 v -13.18111 h 2.295709 v 1.96621 a 4.580436,4.580436 0 0 1 1.88929,-1.54881 6.2610276,6.2610276 0 0 1 2.669177,-0.53823 5.7996883,5.7996883 0 0 1 2.735081,0.62611 4.2618924,4.2618924 0 0 1 1.845355,1.81242 5.0966963,5.0966963 0 0 1 2.076021,-1.79045 6.8431936,6.8431936 0 0 1 3.009691,-0.64808 5.3713028,5.3713028 0 0 1 4.009252,1.39502 z"
     id="path12"
     style="fill:#595757;stroke-width:1.0984261" />
  <path
     inkscape:connector-curvature="0"
     class="cls-2"
     d="m 79.473051,174.3857 a 5.2285069,5.2285069 0 0 1 1.460904,4.00924 v 7.97461 h -2.273734 v -1.74653 a 3.7346479,3.7346479 0 0 1 -1.702563,1.406 6.3928386,6.3928386 0 0 1 -2.62524,0.49428 5.492129,5.492129 0 0 1 -3.547915,-1.09842 3.6687425,3.6687425 0 0 1 -0.06591,-5.61297 6.2610276,6.2610276 0 0 1 4.031221,-1.09842 h 3.789569 v -0.47233 a 3.031655,3.031655 0 0 0 -0.900708,-2.3616 3.7566164,3.7566164 0 0 0 -2.636221,-0.82384 7.1397683,7.1397683 0 0 0 -2.295713,0.38443 6.0962634,6.0962634 0 0 0 -1.889291,1.03254 l -0.999566,-1.79043 a 7.1177996,7.1177996 0 0 1 2.43851,-1.25219 10.094533,10.094533 0 0 1 3.020664,-0.43939 5.9974052,5.9974052 0 0 1 4.195988,1.39502 z m -2.383585,9.67712 a 3.4490571,3.4490571 0 0 0 1.449922,-1.72454 v -1.84535 h -3.690712 q -3.031651,0 -3.031651,2.04308 a 1.8563397,1.8563397 0 0 0 0.768894,1.57073 3.5149628,3.5149628 0 0 0 2.141937,0.57119 4.3937033,4.3937033 0 0 0 2.36161,-0.61511 z"
     id="path14"
     style="fill:#595757;stroke-width:1.0984261" />
  <path
     inkscape:connector-curvature="0"
     class="cls-2"
     d="m 97.992511,173.16644 v 11.41259 a 6.7992558,6.7992558 0 0 1 -1.724526,5.11872 7.1507523,7.1507523 0 0 1 -5.074728,1.65862 12.280403,12.280403 0 0 1 -3.558898,-0.51627 7.0299255,7.0299255 0 0 1 -2.735084,-1.44993 l 1.098428,-1.84537 a 6.8541775,6.8541775 0 0 0 2.273743,1.25224 8.7215013,8.7215013 0 0 0 2.811966,0.46134 4.6573255,4.6573255 0 0 0 3.416103,-1.09842 4.3937033,4.3937033 0 0 0 1.098432,-3.29522 v -1.09848 a 5.2504761,5.2504761 0 0 1 -2.076027,1.53779 6.9310671,6.9310671 0 0 1 -2.680157,0.50529 7.2386265,7.2386265 0 0 1 -3.427094,-0.80187 5.9754366,5.9754366 0 0 1 -2.394565,-2.27373 6.7223662,6.7223662 0 0 1 0,-6.59058 5.8765779,5.8765779 0 0 1 2.394565,-2.26273 7.3594532,7.3594532 0 0 1 3.427094,-0.79089 7.051894,7.051894 0 0 1 2.779014,0.54923 5.1296487,5.1296487 0 0 1 2.108976,1.61467 v -2.04307 z m -4.547483,10.01764 a 4.0641757,4.0641757 0 0 0 1.625671,-1.5378 4.294845,4.294845 0 0 0 0.582167,-2.19669 4.0531914,4.0531914 0 0 0 -1.274174,-3.09772 5.1076803,5.1076803 0 0 0 -6.590558,0 4.0531914,4.0531914 0 0 0 -1.27417,3.09772 4.294845,4.294845 0 0 0 0.582165,2.19669 4.0641757,4.0641757 0 0 0 1.625671,1.5378 4.9758689,4.9758689 0 0 0 2.350624,0.54922 4.9209482,4.9209482 0 0 0 2.372604,-0.54922 z"
     id="path16"
     style="fill:#595757;stroke-width:1.0984261" />
  <path
     inkscape:connector-curvature="0"
     class="cls-2"
     d="m 102.58393,170.17872 a 1.4609065,1.4609065 0 0 1 -0.46134,-1.09841 1.515828,1.5158281 0 0 1 0.46134,-1.09846 1.5707492,1.5707492 0 0 1 1.16435,-0.46131 1.6366546,1.6366546 0 0 1 1.15333,0.43937 1.438938,1.438938 0 0 1 0.46134,1.09845 1.5377961,1.5377961 0 0 1 -0.46134,1.0984 1.5597648,1.5597648 0 0 1 -1.15333,0.4613 1.6037014,1.6037014 0 0 1 -1.16435,-0.43934 z m 0,2.98772 h 2.39458 v 13.1811 h -2.39458 z"
     id="path18"
     style="fill:#595757;stroke-width:1.0984261" />
  <path
     inkscape:connector-curvature="0"
     class="cls-2"
     d="m 120.54316,174.50652 a 5.7118141,5.7118141 0 0 1 1.48293,4.26188 v 7.60115 h -2.38356 v -7.32654 a 4.0531914,4.0531914 0 0 0 -0.9227,-2.88886 3.4710253,3.4710253 0 0 0 -2.64722,-0.96662 4.1081128,4.1081129 0 0 0 -3.06461,1.09844 4.3937033,4.3937033 0 0 0 -1.09841,3.29529 v 6.79924 h -2.38361 v -13.18109 h 2.28474 v 1.99911 a 4.6243726,4.6243726 0 0 1 1.9552,-1.57075 6.8871302,6.8871303 0 0 1 2.80097,-0.5492 5.426224,5.426224 0 0 1 3.97627,1.42795 z"
     id="path20"
     style="fill:#595757;stroke-width:1.0984261" />
  <path
     inkscape:connector-curvature="0"
     class="cls-2"
     d="m 135.47081,174.3857 a 5.2285069,5.2285069 0 0 1 1.44993,4.00924 v 7.97461 h -2.26276 v -1.74653 a 3.7346479,3.7346479 0 0 1 -1.70255,1.406 6.4477598,6.4477598 0 0 1 -2.63623,0.49428 5.492129,5.492129 0 0 1 -3.54792,-1.09842 3.4161045,3.4161045 0 0 1 -1.32907,-2.81198 3.4600418,3.4600418 0 0 1 1.27415,-2.80099 6.2610276,6.2610276 0 0 1 4.03119,-1.09842 h 3.78958 v -0.47233 a 3.0755923,3.0755923 0 0 0 -0.9007,-2.3616 3.7785846,3.7785846 0 0 0 -2.63623,-0.82384 7.1397683,7.1397683 0 0 0 -2.29568,0.38443 6.0962634,6.0962634 0 0 0 -1.88929,1.03254 l -0.99958,-1.79043 a 7.1177996,7.1177996 0 0 1 2.43852,-1.25219 10.050599,10.050599 0 0 1 3.02064,-0.43939 6.019374,6.019374 0 0 1 4.196,1.39502 z m -2.38358,9.67712 a 3.5039788,3.5039788 0 0 0 1.4499,-1.72454 v -1.84535 h -3.69072 c -2.02107,0 -3.0426,0.68103 -3.0426,2.04308 a 1.8673238,1.8673238 0 0 0 0.77989,1.57073 3.4929942,3.4929942 0 0 0 2.14192,0.57119 4.3937033,4.3937033 0 0 0 2.36161,-0.61511 z"
     id="path22"
     style="fill:#595757;stroke-width:1.0984261" />
  <path
     inkscape:connector-curvature="0"
     class="cls-2"
     d="m 145.48845,173.63877 a 6.7333505,6.7333505 0 0 1 2.96576,-0.59315 v 2.31768 a 3.745632,3.745632 0 0 0 -0.5492,0 4.0202383,4.0202383 0 0 0 -3.04267,1.09841 4.5364989,4.5364989 0 0 0 -1.09831,3.29528 v 6.59055 h -2.39469 v -13.1811 h 2.29572 v 2.19686 a 4.0971285,4.0971285 0 0 1 1.82339,-1.72453 z"
     id="path24"
     style="fill:#595757;stroke-width:1.0984261" />
  <path
     inkscape:connector-curvature="0"
     class="cls-2"
     d="m 163.24999,173.16644 -6.4038,14.5212 a 6.4807124,6.4807124 0 0 1 -1.9772,2.84493 4.5035462,4.5035462 0 0 1 -2.7241,0.8238 5.7118141,5.7118141 0 0 1 -1.87829,-0.31853 3.9213805,3.9213805 0 0 1 -1.51584,-0.90072 l 1.02152,-1.80143 a 3.2952774,3.2952774 0 0 0 2.37261,0.97762 2.2957099,2.29571 0 0 0 1.46095,-0.46137 4.0202383,4.0202383 0 0 0 1.09846,-1.58167 l 0.42831,-0.92273 -5.83259,-13.1811 h 2.49344 l 4.60237,10.56686 4.55847,-10.56686 z"
     id="path26"
     style="fill:#595757;stroke-width:1.0984261" />
  <path
     inkscape:connector-curvature="0"
     class="cls-2"
     d="m 197.18037,168.93751 -5.83263,17.43204 h -2.61426 l -4.75621,-13.92806 -4.75614,13.92806 h -2.66919 l -5.82169,-17.43204 h 2.55938 l 4.71222,14.16967 4.899,-14.16967 h 2.29572 l 4.81108,14.27952 4.80014,-14.27952 z"
     id="path28"
     style="fill:#595757;stroke-width:1.0984261" />
  <path
     inkscape:connector-curvature="0"
     class="cls-2"
     d="m 202.36496,185.64456 a 6.3159488,6.3159488 0 0 1 -2.46052,-2.40554 7.2935477,7.2935477 0 0 1 0,-6.94208 6.2170899,6.2170899 0 0 1 2.46052,-2.39457 7.6889811,7.6889811 0 0 1 7.05187,0 6.2610276,6.2610276 0 0 1 2.44947,2.39457 7.2935477,7.2935477 0 0 1 0,6.94208 6.359886,6.359886 0 0 1 -2.44947,2.40554 7.5132331,7.5132331 0 0 1 -7.05187,0 z m 5.81062,-1.80143 a 4.1520501,4.1520501 0 0 0 1.58175,-1.6476 5.492129,5.492129 0 0 0 0,-4.85506 4.1300813,4.1300813 0 0 0 -1.58175,-1.63668 4.8330736,4.8330736 0 0 0 -4.55839,0 4.1520501,4.1520501 0 0 0 -1.59278,1.63668 5.3493341,5.3493341 0 0 0 0,4.85506 4.1850025,4.1850025 0 0 0 1.59278,1.6476 4.7561841,4.7561841 0 0 0 4.55839,0 z"
     id="path30"
     style="fill:#595757;stroke-width:1.0984261" />
  <path
     inkscape:connector-curvature="0"
     class="cls-2"
     d="m 220.19236,173.63877 a 6.7333505,6.7333505 0 0 1 2.9658,-0.59315 v 2.31768 a 3.8225221,3.8225221 0 0 0 -0.54923,0 4.0531914,4.0531914 0 0 0 -3.05358,1.09841 4.580436,4.580436 0 0 0 -1.09844,3.29528 v 6.59055 h -2.38363 v -13.1811 h 2.28472 v 2.19686 a 4.1850025,4.1850025 0 0 1 1.83436,-1.72453 z"
     id="path32"
     style="fill:#595757;stroke-width:1.0984261" />
  <path
     inkscape:connector-curvature="0"
     class="cls-2"
     d="m 226.29961,167.88301 h 2.39459 v 18.48654 h -2.39459 z"
     id="path34"
     style="fill:#595757;stroke-width:1.0984261" />
  <path
     inkscape:connector-curvature="0"
     class="cls-2"
     d="m 245.67584,167.88301 v 18.48654 h -2.29569 v -2.08705 a 5.2065389,5.2065389 0 0 1 -2.01012,1.6696 6.3818547,6.3818547 0 0 1 -2.69117,0.5712 6.9640203,6.9640203 0 0 1 -3.43807,-0.8458 6.2170899,6.2170899 0 0 1 -2.38354,-2.38359 7.6889811,7.6889811 0 0 1 0,-7.04089 6.1511845,6.1511845 0 0 1 2.38354,-2.36163 6.9640203,6.9640203 0 0 1 3.43807,-0.84577 6.2610276,6.2610276 0 0 1 2.6143,0.53821 4.9099632,4.9099632 0 0 1 1.98814,1.58174 v -7.28256 z m -4.53648,15.96012 a 4.0422072,4.0422072 0 0 0 1.59273,-1.6476 5.3493341,5.3493341 0 0 0 0,-4.85506 4.0092538,4.0092538 0 0 0 -1.59273,-1.63668 4.7891368,4.7891368 0 0 0 -4.53649,0 4.1740187,4.1740187 0 0 0 -1.60371,1.63668 5.3493341,5.3493341 0 0 0 0,4.85506 4.206971,4.206971 0 0 0 1.60371,1.6476 4.7122471,4.7122471 0 0 0 4.53649,0 z"
     id="path36"
     style="fill:#595757;stroke-width:1.0984261" />
  <path
     inkscape:connector-curvature="0"
     class="cls-2"
     d="m 36.949738,206.72584 a 6.9345589,6.9345589 0 0 1 -2.708815,-2.61848 7.6569086,7.6569086 0 0 1 0,-7.51243 7.0429114,7.0429114 0 0 1 2.708815,-2.62757 8.0090539,8.0090539 0 0 1 3.891661,-0.9481 8.2167295,8.2167295 0 0 1 3.069984,0.55984 6.3205612,6.3205612 0 0 1 2.374727,1.67046 l -1.32732,1.29118 a 5.4176241,5.4176241 0 0 0 -4.036129,-1.69753 5.8600635,5.8600635 0 0 0 -2.889402,0.71335 5.2280071,5.2280071 0 0 0 -2.01355,1.97741 5.7878282,5.7878282 0 0 0 0,5.63433 5.1467428,5.1467428 0 0 0 2.01355,1.9684 5.8600635,5.8600635 0 0 0 2.889402,0.72233 5.363448,5.363448 0 0 0 4.036129,-1.72458 l 1.32732,1.29119 a 6.2212381,6.2212381 0 0 1 -2.383757,1.67949 8.1264361,8.126436 0 0 1 -3.079014,0.57786 7.8555546,7.8555546 0 0 1 -3.873601,-0.95715 z"
     id="path38"
     style="fill:#595757;stroke-width:0.90293759" />
  <path
     inkscape:connector-curvature="0"
     class="cls-2"
     d="m 52.335787,197.05542 a 5.4176241,5.4176241 0 0 1 2.437934,-0.49661 v 1.9052 h -0.451469 a 3.3318388,3.3318388 0 0 0 -2.510169,0.90292 3.8013662,3.8013662 0 0 0 -0.902935,2.70881 v 5.41763 h -1.968401 v -10.83523 h 1.878105 v 1.80587 a 3.367956,3.367956 0 0 1 1.516935,-1.40859 z"
     id="path40"
     style="fill:#595757;stroke-width:0.90293759" />
  <path
     inkscape:connector-curvature="0"
     class="cls-2"
     d="m 67.098815,202.74392 h -8.803639 a 3.3950447,3.3950446 0 0 0 1.264112,2.30249 4.0722472,4.0722472 0 0 0 2.708812,0.90293 4.0271005,4.0271005 0 0 0 3.124162,-1.30929 l 1.092554,1.26414 a 4.7133327,4.7133327 0 0 1 -1.805876,1.30926 6.9164999,6.9164999 0 0 1 -5.498888,-0.25283 5.0564491,5.0564491 0 0 1 -2.058697,-1.9774 5.6252995,5.6252995 0 0 1 -0.731379,-2.86234 5.6975344,5.6975344 0 0 1 0.713323,-2.85326 5.0835371,5.0835371 0 0 1 1.941318,-1.96842 5.4988882,5.4988882 0 0 1 2.7991,-0.7133 5.4176241,5.4176241 0 0 1 2.772019,0.7133 4.9932433,4.9932433 0 0 1 1.905197,1.96842 6.0948266,6.0948266 0 0 1 0.686232,2.90741 5.8239459,5.8239459 0 0 1 -0.10835,0.56889 z m -7.683998,-3.66593 a 3.4582496,3.4582496 0 0 0 -1.119641,2.25735 h 6.961643 a 3.5124265,3.5124265 0 0 0 -1.110614,-2.24831 3.6749547,3.6749547 0 0 0 -4.731388,0 z"
     id="path42"
     style="fill:#595757;stroke-width:0.90293759" />
  <path
     inkscape:connector-curvature="0"
     class="cls-2"
     d="m 77.265891,197.66942 a 4.2347763,4.2347763 0 0 1 1.200906,3.29571 v 6.55532 h -1.869083 v -1.43566 a 3.124163,3.124163 0 0 1 -1.399552,1.1558 5.4176241,5.4176241 0 0 1 -2.158022,0.39726 4.5146865,4.5146865 0 0 1 -2.916488,-0.90299 2.8352233,2.8352233 0 0 1 -1.101581,-2.32053 2.8713407,2.8713407 0 0 1 1.047409,-2.30248 5.1648016,5.1648016 0 0 1 3.313782,-0.90291 h 3.115128 v -0.38827 a 2.5011363,2.5011363 0 0 0 -0.740406,-1.95035 3.0880458,3.0880458 0 0 0 -2.167051,-0.66817 5.6343287,5.6343287 0 0 0 -1.887138,0.31604 4.6591567,4.6591567 0 0 0 -1.55305,0.84874 l -0.821676,-1.48081 a 5.9684156,5.9684156 0 0 1 2.01355,-1.02936 8.4876107,8.4876107 0 0 1 2.474047,-0.36119 4.8939204,4.8939204 0 0 1 3.449225,1.17385 z m -1.950347,7.95487 a 2.88037,2.88037 0 0 0 1.182846,-1.42664 v -1.51694 h -3.033865 q -2.492109,0 -2.492109,1.67945 a 1.5169348,1.5169348 0 0 0 0.632055,1.29123 2.8893993,2.8893993 0 0 0 1.760727,0.4695 3.6839844,3.6839844 0 0 0 1.950346,-0.4966 z"
     id="path44"
     style="fill:#595757;stroke-width:0.90293759" />
  <path
     inkscape:connector-curvature="0"
     class="cls-2"
     d="m 88.191429,206.87941 a 3.0790163,3.0790163 0 0 1 -1.065468,0.56882 4.5146865,4.5146865 0 0 1 -1.309259,0.18962 3.4672792,3.4672792 0 0 1 -2.537256,-0.90299 3.3498971,3.3498971 0 0 1 -0.902935,-2.51915 v -5.93229 H 80.57064 v -1.61628 h 1.805871 v -2.3747 h 1.968407 v 2.3747 h 3.115127 v 1.61628 h -3.115127 v 5.87811 a 1.8781096,1.8781096 0 0 0 0.442437,1.34538 1.6252872,1.6252872 0 0 0 1.255087,0.46949 2.3476373,2.3476373 0 0 0 1.534989,-0.50559 z"
     id="path46"
     style="fill:#595757;stroke-width:0.90293759" />
  <path
     inkscape:connector-curvature="0"
     class="cls-2"
     d="m 92.326882,206.92451 a 5.1738304,5.1738304 0 0 1 -2.013548,-1.97742 5.9503568,5.9503568 0 0 1 0,-5.71559 5.0654783,5.0654783 0 0 1 2.013548,-1.95938 6.2663852,6.2663852 0 0 1 5.805899,0 5.1648016,5.1648016 0 0 1 2.004479,1.95938 5.9503568,5.9503568 0 0 1 0,5.71559 5.273154,5.273154 0 0 1 -2.004479,1.97742 6.2663852,6.2663852 0 0 1 -5.805899,0 z m 4.785609,-1.48984 a 3.3137801,3.31378 0 0 0 1.29116,-1.34537 4.4153634,4.4153634 0 0 0 0,-4.00001 3.2866919,3.2866919 0 0 0 -1.29116,-1.33636 3.990983,3.9909831 0 0 0 -3.75626,0 3.4492205,3.4492205 0 0 0 -1.30926,1.33636 4.4153634,4.4153634 0 0 0 0,4.00001 3.4763087,3.4763087 0 0 0 1.30926,1.34537 3.8645719,3.8645719 0 0 0 3.75626,0 z"
     id="path48"
     style="fill:#595757;stroke-width:0.90293759" />
  <path
     inkscape:connector-curvature="0"
     class="cls-2"
     d="m 106.99056,197.05542 a 5.4176241,5.4176241 0 0 1 2.43795,-0.49661 v 1.9052 h -0.45146 a 3.3137801,3.31378 0 0 0 -2.51017,0.90292 3.8013662,3.8013662 0 0 0 -0.90296,2.70881 v 5.41763 h -1.9684 v -10.83523 h 1.88716 v 1.80587 a 3.367956,3.367956 0 0 1 1.50788,-1.40859 z"
     id="path50"
     style="fill:#595757;stroke-width:0.90293759" />
  <path
     inkscape:connector-curvature="0"
     class="cls-2"
     d="m 112.57074,207.31277 a 5.6162703,5.6162703 0 0 1 -1.92328,-0.90295 l 0.8217,-1.56207 a 5.8871514,5.8871514 0 0 0 1.74267,0.82169 6.9977641,6.9977641 0 0 0 2.06773,0.30696 c 1.71557,0 2.57332,-0.48756 2.57332,-1.47175 a 0.9842018,0.9842018 0 0 0 -0.34309,-0.78556 2.2573435,2.2573435 0 0 0 -0.90289,-0.41536 c -0.34312,-0.0898 -0.83974,-0.18963 -1.48083,-0.29794 a 13.932325,13.932325 0 0 1 -2.14,-0.46955 3.3498971,3.3498971 0 0 1 -1.42662,-0.90294 2.4921071,2.4921071 0 0 1 -0.58692,-1.80589 2.781047,2.781047 0 0 1 1.22804,-2.36572 5.4627708,5.4627708 0 0 1 3.29573,-0.90288 8.9029618,8.9029618 0 0 1 2.16702,0.27085 5.7065641,5.7065641 0 0 1 1.80583,0.71345 l -0.83969,1.55295 a 5.6433583,5.6433583 0 0 0 -3.12417,-0.90294 3.5304848,3.5304848 0 0 0 -1.90521,0.41534 1.2189655,1.2189655 0 0 0 -0.65913,1.08353 1.0474073,1.0474074 0 0 0 0.37017,0.83975 2.4650191,2.4650191 0 0 0 0.90295,0.45146 c 0.36117,0.0898 0.90294,0.19865 1.52602,0.32504 a 16.921046,16.921046 0 0 1 2.11279,0.47857 3.0970744,3.0970744 0 0 1 1.38153,0.90295 2.3747253,2.3747253 0 0 1 0.57792,1.71555 2.7088115,2.7088115 0 0 1 -1.26413,2.34764 5.923269,5.923269 0 0 1 -3.42213,0.90295 8.9390796,8.9390796 0 0 1 -2.55533,-0.34313 z"
     id="path52"
     style="fill:#595757;stroke-width:0.90293759" />
  <path
     inkscape:connector-curvature="0"
     class="cls-2"
     d="m 123.68586,192.59488 a 1.4085826,1.4085826 0 0 1 0.37927,0.99325 2.7088115,2.7088115 0 0 1 -0.0649,0.60499 5.4718002,5.4718002 0 0 1 -0.26189,0.84872 l -0.98413,2.87136 h -1.29126 l 0.75847,-3.05192 a 1.2641121,1.2641121 0 0 1 -0.623,-0.47856 1.309259,1.309259 0 0 1 -0.23479,-0.79459 1.3273179,1.3273179 0 0 1 1.36342,-1.39052 1.2731415,1.2731415 0 0 1 0.95713,0.39727 z"
     id="path54"
     style="fill:#595757;stroke-width:0.90293759" />
  <path
     inkscape:connector-curvature="0"
     class="cls-2"
     d="m 135.2164,206.72584 a 7.0158228,7.0158227 0 0 1 -2.70884,-2.61848 7.6569086,7.6569086 0 0 1 0,-7.51243 7.0699992,7.0699992 0 0 1 2.70884,-2.62757 7.9819657,7.9819657 0 0 1 3.89167,-0.9481 8.2167295,8.2167295 0 0 1 3.06998,0.55984 6.4108548,6.4108548 0 0 1 2.37471,1.67046 l -1.28216,1.29118 a 5.3363599,5.3363599 0 0 0 -4.02707,-1.69753 5.8329751,5.8329751 0 0 0 -2.88941,0.71335 5.1738304,5.1738304 0 0 0 -2.01359,1.97741 5.7878282,5.7878282 0 0 0 0,5.63433 5.0835371,5.0835371 0 0 0 2.01359,1.9684 5.8420045,5.8420046 0 0 0 2.88941,0.72233 5.3363599,5.3363599 0 0 0 4.02707,-1.72458 l 1.33634,1.29119 a 6.3205612,6.3205612 0 0 1 -2.38376,1.67949 8.171583,8.171583 0 0 1 -3.08804,0.57786 7.8194372,7.8194372 0 0 1 -3.91874,-0.95715 z"
     id="path56"
     style="fill:#595757;stroke-width:0.90293759" />
  <path
     inkscape:connector-curvature="0"
     class="cls-2"
     d="m 148.94104,206.92451 a 5.1738304,5.1738304 0 0 1 -2.01355,-1.97742 5.9503568,5.9503568 0 0 1 0,-5.71559 5.0654783,5.0654783 0 0 1 2.01355,-1.95938 6.2663852,6.2663852 0 0 1 5.80589,0 5.0383899,5.0383899 0 0 1 2.00454,1.95938 5.9503568,5.9503568 0 0 1 0,5.71559 5.1467428,5.1467428 0 0 1 -2.00454,1.97742 6.2663852,6.2663852 0 0 1 -5.80589,0 z m 4.78555,-1.48984 a 3.3950447,3.3950446 0 0 0 1.30026,-1.34537 4.5146865,4.5146865 0 0 0 0,-4.00001 3.367956,3.367956 0 0 0 -1.30026,-1.33636 3.7381607,3.7381607 0 0 0 -1.8781,-0.46951 3.6839844,3.6839844 0 0 0 -1.86906,0.46951 3.4131032,3.4131032 0 0 0 -1.29127,1.33636 4.4153634,4.4153634 0 0 0 0,4.00001 3.4311615,3.4311615 0 0 0 1.31836,1.34537 3.6117494,3.6117494 0 0 0 1.86908,0.4876 3.6659255,3.6659255 0 0 0 1.85099,-0.4876 z"
     id="path58"
     style="fill:#595757;stroke-width:0.90293759" />
  <path
     inkscape:connector-curvature="0"
     class="cls-2"
     d="m 169.28423,197.75973 a 4.7043032,4.7043032 0 0 1 1.21899,3.5124 v 6.24832 h -1.9504 v -6.02258 a 3.3228092,3.3228092 0 0 0 -0.75847,-2.37472 2.8442526,2.8442526 0 0 0 -2.16701,-0.80361 3.4131032,3.4131032 0 0 0 -2.5192,0.90293 3.6117494,3.6117494 0 0 0 -0.90295,2.70881 v 5.5982 h -1.9684 v -10.83522 h 1.88715 v 1.58916 a 3.8013662,3.8013662 0 0 1 1.60721,-1.29121 5.661417,5.661417 0 0 1 2.30252,-0.45147 4.5146865,4.5146865 0 0 1 3.25056,1.21899 z"
     id="path60"
     style="fill:#595757;stroke-width:0.90293759" />
  <path
     inkscape:connector-curvature="0"
     class="cls-2"
     d="m 176.36327,195.71906 v 0.94808 h 3.15121 v 1.61628 h -3.1151 v 9.23703 h -1.96841 v -9.23703 h -1.80586 v -1.61628 h 1.80586 v -0.96613 a 3.4311615,3.4311615 0 0 1 0.90293,-2.55532 3.5485439,3.5485439 0 0 1 2.63658,-0.94808 4.4424517,4.4424517 0 0 1 1.22796,0.16255 2.8623113,2.8623113 0 0 1 0.98425,0.47856 l -0.59593,1.48982 a 2.4018128,2.4018128 0 0 0 -1.50793,-0.51465 c -1.12866,0 -1.71556,0.64108 -1.71556,1.90517 z"
     id="path62"
     style="fill:#595757;stroke-width:0.90293759" />
  <path
     inkscape:connector-curvature="0"
     class="cls-2"
     d="m 191.1263,202.74392 h -8.80364 a 3.3860149,3.3860149 0 0 0 1.25509,2.30249 4.451481,4.451481 0 0 0 5.80585,-0.4334 l 1.08355,1.26411 a 4.6501276,4.6501276 0 0 1 -1.80587,1.30925 6.9164999,6.9164999 0 0 1 -5.4989,-0.25285 4.9751845,4.9751845 0 0 1 -2.04965,-1.97741 5.6252995,5.6252995 0 0 1 -0.73141,-2.86232 5.7878282,5.7878282 0 0 1 0.70432,-2.85326 5.0474197,5.0474197 0 0 1 1.95031,-1.96841 5.7968579,5.7968579 0 0 1 5.57115,0 4.9751845,4.9751845 0 0 1 1.89615,1.96841 5.9864745,5.9864744 0 0 1 0.68626,2.90743 5.4176241,5.4176241 0 0 1 -0.0649,0.59596 z m -7.69305,-3.66593 a 3.485338,3.485338 0 0 0 -1.11059,2.25735 h 6.99774 a 3.5214557,3.5214557 0 0 0 -1.11968,-2.24831 3.367956,3.367956 0 0 0 -2.36563,-0.90295 3.4311615,3.4311615 0 0 0 -2.3838,0.89391 z"
     id="path64"
     style="fill:#595757;stroke-width:0.90293759" />
  <path
     inkscape:connector-curvature="0"
     class="cls-2"
     d="m 197.30236,197.05542 a 5.4176241,5.4176241 0 0 1 2.43796,-0.49661 v 1.9052 h -0.45149 a 3.2957214,3.2957214 0 0 0 -2.50114,0.90292 3.7652485,3.7652485 0 0 0 -0.90295,2.70881 v 5.41763 h -1.96838 v -10.83523 h 1.88714 v 1.80587 a 3.3047507,3.3047507 0 0 1 1.49886,-1.40859 z"
     id="path66"
     style="fill:#595757;stroke-width:0.90293759" />
  <path
     inkscape:connector-curvature="0"
     class="cls-2"
     d="m 212.0654,202.74392 h -8.80364 a 3.3950447,3.3950446 0 0 0 1.26411,2.30249 4.451481,4.451481 0 0 0 5.80587,-0.4334 l 1.08352,1.26411 a 4.7133327,4.7133327 0 0 1 -1.80584,1.30925 6.9164999,6.9164999 0 0 1 -5.49889,-0.25285 5.0564491,5.0564491 0 0 1 -2.05871,-1.97741 5.6162703,5.6162703 0 0 1 -0.72234,-2.86232 5.7878282,5.7878282 0 0 1 0.70427,-2.85326 5.0835371,5.0835371 0 0 1 1.94133,-1.96841 5.4988882,5.4988882 0 0 1 2.79908,-0.71331 5.3453886,5.3453887 0 0 1 2.77205,0.71331 4.9932433,4.9932433 0 0 1 1.90521,1.96841 5.9864745,5.9864744 0 0 1 0.68624,2.90743 5.8239459,5.8239459 0 0 1 -0.072,0.59596 z m -7.684,-3.66593 a 3.4943675,3.4943675 0 0 0 -1.11964,2.25735 h 6.96165 a 3.5124265,3.5124265 0 0 0 -1.11062,-2.24831 3.6749547,3.6749547 0 0 0 -4.73139,0 z"
     id="path68"
     style="fill:#595757;stroke-width:0.90293759" />
  <path
     inkscape:connector-curvature="0"
     class="cls-2"
     d="m 223.91193,197.75973 a 4.7043032,4.7043032 0 0 1 1.21897,3.5124 v 6.24832 h -1.9684 v -6.02258 a 3.3137801,3.31378 0 0 0 -0.74945,-2.37472 2.8532823,2.8532823 0 0 0 -2.17607,-0.80361 3.4131032,3.4131032 0 0 0 -2.51922,0.90293 3.6117494,3.6117494 0 0 0 -0.90291,2.70881 v 5.5982 h -1.96845 v -10.83522 h 1.88718 v 1.58916 a 3.8013662,3.8013662 0 0 1 1.60726,-1.29121 5.661417,5.661417 0 0 1 2.30248,-0.45147 4.5146865,4.5146865 0 0 1 3.26861,1.21899 z"
     id="path70"
     style="fill:#595757;stroke-width:0.90293759" />
  <path
     inkscape:connector-curvature="0"
     class="cls-2"
     d="m 230.54853,206.92451 a 5.3002422,5.3002422 0 0 1 -2.04066,-1.97742 5.9503568,5.9503568 0 0 1 0,-5.71559 5.1918894,5.1918894 0 0 1 2.04066,-1.95938 6.0135626,6.0135626 0 0 1 2.96165,-0.71331 5.6343287,5.6343287 0 0 1 2.62751,0.59592 4.1264232,4.1264232 0 0 1 1.8059,1.72462 l -1.48985,0.9571 a 3.4040733,3.4040733 0 0 0 -1.27316,-1.16479 3.6117494,3.6117494 0 0 0 -1.67944,-0.38824 3.8826306,3.8826306 0 0 0 -1.91426,0.46951 3.3769857,3.3769857 0 0 0 -1.32732,1.33636 4.4605105,4.4605105 0 0 0 0,4.01807 3.3950447,3.3950446 0 0 0 1.32732,1.34535 3.9819533,3.9819533 0 0 0 1.91426,0.46956 3.7110723,3.7110723 0 0 0 1.67944,-0.38827 3.3589269,3.3589269 0 0 0 1.27316,-1.17384 l 1.48985,0.94811 a 4.1715704,4.1715704 0 0 1 -1.8059,1.7246 5.5259764,5.5259764 0 0 1 -2.62751,0.60498 6.0135626,6.0135626 0 0 1 -2.96165,-0.71334 z"
     id="path72"
     style="fill:#595757;stroke-width:0.90293759" />
  <path
     inkscape:connector-curvature="0"
     class="cls-2"
     d="m 250.23255,202.74392 h -8.80364 a 3.3950447,3.3950446 0 0 0 1.26411,2.30249 4.451481,4.451481 0 0 0 5.80592,-0.4334 l 1.0835,1.26411 a 4.7133327,4.7133327 0 0 1 -1.8059,1.30925 6.9164999,6.9164999 0 0 1 -5.49886,-0.25285 5.0564491,5.0564491 0 0 1 -2.05869,-1.97741 5.6162703,5.6162703 0 0 1 -0.72234,-2.86232 5.7878282,5.7878282 0 0 1 0.70427,-2.85326 5.0835371,5.0835371 0 0 1 1.94135,-1.96841 5.4988882,5.4988882 0 0 1 2.79909,-0.71331 5.3453886,5.3453887 0 0 1 2.77202,0.71331 4.9932433,4.9932433 0 0 1 1.90516,1.96841 5.9864745,5.9864744 0 0 1 0.68629,2.90743 5.8239459,5.8239459 0 0 1 -0.0719,0.59596 z m -7.63883,-3.66593 a 3.4943675,3.4943675 0 0 0 -1.11969,2.25735 h 6.96168 a 3.5124265,3.5124265 0 0 0 -1.1106,-2.24831 3.6749547,3.6749547 0 0 0 -4.73139,0 z"
     id="path74"
     style="fill:#595757;stroke-width:0.90293759" />
  <rect
     class="cls-2"
     x="150.76634"
     y="-251.94131"
     width="3.3929417"
     height="222.01492"
     id="rect8"
     style="fill:#595757;stroke-width:1.53214109"
     transform="rotate(90)" />
  <rect
     class="cls-2"
     x="156.55711"
     y="-251.94131"
     width="3.3929417"
     height="222.01492"
     id="rect8-8"
     style="fill:#595757;stroke-width:1.53214109"
     transform="rotate(90)" />
</svg>
