<?xml version="1.0" encoding="UTF-8" standalone="no"?>
<svg
   xmlns:dc="http://purl.org/dc/elements/1.1/"
   xmlns:cc="http://creativecommons.org/ns#"
   xmlns:rdf="http://www.w3.org/1999/02/22-rdf-syntax-ns#"
   xmlns:svg="http://www.w3.org/2000/svg"
   xmlns="http://www.w3.org/2000/svg"
   xmlns:sodipodi="http://sodipodi.sourceforge.net/DTD/sodipodi-0.dtd"
   xmlns:inkscape="http://www.inkscape.org/namespaces/inkscape"
   id="レイヤー_1"
   data-name="レイヤー 1"
   viewBox="0 0 850.39 283.46"
   version="1.1"
   sodipodi:docname="iwcc2022aut_logo_col.svg"
   inkscape:export-filename="D:\Users\haruka.dev\ResDev\_Orgs\CL-GDAL\CL_KIITA\IWCC\IWCC\docs\assets\logo\iwcc2022aut_logo_col.png"
   inkscape:export-xdpi="960.284"
   inkscape:export-ydpi="960.284"
   inkscape:version="0.92.4 (5da689c313, 2019-01-14)">
  <metadata
     id="metadata111">
    <rdf:RDF>
      <cc:Work
         rdf:about="">
        <dc:format>image/svg+xml</dc:format>
        <dc:type
           rdf:resource="http://purl.org/dc/dcmitype/StillImage" />
      </cc:Work>
    </rdf:RDF>
  </metadata>
  <sodipodi:namedview
     pagecolor="#ffffff"
     bordercolor="#111111"
     borderopacity="1"
     objecttolerance="10"
     gridtolerance="10"
     guidetolerance="10"
     inkscape:pageopacity="0"
     inkscape:pageshadow="2"
     inkscape:window-width="1842"
     inkscape:window-height="1051"
     id="namedview109"
     showgrid="false"
     inkscape:zoom="0.72907723"
     inkscape:cx="425.19501"
     inkscape:cy="141.73"
     inkscape:window-x="69"
     inkscape:window-y="-9"
     inkscape:window-maximized="1"
     inkscape:current-layer="レイヤー_1" />
  <defs
     id="defs4">
    <style
       id="style2">.cls-1{fill:#c18f00;}.cls-2{fill:#fff;}</style>
  </defs>
  <rect
     class="cls-1"
     x="-9.5"
     y="-24.73"
     width="872.16"
     height="332.92"
     id="rect6" />
  <path
     class="cls-2"
     d="M647.52,119.51a87.39,87.39,0,0,1-7.25,15.73c-1.74,2.53-2.75,3.33-3,4.45l-.58,2.18,1,.26a14.54,14.54,0,0,1,.34-2.31c.27-1,1.69-2.81,3-4.93s5.64-10.3,7.15-15.23a10.61,10.61,0,0,0,4.47,4.5,34.89,34.89,0,0,0,7.79,3.06,11.13,11.13,0,0,0-3.16-4c-2.08-1.54-4.82-3.25-4.82-3.25a16.51,16.51,0,0,0,7.38,1.29c3.93-.32,11.65-2.94,11.65-2.94s-5.75-2.21-9.44-2.52a58.9,58.9,0,0,0-7.38-.07s5.91-1.22,9.5-5.63,8.51-11.55,8.51-11.55-8.12,2.14-12.22,5.06a52.72,52.72,0,0,0-6.7,5.61,39.77,39.77,0,0,0,2.56-12.46,86.47,86.47,0,0,0,0-11.71,46.53,46.53,0,0,0-6,10.63,59.84,59.84,0,0,0-2.69,8.12s-2-5.29-4.5-7.77-5.41-6-5.41-6-.09,8,.88,11.41a73.06,73.06,0,0,0,2.86,7.7,18.37,18.37,0,0,0-5.89-2.55l-6.7-1.48s4.22,6.56,7.21,8.34a73.06,73.06,0,0,0,7.35,3.61,13,13,0,0,0-5.44.59c-2.14.94-5.94,3-5.94,3a48.9,48.9,0,0,0,7.74.7A27.31,27.31,0,0,0,647.52,119.51Z"
     id="path8" />
  <rect
     class="cls-2"
     x="390.6"
     y="85.04"
     width="2.83"
     height="113.39"
     id="rect10" />
  <path
     class="cls-2"
     d="M427.45,104.59h2.27v15.87h-2.27Z"
     id="path12" />
  <path
     class="cls-2"
     d="M452.79,109.64a5.25,5.25,0,0,1,1.33,3.9v6.92h-2.18v-6.67a3.83,3.83,0,0,0-.8-2.63,3,3,0,0,0-2.31-.88,3.44,3.44,0,0,0-2.63,1,4.16,4.16,0,0,0-1,3v6.19h-2.18v-6.67a3.83,3.83,0,0,0-.8-2.63,3,3,0,0,0-2.31-.88,3.44,3.44,0,0,0-2.63,1,4.16,4.16,0,0,0-1,3v6.19h-2.18v-12h2.09v1.79a4.17,4.17,0,0,1,1.72-1.41,5.7,5.7,0,0,1,2.43-.49,5.28,5.28,0,0,1,2.49.57,3.88,3.88,0,0,1,1.68,1.65,4.64,4.64,0,0,1,1.89-1.63,6.23,6.23,0,0,1,2.74-.59A4.89,4.89,0,0,1,452.79,109.64Z"
     id="path14" />
  <path
     class="cls-2"
     d="M466.33,109.55a4.76,4.76,0,0,1,1.33,3.65v7.26h-2.07v-1.59a3.4,3.4,0,0,1-1.55,1.28,5.82,5.82,0,0,1-2.39.45,5,5,0,0,1-3.24-1,3.35,3.35,0,0,1-.05-5.11,5.7,5.7,0,0,1,3.67-1h3.45v-.43a2.76,2.76,0,0,0-.82-2.15,3.42,3.42,0,0,0-2.4-.75,6.5,6.5,0,0,0-2.09.35,5.55,5.55,0,0,0-1.72.94l-.91-1.63a6.48,6.48,0,0,1,2.22-1.14,9.19,9.19,0,0,1,2.75-.4A5.46,5.46,0,0,1,466.33,109.55Zm-2.17,8.81a3.14,3.14,0,0,0,1.32-1.57v-1.68h-3.36q-2.76,0-2.76,1.86a1.69,1.69,0,0,0,.7,1.43,3.2,3.2,0,0,0,1.95.52A4,4,0,0,0,464.16,118.36Z"
     id="path16" />
  <path
     class="cls-2"
     d="M483.19,108.44v10.39a6.19,6.19,0,0,1-1.57,4.66A6.51,6.51,0,0,1,477,125a11.18,11.18,0,0,1-3.24-.47,6.4,6.4,0,0,1-2.49-1.32l1-1.68a6.24,6.24,0,0,0,2.07,1.14,7.94,7.94,0,0,0,2.56.42,4.24,4.24,0,0,0,3.11-1,4.06,4.06,0,0,0,1-3v-1a4.78,4.78,0,0,1-1.89,1.4,6.31,6.31,0,0,1-2.44.46,6.48,6.48,0,0,1-3.12-.74,5.44,5.44,0,0,1-2.19-2.06,6.19,6.19,0,0,1,0-6,5.44,5.44,0,0,1,2.19-2.06,6.7,6.7,0,0,1,3.12-.72,6.42,6.42,0,0,1,2.53.5,4.67,4.67,0,0,1,1.92,1.47v-1.86Zm-4.14,9.12a3.7,3.7,0,0,0,1.48-1.4,3.91,3.91,0,0,0,.53-2,3.69,3.69,0,0,0-1.16-2.82,4.65,4.65,0,0,0-6,0,3.69,3.69,0,0,0-1.16,2.82,3.91,3.91,0,0,0,.53,2,3.7,3.7,0,0,0,1.48,1.4,4.79,4.79,0,0,0,4.26,0Z"
     id="path18" />
  <path
     class="cls-2"
     d="M487.37,105.72a1.33,1.33,0,0,1-.42-1,1.38,1.38,0,0,1,.42-1,1.43,1.43,0,0,1,1.06-.42,1.49,1.49,0,0,1,1.05.4,1.31,1.31,0,0,1,.42,1,1.4,1.4,0,0,1-.42,1,1.42,1.42,0,0,1-1.05.42A1.46,1.46,0,0,1,487.37,105.72Zm0,2.72h2.18v12h-2.18Z"
     id="path20" />
  <path
     class="cls-2"
     d="M503.72,109.66a5.2,5.2,0,0,1,1.35,3.88v6.92H502.9v-6.67a3.69,3.69,0,0,0-.84-2.63,3.16,3.16,0,0,0-2.41-.88,3.74,3.74,0,0,0-2.79,1,4,4,0,0,0-1,3v6.19h-2.17v-12h2.08v1.82a4.21,4.21,0,0,1,1.78-1.43,6.27,6.27,0,0,1,2.55-.5A4.94,4.94,0,0,1,503.72,109.66Z"
     id="path22" />
  <path
     class="cls-2"
     d="M517.31,109.55a4.76,4.76,0,0,1,1.32,3.65v7.26h-2.06v-1.59a3.4,3.4,0,0,1-1.55,1.28,5.87,5.87,0,0,1-2.4.45,5,5,0,0,1-3.23-1,3.11,3.11,0,0,1-1.21-2.56,3.15,3.15,0,0,1,1.16-2.55,5.7,5.7,0,0,1,3.67-1h3.45v-.43a2.8,2.8,0,0,0-.82-2.15,3.44,3.44,0,0,0-2.4-.75,6.5,6.5,0,0,0-2.09.35,5.55,5.55,0,0,0-1.72.94l-.91-1.63a6.48,6.48,0,0,1,2.22-1.14,9.15,9.15,0,0,1,2.75-.4A5.48,5.48,0,0,1,517.31,109.55Zm-2.17,8.81a3.19,3.19,0,0,0,1.32-1.57v-1.68H513.1c-1.84,0-2.77.62-2.77,1.86a1.7,1.7,0,0,0,.71,1.43,3.18,3.18,0,0,0,1.95.52A4,4,0,0,0,515.14,118.36Z"
     id="path24" />
  <path
     class="cls-2"
     d="M526.43,108.87a6.13,6.13,0,0,1,2.7-.54v2.11a3.41,3.41,0,0,0-.5,0,3.65,3.65,0,0,0-2.77,1,4.13,4.13,0,0,0-1,3v6h-2.18v-12h2.09v2A3.68,3.68,0,0,1,526.43,108.87Z"
     id="path26" />
  <path
     class="cls-2"
     d="M542.6,108.44l-5.83,13.22a5.9,5.9,0,0,1-1.8,2.59,4.1,4.1,0,0,1-2.48.75,5.2,5.2,0,0,1-1.71-.29,3.57,3.57,0,0,1-1.38-.82l.93-1.64a3,3,0,0,0,2.16.89,2.09,2.09,0,0,0,1.33-.42,3.66,3.66,0,0,0,1-1.44l.38-.84-5.3-12h2.27l4.19,9.62,4.15-9.62Z"
     id="path28" />
  <path
     class="cls-2"
     d="M573.49,104.59l-5.31,15.87H565.8l-4.33-12.68-4.33,12.68h-2.43l-5.3-15.87h2.33l4.29,12.9,4.46-12.9h2.09l4.38,13,4.37-13Z"
     id="path30" />
  <path
     class="cls-2"
     d="M578.2,119.8a5.72,5.72,0,0,1-2.23-2.19,6.64,6.64,0,0,1,0-6.32,5.7,5.7,0,0,1,2.23-2.18,6.64,6.64,0,0,1,3.22-.78,6.52,6.52,0,0,1,3.21.78,5.7,5.7,0,0,1,2.23,2.18,6.64,6.64,0,0,1,0,6.32,5.72,5.72,0,0,1-2.23,2.19,6.42,6.42,0,0,1-3.21.8A6.54,6.54,0,0,1,578.2,119.8Zm5.3-1.64a3.85,3.85,0,0,0,1.44-1.5,5,5,0,0,0,0-4.42,3.67,3.67,0,0,0-1.44-1.48,4.33,4.33,0,0,0-4.15,0,3.69,3.69,0,0,0-1.45,1.48,4.87,4.87,0,0,0,0,4.42,3.87,3.87,0,0,0,1.45,1.5,4.33,4.33,0,0,0,4.15,0Z"
     id="path32" />
  <path
     class="cls-2"
     d="M594.44,108.87a6.13,6.13,0,0,1,2.7-.54v2.11a3.48,3.48,0,0,0-.5,0,3.69,3.69,0,0,0-2.78,1,4.17,4.17,0,0,0-1,3v6h-2.17v-12h2.08v2A3.75,3.75,0,0,1,594.44,108.87Z"
     id="path34" />
  <path
     class="cls-2"
     d="M600,103.63h2.18v16.83H600Z"
     id="path36" />
  <path
     class="cls-2"
     d="M617.64,103.63v16.83h-2.09v-1.9a4.74,4.74,0,0,1-1.83,1.52,5.81,5.81,0,0,1-2.45.52,6.34,6.34,0,0,1-3.13-.77,5.59,5.59,0,0,1-2.17-2.17,7,7,0,0,1,0-6.41,5.54,5.54,0,0,1,2.17-2.15,6.34,6.34,0,0,1,3.13-.77,5.7,5.7,0,0,1,2.38.49,4.53,4.53,0,0,1,1.81,1.44v-6.63Zm-4.13,14.53a3.74,3.74,0,0,0,1.45-1.5,4.87,4.87,0,0,0,0-4.42,3.57,3.57,0,0,0-1.45-1.48,4.31,4.31,0,0,0-4.14,0,3.76,3.76,0,0,0-1.45,1.48,4.87,4.87,0,0,0,0,4.42,4,4,0,0,0,1.45,1.5,4.31,4.31,0,0,0,4.14,0Z"
     id="path38" />
  <path
     class="cls-2"
     d="M430.25,149.35a7.68,7.68,0,0,1-3-2.9,8.48,8.48,0,0,1,0-8.32,7.73,7.73,0,0,1,3-2.91,8.87,8.87,0,0,1,4.31-1.05,9.1,9.1,0,0,1,3.4.62,7,7,0,0,1,2.63,1.85l-1.47,1.43a6,6,0,0,0-4.47-1.88,6.49,6.49,0,0,0-3.2.79,5.79,5.79,0,0,0-2.23,2.19,6.41,6.41,0,0,0,0,6.24,5.7,5.7,0,0,0,2.23,2.18,6.49,6.49,0,0,0,3.2.8,5.94,5.94,0,0,0,4.47-1.91l1.47,1.43a6.89,6.89,0,0,1-2.64,1.86,9,9,0,0,1-3.41.64A8.81,8.81,0,0,1,430.25,149.35Z"
     id="path40" />
  <path
     class="cls-2"
     d="M447.29,138.64a6,6,0,0,1,2.7-.55v2.11l-.5,0a3.69,3.69,0,0,0-2.78,1,4.21,4.21,0,0,0-1,3v6h-2.17v-12h2.08v2A3.73,3.73,0,0,1,447.29,138.64Z"
     id="path42" />
  <path
     class="cls-2"
     d="M463.64,144.94h-9.75a3.76,3.76,0,0,0,1.4,2.55,4.92,4.92,0,0,0,6.42-.48l1.21,1.4a5.22,5.22,0,0,1-2,1.45,7.66,7.66,0,0,1-6.09-.28,5.6,5.6,0,0,1-2.28-2.19,6.66,6.66,0,0,1,0-6.33,5.63,5.63,0,0,1,2.15-2.18,6.09,6.09,0,0,1,3.1-.79,6,6,0,0,1,3.07.79,5.53,5.53,0,0,1,2.11,2.18,6.75,6.75,0,0,1,.76,3.22A6.45,6.45,0,0,1,463.64,144.94Zm-8.51-4.06a3.83,3.83,0,0,0-1.24,2.5h7.71a3.89,3.89,0,0,0-1.23-2.49,4.07,4.07,0,0,0-5.24,0Z"
     id="path44" />
  <path
     class="cls-2"
     d="M474.9,139.32a4.69,4.69,0,0,1,1.33,3.65v7.25h-2.07v-1.58a3.46,3.46,0,0,1-1.55,1.28,6,6,0,0,1-2.39.44,5,5,0,0,1-3.23-1,3.35,3.35,0,0,1-.06-5.12,5.72,5.72,0,0,1,3.67-1h3.45v-.43a2.77,2.77,0,0,0-.82-2.16,3.42,3.42,0,0,0-2.4-.75,6.25,6.25,0,0,0-2.09.36,5.16,5.16,0,0,0-1.72.94l-.91-1.63a6.45,6.45,0,0,1,2.23-1.15,9.08,9.08,0,0,1,2.74-.4A5.42,5.42,0,0,1,474.9,139.32Zm-2.16,8.81a3.19,3.19,0,0,0,1.31-1.58v-1.68h-3.36q-2.76,0-2.76,1.86a1.68,1.68,0,0,0,.7,1.43,3.2,3.2,0,0,0,1.95.52A4.08,4.08,0,0,0,472.74,148.13Z"
     id="path46" />
  <path
     class="cls-2"
     d="M487,149.52a3.41,3.41,0,0,1-1.18.63,5,5,0,0,1-1.45.21,3.84,3.84,0,0,1-2.81-1,3.71,3.71,0,0,1-1-2.79V140h-2v-1.79h2v-2.63h2.18v2.63h3.44V140h-3.44v6.51a2.08,2.08,0,0,0,.49,1.49,1.8,1.8,0,0,0,1.39.52,2.6,2.6,0,0,0,1.7-.56Z"
     id="path48" />
  <path
     class="cls-2"
     d="M491.58,149.57a5.73,5.73,0,0,1-2.23-2.19,6.59,6.59,0,0,1,0-6.33,5.61,5.61,0,0,1,2.23-2.17,6.94,6.94,0,0,1,6.43,0,5.72,5.72,0,0,1,2.22,2.17,6.59,6.59,0,0,1,0,6.33,5.84,5.84,0,0,1-2.22,2.19,6.94,6.94,0,0,1-6.43,0Zm5.29-1.65a3.63,3.63,0,0,0,1.44-1.49,4.89,4.89,0,0,0,0-4.43,3.6,3.6,0,0,0-1.44-1.48,4.08,4.08,0,0,0-2.07-.52,4.14,4.14,0,0,0-2.08.52,3.82,3.82,0,0,0-1.45,1.48,4.89,4.89,0,0,0,0,4.43,3.85,3.85,0,0,0,1.45,1.49,4.06,4.06,0,0,0,2.08.54A4,4,0,0,0,496.87,147.92Z"
     id="path50" />
  <path
     class="cls-2"
     d="M507.82,138.64a6,6,0,0,1,2.7-.55v2.11l-.5,0a3.67,3.67,0,0,0-2.78,1,4.21,4.21,0,0,0-1,3v6h-2.18v-12h2.09v2A3.73,3.73,0,0,1,507.82,138.64Z"
     id="path52" />
  <path
     class="cls-2"
     d="M514,150a6.22,6.22,0,0,1-2.13-1l.91-1.73a6.58,6.58,0,0,0,1.92.91,7.84,7.84,0,0,0,2.29.34c1.91,0,2.86-.55,2.86-1.63a1.09,1.09,0,0,0-.38-.87,2.5,2.5,0,0,0-1-.46c-.38-.1-.93-.21-1.64-.33a15.43,15.43,0,0,1-2.37-.52,3.71,3.71,0,0,1-1.58-1,2.76,2.76,0,0,1-.65-2,3.08,3.08,0,0,1,1.36-2.62,6.05,6.05,0,0,1,3.65-1,9.86,9.86,0,0,1,2.4.3,6.32,6.32,0,0,1,2,.79l-.93,1.72a6.26,6.26,0,0,0-3.47-1,3.9,3.9,0,0,0-2.1.46,1.35,1.35,0,0,0-.73,1.2,1.16,1.16,0,0,0,.41.93,2.73,2.73,0,0,0,1,.5c.4.1,1,.22,1.69.36a18.74,18.74,0,0,1,2.34.53,3.43,3.43,0,0,1,1.53,1,2.63,2.63,0,0,1,.64,1.9,3,3,0,0,1-1.4,2.6,6.58,6.58,0,0,1-3.79,1A9.9,9.9,0,0,1,514,150Z"
     id="path54" />
  <path
     class="cls-2"
     d="M526.31,133.7a1.56,1.56,0,0,1,.42,1.1,3,3,0,0,1-.07.67,6.06,6.06,0,0,1-.29.94l-1.09,3.18h-1.43l.84-3.38a1.4,1.4,0,0,1-.69-.53,1.45,1.45,0,0,1-.26-.88,1.47,1.47,0,0,1,1.51-1.54A1.41,1.41,0,0,1,526.31,133.7Z"
     id="path56" />
  <path
     class="cls-2"
     d="M539.08,149.35a7.77,7.77,0,0,1-3-2.9,8.48,8.48,0,0,1,0-8.32,7.76,7.76,0,0,1,3-2.91,8.84,8.84,0,0,1,4.31-1.05,9.1,9.1,0,0,1,3.4.62,7.1,7.1,0,0,1,2.63,1.85L548,138.07a5.91,5.91,0,0,0-4.46-1.88,6.46,6.46,0,0,0-3.2.79,5.73,5.73,0,0,0-2.23,2.19,6.41,6.41,0,0,0,0,6.24,5.63,5.63,0,0,0,2.23,2.18,6.47,6.47,0,0,0,3.2.8,5.91,5.91,0,0,0,4.46-1.91l1.48,1.43a7,7,0,0,1-2.64,1.86,9.05,9.05,0,0,1-3.42.64A8.77,8.77,0,0,1,539.08,149.35Z"
     id="path58" />
  <path
     class="cls-2"
     d="M554.28,149.57a5.73,5.73,0,0,1-2.23-2.19,6.59,6.59,0,0,1,0-6.33,5.61,5.61,0,0,1,2.23-2.17,6.94,6.94,0,0,1,6.43,0,5.58,5.58,0,0,1,2.22,2.17,6.59,6.59,0,0,1,0,6.33,5.7,5.7,0,0,1-2.22,2.19,6.94,6.94,0,0,1-6.43,0Zm5.3-1.65a3.76,3.76,0,0,0,1.44-1.49,5,5,0,0,0,0-4.43,3.73,3.73,0,0,0-1.44-1.48,4.14,4.14,0,0,0-2.08-.52,4.08,4.08,0,0,0-2.07.52A3.78,3.78,0,0,0,554,142a4.89,4.89,0,0,0,0,4.43,3.8,3.8,0,0,0,1.46,1.49,4,4,0,0,0,2.07.54A4.06,4.06,0,0,0,559.58,147.92Z"
     id="path60" />
  <path
     class="cls-2"
     d="M576.81,139.42a5.21,5.21,0,0,1,1.35,3.89v6.91H576v-6.66a3.68,3.68,0,0,0-.84-2.63,3.15,3.15,0,0,0-2.4-.89,3.78,3.78,0,0,0-2.79,1,4,4,0,0,0-1,3v6.19h-2.18v-12h2.09V140a4.21,4.21,0,0,1,1.78-1.43,6.27,6.27,0,0,1,2.55-.5A5,5,0,0,1,576.81,139.42Z"
     id="path62" />
  <path
     class="cls-2"
     d="M584.65,137.16v1.05h3.49V140h-3.45v10.22h-2.18V140h-2v-1.79h2v-1.07a3.8,3.8,0,0,1,1-2.83,3.93,3.93,0,0,1,2.92-1.05,4.92,4.92,0,0,1,1.36.18,3.17,3.17,0,0,1,1.09.53l-.66,1.65a2.66,2.66,0,0,0-1.67-.57C585.3,135.05,584.65,135.76,584.65,137.16Z"
     id="path64" />
  <path
     class="cls-2"
     d="M601,144.94h-9.75a3.75,3.75,0,0,0,1.39,2.55,4.93,4.93,0,0,0,6.43-.48l1.2,1.4a5.15,5.15,0,0,1-2,1.45,7.66,7.66,0,0,1-6.09-.28,5.51,5.51,0,0,1-2.27-2.19,6.26,6.26,0,0,1-.81-3.17,6.41,6.41,0,0,1,.78-3.16,5.59,5.59,0,0,1,2.16-2.18,6.42,6.42,0,0,1,6.17,0,5.51,5.51,0,0,1,2.1,2.18,6.63,6.63,0,0,1,.76,3.22A6,6,0,0,1,601,144.94Zm-8.52-4.06a3.86,3.86,0,0,0-1.23,2.5H599a3.9,3.9,0,0,0-1.24-2.49,3.75,3.75,0,0,0-2.62-1A3.8,3.8,0,0,0,592.5,140.88Z"
     id="path66" />
  <path
     class="cls-2"
     d="M607.84,138.64a6,6,0,0,1,2.7-.55v2.11l-.5,0a3.65,3.65,0,0,0-2.77,1,4.17,4.17,0,0,0-1,3v6h-2.18v-12h2.09v2A3.66,3.66,0,0,1,607.84,138.64Z"
     id="path68" />
  <path
     class="cls-2"
     d="M624.19,144.94h-9.75a3.76,3.76,0,0,0,1.4,2.55,4.93,4.93,0,0,0,6.43-.48l1.2,1.4a5.22,5.22,0,0,1-2,1.45,7.66,7.66,0,0,1-6.09-.28,5.6,5.6,0,0,1-2.28-2.19,6.25,6.25,0,0,1-.8-3.17,6.41,6.41,0,0,1,.78-3.16,5.63,5.63,0,0,1,2.15-2.18,6.09,6.09,0,0,1,3.1-.79,5.92,5.92,0,0,1,3.07.79,5.53,5.53,0,0,1,2.11,2.18,6.63,6.63,0,0,1,.76,3.22A6.45,6.45,0,0,1,624.19,144.94Zm-8.51-4.06a3.87,3.87,0,0,0-1.24,2.5h7.71a3.89,3.89,0,0,0-1.23-2.49,4.07,4.07,0,0,0-5.24,0Z"
     id="path70" />
  <path
     class="cls-2"
     d="M637.31,139.42a5.21,5.21,0,0,1,1.35,3.89v6.91h-2.18v-6.66a3.72,3.72,0,0,0-.83-2.63,3.16,3.16,0,0,0-2.41-.89,3.78,3.78,0,0,0-2.79,1,4,4,0,0,0-1,3v6.19h-2.18v-12h2.09V140a4.21,4.21,0,0,1,1.78-1.43,6.27,6.27,0,0,1,2.55-.5A5,5,0,0,1,637.31,139.42Z"
     id="path72" />
  <path
     class="cls-2"
     d="M644.66,149.57a5.87,5.87,0,0,1-2.26-2.19,6.59,6.59,0,0,1,0-6.33,5.75,5.75,0,0,1,2.26-2.17,6.66,6.66,0,0,1,3.28-.79,6.24,6.24,0,0,1,2.91.66,4.62,4.62,0,0,1,2,1.91l-1.65,1.06a3.77,3.77,0,0,0-1.41-1.29,4,4,0,0,0-1.86-.43,4.3,4.3,0,0,0-2.12.52,3.74,3.74,0,0,0-1.47,1.48,4.94,4.94,0,0,0,0,4.45,3.67,3.67,0,0,0,1.47,1.48,4.3,4.3,0,0,0,2.12.53,4.11,4.11,0,0,0,1.86-.43,3.72,3.72,0,0,0,1.41-1.3l1.65,1.05a4.68,4.68,0,0,1-2,1.91,6.12,6.12,0,0,1-2.91.67A6.66,6.66,0,0,1,644.66,149.57Z"
     id="path74" />
  <path
     class="cls-2"
     d="M666.46,144.94h-9.75a3.76,3.76,0,0,0,1.4,2.55,4.93,4.93,0,0,0,6.43-.48l1.2,1.4a5.22,5.22,0,0,1-2,1.45,7.66,7.66,0,0,1-6.09-.28,5.6,5.6,0,0,1-2.28-2.19,6.25,6.25,0,0,1-.8-3.17,6.41,6.41,0,0,1,.78-3.16,5.63,5.63,0,0,1,2.15-2.18,6.09,6.09,0,0,1,3.1-.79,5.92,5.92,0,0,1,3.07.79,5.53,5.53,0,0,1,2.11,2.18,6.63,6.63,0,0,1,.76,3.22A6.45,6.45,0,0,1,666.46,144.94ZM658,140.88a3.83,3.83,0,0,0-1.24,2.5h7.71a3.89,3.89,0,0,0-1.23-2.49,4.07,4.07,0,0,0-5.24,0Z"
     id="path76" />
  <path
     class="cls-2"
     d="M437.31,178v2h-11.4v-1.54l6.46-6.24a7.71,7.71,0,0,0,1.59-2,3.77,3.77,0,0,0,.41-1.67,2.32,2.32,0,0,0-.88-1.94A3.94,3.94,0,0,0,431,166a5,5,0,0,0-4.06,1.73l-1.54-1.34a6.13,6.13,0,0,1,2.43-1.77,8.51,8.51,0,0,1,3.37-.64,6.16,6.16,0,0,1,4,1.19,3.94,3.94,0,0,1,1.47,3.23,5.55,5.55,0,0,1-.54,2.41,9.55,9.55,0,0,1-2.06,2.58L429.17,178Z"
     id="path78" />
  <path
     class="cls-2"
     d="M442.31,179.21a6.57,6.57,0,0,1-2.3-2.8,11.71,11.71,0,0,1,0-8.71,6.45,6.45,0,0,1,2.3-2.8,5.9,5.9,0,0,1,3.35-1,5.83,5.83,0,0,1,3.32,1,6.38,6.38,0,0,1,2.3,2.8,11.71,11.71,0,0,1,0,8.71,6.5,6.5,0,0,1-2.3,2.8,5.9,5.9,0,0,1-3.32,1A6,6,0,0,1,442.31,179.21Zm6.4-2.62a9.59,9.59,0,0,0,0-9.07,3.77,3.77,0,0,0-6.12,0,9.52,9.52,0,0,0,0,9.07,3.78,3.78,0,0,0,6.12,0Z"
     id="path80" />
  <path
     class="cls-2"
     d="M465.46,178v2H454.05v-1.54l6.46-6.24a7.71,7.71,0,0,0,1.59-2,3.77,3.77,0,0,0,.41-1.67,2.34,2.34,0,0,0-.87-1.94,4,4,0,0,0-2.51-.69,5,5,0,0,0-4.06,1.73l-1.54-1.34a6.1,6.1,0,0,1,2.44-1.77,8.42,8.42,0,0,1,3.36-.64,6.14,6.14,0,0,1,4,1.19,4,4,0,0,1,1.48,3.23,5.56,5.56,0,0,1-.55,2.41,9.55,9.55,0,0,1-2.06,2.58L457.32,178Z"
     id="path82" />
  <path
     class="cls-2"
     d="M478.47,178v2h-11.4v-1.54l6.46-6.24a7.93,7.93,0,0,0,1.59-2,3.77,3.77,0,0,0,.41-1.67,2.35,2.35,0,0,0-.88-1.94,4,4,0,0,0-2.5-.69,5,5,0,0,0-4.06,1.73l-1.55-1.34a6.17,6.17,0,0,1,2.44-1.77,8.51,8.51,0,0,1,3.37-.64,6.16,6.16,0,0,1,4,1.19,3.94,3.94,0,0,1,1.47,3.23,5.55,5.55,0,0,1-.54,2.41,9.42,9.42,0,0,1-2.07,2.58L470.33,178Z"
     id="path84" />
  <path
     class="cls-2"
     d="M501.38,164.11V180h-2.27v-7.08H490V180h-2.27V164.11H490v6.83h9.12v-6.83Z"
     id="path86" />
  <path
     class="cls-2"
     d="M506.14,164.11h2.27V180h-2.27Z"
     id="path88" />
  <path
     class="cls-2"
     d="M514.34,179.61a7.06,7.06,0,0,1-2.62-1.44l.84-1.76a7,7,0,0,0,2.32,1.32,8.58,8.58,0,0,0,2.91.51,5.21,5.21,0,0,0,3-.67,2.06,2.06,0,0,0,1-1.78,1.73,1.73,0,0,0-.54-1.32,3.64,3.64,0,0,0-1.31-.79c-.52-.18-1.26-.38-2.21-.61a20.86,20.86,0,0,1-2.89-.86,4.83,4.83,0,0,1-1.89-1.33,3.53,3.53,0,0,1-.78-2.41,4.12,4.12,0,0,1,.67-2.29,4.55,4.55,0,0,1,2-1.63,8.2,8.2,0,0,1,3.38-.62,10.39,10.39,0,0,1,2.77.37,7.43,7.43,0,0,1,2.33,1l-.75,1.81a8.19,8.19,0,0,0-2.13-1,7.86,7.86,0,0,0-2.22-.33,4.87,4.87,0,0,0-2.89.7,2.17,2.17,0,0,0-1,1.82,1.73,1.73,0,0,0,.54,1.32,3.75,3.75,0,0,0,1.35.8,19.58,19.58,0,0,0,2.19.6,22.63,22.63,0,0,1,2.88.86,4.91,4.91,0,0,1,1.87,1.32,3.46,3.46,0,0,1,.78,2.38,4.09,4.09,0,0,1-.68,2.28,4.58,4.58,0,0,1-2.06,1.63,8.6,8.6,0,0,1-3.41.6A10.84,10.84,0,0,1,514.34,179.61Z"
     id="path90" />
  <path
     class="cls-2"
     d="M530.4,166.09H525v-2h13.13v2h-5.44V180H530.4Z"
     id="path92" />
  <path
     class="cls-2"
     d="M543.4,179.12a7.81,7.81,0,0,1-3-2.92,8.38,8.38,0,0,1,0-8.3,7.71,7.71,0,0,1,3-2.91,9.33,9.33,0,0,1,8.64,0,7.7,7.7,0,0,1,3,2.9,8.48,8.48,0,0,1,0,8.32,7.73,7.73,0,0,1-3,2.91,9.41,9.41,0,0,1-8.64,0Zm7.47-1.76a5.85,5.85,0,0,0,2.2-2.19,6.48,6.48,0,0,0,0-6.24,5.76,5.76,0,0,0-2.2-2.18,6.24,6.24,0,0,0-3.14-.8,6.38,6.38,0,0,0-3.17.8,5.74,5.74,0,0,0-2.22,2.18,6.48,6.48,0,0,0,0,6.24,5.84,5.84,0,0,0,2.22,2.19,6.37,6.37,0,0,0,3.17.79A6.23,6.23,0,0,0,550.87,177.36Z"
     id="path94" />
  <path
     class="cls-2"
     d="M570.22,180l-3.42-4.88c-.42,0-.76,0-1,0h-3.92V180h-2.27V164.11h6.19a7.34,7.34,0,0,1,4.85,1.48,5,5,0,0,1,1.77,4.06,5.35,5.35,0,0,1-.9,3.13,5.14,5.14,0,0,1-2.59,1.88L572.7,180ZM569,172.3a3.22,3.22,0,0,0,1.14-2.65A3.19,3.19,0,0,0,569,167a5.06,5.06,0,0,0-3.29-.92h-3.85v7.14h3.85A5.06,5.06,0,0,0,569,172.3Z"
     id="path96" />
  <path
     class="cls-2"
     d="M582.17,174.5V180h-2.24v-5.53l-6.31-10.35h2.43l5.08,8.37,5.1-8.37h2.25Z"
     id="path98" />
  <path
     class="cls-2"
     d="M184.27,119.41h6.38v44.65h-6.38Z"
     id="path100" />
  <path
     class="cls-2"
     d="M267.12,119.41,252.2,164.06h-6.7L233.32,128.4l-12.18,35.66h-6.83l-14.92-44.65H206l12,36.29,12.56-36.29h5.87l12.31,36.48,12.31-36.48Z"
     id="path102" />
  <path
     class="cls-2"
     d="M283.73,161.6a21.88,21.88,0,0,1-8.45-8.16,23.92,23.92,0,0,1,0-23.41,21.65,21.65,0,0,1,8.49-8.16,24.77,24.77,0,0,1,12.11-3,25.28,25.28,0,0,1,9.57,1.75,19.67,19.67,0,0,1,7.4,5.2l-4.15,4a16.61,16.61,0,0,0-12.56-5.29,18.16,18.16,0,0,0-9,2.23,16.24,16.24,0,0,0-6.29,6.15,18.15,18.15,0,0,0,0,17.54,16.19,16.19,0,0,0,6.29,6.16,18.16,18.16,0,0,0,9,2.23,16.67,16.67,0,0,0,12.56-5.36l4.15,4a19.8,19.8,0,0,1-7.43,5.23,25.13,25.13,0,0,1-9.6,1.79A24.67,24.67,0,0,1,283.73,161.6Z"
     id="path104" />
  <path
     class="cls-2"
     d="M329.85,161.6a21.81,21.81,0,0,1-8.45-8.16,23.92,23.92,0,0,1,0-23.41,21.62,21.62,0,0,1,8.48-8.16,24.78,24.78,0,0,1,12.12-3,25.26,25.26,0,0,1,9.56,1.75,19.59,19.59,0,0,1,7.4,5.2l-4.14,4a16.64,16.64,0,0,0-12.57-5.29,18.19,18.19,0,0,0-9,2.23A16.21,16.21,0,0,0,327,133a18.08,18.08,0,0,0,0,17.54,16.17,16.17,0,0,0,6.28,6.16,18.19,18.19,0,0,0,9,2.23,16.69,16.69,0,0,0,12.57-5.36l4.14,4a19.8,19.8,0,0,1-7.43,5.23,25.13,25.13,0,0,1-9.6,1.79A24.6,24.6,0,0,1,329.85,161.6Z"
     id="path106" />
</svg>
