<svg id="レイヤー_1" data-name="レイヤー 1" xmlns="http://www.w3.org/2000/svg" viewBox="0 0 566.93 566.93"><defs><style>.cls-1{fill:#f2a1ad;}.cls-2{fill:#fff;}</style></defs><rect class="cls-1" width="566.93" height="566.93"/><rect class="cls-2" x="185.3" y="178.37" width="4.25" height="170.08" transform="translate(-75.99 450.83) rotate(-90)"/><path class="cls-2" d="M106,294.86h3.41v23.81H106Z"/><path class="cls-2" d="M144,302.44a7.94,7.94,0,0,1,2,5.85v10.38h-3.27v-10a5.7,5.7,0,0,0-1.2-3.94,4.43,4.43,0,0,0-3.46-1.33,5.17,5.17,0,0,0-3.94,1.55,6.19,6.19,0,0,0-1.47,4.44v9.29h-3.26v-10a5.7,5.7,0,0,0-1.21-3.94,4.4,4.4,0,0,0-3.45-1.33,5.19,5.19,0,0,0-4,1.55,6.24,6.24,0,0,0-1.46,4.44v9.29H116v-18h3.13v2.68a6.41,6.41,0,0,1,2.59-2.12,8.6,8.6,0,0,1,3.64-.73,8,8,0,0,1,3.74.85,5.86,5.86,0,0,1,2.52,2.48,6.89,6.89,0,0,1,2.84-2.45,9.24,9.24,0,0,1,4.1-.88A7.35,7.35,0,0,1,144,302.44Z"/><path class="cls-2" d="M164.28,302.3a7.12,7.12,0,0,1,2,5.48v10.89h-3.09v-2.39a5.25,5.25,0,0,1-2.33,1.93,9,9,0,0,1-3.59.66,7.56,7.56,0,0,1-4.85-1.46,5,5,0,0,1-.08-7.67q1.73-1.46,5.51-1.45H163v-.65a4.16,4.16,0,0,0-1.23-3.23,5.13,5.13,0,0,0-3.6-1.12,9.57,9.57,0,0,0-3.13.53,8.13,8.13,0,0,0-2.59,1.41l-1.36-2.45a9.87,9.87,0,0,1,3.34-1.72,14.13,14.13,0,0,1,4.11-.59A8.19,8.19,0,0,1,164.28,302.3ZM161,315.52a4.82,4.82,0,0,0,2-2.36v-2.52h-5q-4.14,0-4.14,2.79a2.53,2.53,0,0,0,1.05,2.14,4.82,4.82,0,0,0,2.92.78A6.15,6.15,0,0,0,161,315.52Z"/><path class="cls-2" d="M189.57,300.64v15.58c0,3.15-.79,5.48-2.35,7s-3.9,2.26-7,2.26a16.56,16.56,0,0,1-4.86-.7,9.62,9.62,0,0,1-3.75-2l1.57-2.52a9.22,9.22,0,0,0,3.11,1.72,11.83,11.83,0,0,0,3.83.63,6.42,6.42,0,0,0,4.68-1.5,6.16,6.16,0,0,0,1.51-4.55v-1.43a7.18,7.18,0,0,1-2.84,2.09,9.36,9.36,0,0,1-3.66.7,9.86,9.86,0,0,1-4.68-1.11,8.34,8.34,0,0,1-3.28-3.09,9.27,9.27,0,0,1,0-9.09,8.16,8.16,0,0,1,3.28-3.07,10,10,0,0,1,4.68-1.09,9.58,9.58,0,0,1,3.8.75,7,7,0,0,1,2.87,2.21v-2.79Zm-6.21,13.67a5.56,5.56,0,0,0,2.21-2.09,5.87,5.87,0,0,0,.8-3,5.52,5.52,0,0,0-1.74-4.24,7,7,0,0,0-8.94,0,5.52,5.52,0,0,0-1.74,4.24,5.87,5.87,0,0,0,.8,3,5.5,5.5,0,0,0,2.21,2.09,6.74,6.74,0,0,0,3.22.75A6.67,6.67,0,0,0,183.36,314.31Z"/><path class="cls-2" d="M195.84,296.56a2,2,0,0,1-.63-1.5,2.08,2.08,0,0,1,.63-1.52,2.37,2.37,0,0,1,3.16,0,2,2,0,0,1,.63,1.48,2.15,2.15,0,0,1-2.21,2.18A2.21,2.21,0,0,1,195.84,296.56Zm-.05,4.08h3.27v18h-3.27Z"/><path class="cls-2" d="M220.37,302.46a7.85,7.85,0,0,1,2,5.83v10.38h-3.27v-10a5.56,5.56,0,0,0-1.25-3.94,4.73,4.73,0,0,0-3.61-1.33,5.61,5.61,0,0,0-4.18,1.55,6,6,0,0,0-1.53,4.44v9.29h-3.27v-18h3.13v2.72a6.3,6.3,0,0,1,2.67-2.14,9.32,9.32,0,0,1,3.83-.75A7.44,7.44,0,0,1,220.37,302.46Z"/><path class="cls-2" d="M240.74,302.3a7.09,7.09,0,0,1,2,5.48v10.89h-3.09v-2.39a5.3,5.3,0,0,1-2.33,1.93,9,9,0,0,1-3.59.66,7.54,7.54,0,0,1-4.85-1.46,5,5,0,0,1-.09-7.67q1.74-1.46,5.52-1.45h5.17v-.65a4.16,4.16,0,0,0-1.23-3.23,5.16,5.16,0,0,0-3.6-1.12,9.57,9.57,0,0,0-3.13.53,8,8,0,0,0-2.59,1.41l-1.36-2.45a9.91,9.91,0,0,1,3.33-1.72,14.25,14.25,0,0,1,4.12-.59A8.18,8.18,0,0,1,240.74,302.3Zm-3.25,13.22a4.79,4.79,0,0,0,2-2.36v-2.52h-5q-4.16,0-4.15,2.79a2.51,2.51,0,0,0,1.06,2.14,4.8,4.8,0,0,0,2.92.78A6.09,6.09,0,0,0,237.49,315.52Z"/><path class="cls-2" d="M254.43,301.28a9.2,9.2,0,0,1,4.05-.81v3.16a7.2,7.2,0,0,0-.75,0,5.44,5.44,0,0,0-4.16,1.58,6.26,6.26,0,0,0-1.52,4.51v9h-3.26v-18h3.12v3A5.64,5.64,0,0,1,254.43,301.28Z"/><path class="cls-2" d="M278.69,300.64l-8.75,19.83a9,9,0,0,1-2.7,3.88,6.22,6.22,0,0,1-3.73,1.12A7.65,7.65,0,0,1,261,325a5.13,5.13,0,0,1-2.06-1.24l1.39-2.45a4.53,4.53,0,0,0,3.23,1.33,3.1,3.1,0,0,0,2-.63,5.3,5.3,0,0,0,1.45-2.16l.58-1.26-8-18H263l6.29,14.42,6.23-14.42Z"/><path class="cls-2" d="M325,294.86l-7.95,23.81h-3.58l-6.49-19-6.5,19h-3.64l-8-23.81h3.5l6.43,19.35,6.7-19.35h3.13l6.57,19.45,6.56-19.45Z"/><path class="cls-2" d="M332.09,317.68a8.59,8.59,0,0,1-3.35-3.28,9.91,9.91,0,0,1,0-9.49,8.43,8.43,0,0,1,3.35-3.27,9.92,9.92,0,0,1,4.83-1.17,9.79,9.79,0,0,1,4.81,1.17,8.54,8.54,0,0,1,3.34,3.27,10,10,0,0,1,0,9.49,8.7,8.7,0,0,1-3.34,3.28,9.69,9.69,0,0,1-4.81,1.19A9.82,9.82,0,0,1,332.09,317.68Zm7.94-2.47a5.61,5.61,0,0,0,2.16-2.24,7.37,7.37,0,0,0,0-6.64,5.5,5.5,0,0,0-2.16-2.22,6.52,6.52,0,0,0-6.22,0,5.61,5.61,0,0,0-2.18,2.22,7.29,7.29,0,0,0,0,6.64,5.73,5.73,0,0,0,2.18,2.24,6.45,6.45,0,0,0,6.22,0Z"/><path class="cls-2" d="M356.45,301.28a9.15,9.15,0,0,1,4-.81v3.16a7.2,7.2,0,0,0-.75,0,5.47,5.47,0,0,0-4.16,1.58,6.26,6.26,0,0,0-1.52,4.51v9H350.8v-18h3.13v3A5.54,5.54,0,0,1,356.45,301.28Z"/><path class="cls-2" d="M364.74,293.43H368v25.24h-3.27Z"/><path class="cls-2" d="M391.24,293.43v25.24h-3.13v-2.86a7,7,0,0,1-2.75,2.28,8.58,8.58,0,0,1-3.68.78,9.48,9.48,0,0,1-4.69-1.16,8.26,8.26,0,0,1-3.25-3.25,10.43,10.43,0,0,1,0-9.6,8.37,8.37,0,0,1,3.25-3.24,9.47,9.47,0,0,1,4.69-1.15,8.62,8.62,0,0,1,3.58.73,7.07,7.07,0,0,1,2.72,2.16v-9.93Zm-6.19,21.78a5.6,5.6,0,0,0,2.18-2.24,7.46,7.46,0,0,0,0-6.64,5.48,5.48,0,0,0-2.18-2.22,6.5,6.5,0,0,0-6.21,0,5.65,5.65,0,0,0-2.17,2.22,7.29,7.29,0,0,0,0,6.64,5.77,5.77,0,0,0,2.17,2.24,6.43,6.43,0,0,0,6.21,0Z"/><path class="cls-2" d="M110.16,362a11.58,11.58,0,0,1-4.51-4.35,12.78,12.78,0,0,1,0-12.49,11.67,11.67,0,0,1,4.52-4.35,13.3,13.3,0,0,1,6.47-1.58,13.57,13.57,0,0,1,5.1.93,10.4,10.4,0,0,1,3.94,2.78l-2.21,2.14a8.87,8.87,0,0,0-6.7-2.82,9.59,9.59,0,0,0-4.79,1.19,8.52,8.52,0,0,0-3.35,3.28,9.64,9.64,0,0,0,0,9.35,8.52,8.52,0,0,0,3.35,3.28,9.6,9.6,0,0,0,4.79,1.2,8.89,8.89,0,0,0,6.7-2.86l2.21,2.14a10.42,10.42,0,0,1-4,2.79,13.3,13.3,0,0,1-5.12.95A13,13,0,0,1,110.16,362Z"/><path class="cls-2" d="M135.72,345.93a9.05,9.05,0,0,1,4.05-.82v3.17a5.11,5.11,0,0,0-.75,0,5.52,5.52,0,0,0-4.17,1.58,6.27,6.27,0,0,0-1.51,4.51v9h-3.27v-18h3.13v3A5.59,5.59,0,0,1,135.72,345.93Z"/><path class="cls-2" d="M160.24,355.39H145.62a5.64,5.64,0,0,0,2.09,3.82,6.79,6.79,0,0,0,4.44,1.45,6.68,6.68,0,0,0,5.2-2.18l1.8,2.11a7.9,7.9,0,0,1-3,2.18,11.43,11.43,0,0,1-9.13-.43,8.26,8.26,0,0,1-3.42-3.28,9.36,9.36,0,0,1-1.21-4.76,9.49,9.49,0,0,1,1.18-4.73,8.29,8.29,0,0,1,3.23-3.28,9.12,9.12,0,0,1,4.64-1.18,9,9,0,0,1,4.61,1.18,8.18,8.18,0,0,1,3.16,3.28,10,10,0,0,1,1.14,4.83A8.39,8.39,0,0,1,160.24,355.39Zm-12.77-6.09a5.76,5.76,0,0,0-1.85,3.74h11.56a5.83,5.83,0,0,0-1.85-3.73,6.1,6.1,0,0,0-7.86,0Z"/><path class="cls-2" d="M177.13,347a7.08,7.08,0,0,1,2,5.48v10.88H176v-2.38a5.22,5.22,0,0,1-2.33,1.92,9,9,0,0,1-3.59.67,7.48,7.48,0,0,1-4.85-1.47,4.68,4.68,0,0,1-1.82-3.84,4.74,4.74,0,0,1,1.74-3.83q1.73-1.44,5.51-1.44h5.17v-.65a4.15,4.15,0,0,0-1.23-3.23,5.14,5.14,0,0,0-3.6-1.12,9.56,9.56,0,0,0-3.13.52,8.42,8.42,0,0,0-2.59,1.41L164,347.43a9.91,9.91,0,0,1,3.33-1.72,13.92,13.92,0,0,1,4.12-.6A8.17,8.17,0,0,1,177.13,347Zm-3.25,13.21a4.75,4.75,0,0,0,2-2.36v-2.52h-5c-2.76,0-4.15.93-4.15,2.79a2.53,2.53,0,0,0,1.06,2.15,4.8,4.8,0,0,0,2.92.78A6,6,0,0,0,173.88,360.16Z"/><path class="cls-2" d="M195.31,362.26a4.8,4.8,0,0,1-1.77.93,7.23,7.23,0,0,1-2.17.33,5.76,5.76,0,0,1-4.22-1.47,5.57,5.57,0,0,1-1.5-4.18V348h-3.06v-2.69h3.06v-3.94h3.27v3.94h5.17V348h-5.17v9.76a3.16,3.16,0,0,0,.73,2.25,2.72,2.72,0,0,0,2.09.78,3.91,3.91,0,0,0,2.55-.85Z"/><path class="cls-2" d="M202.15,362.32A8.52,8.52,0,0,1,198.8,359a9.91,9.91,0,0,1,0-9.49,8.47,8.47,0,0,1,3.35-3.26,9.82,9.82,0,0,1,4.83-1.18,9.69,9.69,0,0,1,4.81,1.18,8.58,8.58,0,0,1,3.34,3.26,10,10,0,0,1,0,9.49,8.63,8.63,0,0,1-3.34,3.28,9.59,9.59,0,0,1-4.81,1.2A9.72,9.72,0,0,1,202.15,362.32Zm7.94-2.46a5.58,5.58,0,0,0,2.16-2.25,7.43,7.43,0,0,0,0-6.63,5.52,5.52,0,0,0-2.16-2.23,6.59,6.59,0,0,0-6.22,0,5.64,5.64,0,0,0-2.18,2.23,7.27,7.27,0,0,0,0,6.63,5.69,5.69,0,0,0,2.18,2.25,6.45,6.45,0,0,0,6.22,0Z"/><path class="cls-2" d="M226.5,345.93a9.05,9.05,0,0,1,4.05-.82v3.17a4.94,4.94,0,0,0-.75,0,5.49,5.49,0,0,0-4.16,1.58,6.28,6.28,0,0,0-1.52,4.51v9h-3.26v-18H224v3A5.52,5.52,0,0,1,226.5,345.93Z"/><path class="cls-2" d="M235.72,362.92a9.39,9.39,0,0,1-3.19-1.51l1.36-2.59a9.56,9.56,0,0,0,2.89,1.36,11.88,11.88,0,0,0,3.43.51c2.86,0,4.29-.81,4.29-2.45a1.58,1.58,0,0,0-.58-1.29,3.7,3.7,0,0,0-1.45-.7c-.57-.14-1.4-.31-2.46-.49a25.49,25.49,0,0,1-3.56-.78,5.61,5.61,0,0,1-2.36-1.5,4.15,4.15,0,0,1-1-3,4.63,4.63,0,0,1,2-3.93,9.2,9.2,0,0,1,5.48-1.48,14.93,14.93,0,0,1,3.61.45,9.67,9.67,0,0,1,3,1.19l-1.4,2.58a9.39,9.39,0,0,0-5.2-1.43,6.07,6.07,0,0,0-3.17.68,2.08,2.08,0,0,0-1.09,1.81,1.71,1.71,0,0,0,.62,1.39,3.9,3.9,0,0,0,1.51.75c.6.16,1.45.34,2.53.54a28.21,28.21,0,0,1,3.53.8,5.31,5.31,0,0,1,2.29,1.45,4,4,0,0,1,.95,2.85,4.49,4.49,0,0,1-2.09,3.9,9.89,9.89,0,0,1-5.7,1.45A15,15,0,0,1,235.72,362.92Z"/><path class="cls-2" d="M254.24,338.53a2.3,2.3,0,0,1,.63,1.65,4.71,4.71,0,0,1-.1,1,10.71,10.71,0,0,1-.44,1.42l-1.63,4.76h-2.15l1.26-5.07a2.1,2.1,0,0,1-1-.8,2.17,2.17,0,0,1-.4-1.31,2.28,2.28,0,0,1,.65-1.67,2.2,2.2,0,0,1,1.63-.64A2.08,2.08,0,0,1,254.24,338.53Z"/><path class="cls-2" d="M273.4,362a11.58,11.58,0,0,1-4.51-4.35,12.78,12.78,0,0,1,0-12.49,11.67,11.67,0,0,1,4.52-4.35,13.3,13.3,0,0,1,6.47-1.58,13.57,13.57,0,0,1,5.1.93,10.48,10.48,0,0,1,3.94,2.78l-2.21,2.14a8.87,8.87,0,0,0-6.7-2.82,9.59,9.59,0,0,0-4.79,1.19,8.61,8.61,0,0,0-3.36,3.28,9.71,9.71,0,0,0,0,9.35,8.61,8.61,0,0,0,3.36,3.28,9.6,9.6,0,0,0,4.79,1.2,8.91,8.91,0,0,0,6.7-2.86l2.21,2.14a10.5,10.5,0,0,1-4,2.79,13.3,13.3,0,0,1-5.12.95A13,13,0,0,1,273.4,362Z"/><path class="cls-2" d="M296.2,362.32a8.59,8.59,0,0,1-3.35-3.28,9.91,9.91,0,0,1,0-9.49,8.54,8.54,0,0,1,3.35-3.26,10.45,10.45,0,0,1,9.65,0,8.62,8.62,0,0,1,3.33,3.26,9.91,9.91,0,0,1,0,9.49,8.67,8.67,0,0,1-3.33,3.28,10.3,10.3,0,0,1-9.65,0Zm7.95-2.46a5.71,5.71,0,0,0,2.16-2.25,7.43,7.43,0,0,0,0-6.63,5.66,5.66,0,0,0-2.16-2.23,6.61,6.61,0,0,0-6.23,0,5.7,5.7,0,0,0-2.18,2.23,7.27,7.27,0,0,0,0,6.63,5.76,5.76,0,0,0,2.18,2.25,6.46,6.46,0,0,0,6.23,0Z"/><path class="cls-2" d="M330,347.1a7.83,7.83,0,0,1,2,5.84v10.37h-3.27v-10a5.59,5.59,0,0,0-1.25-3.95,4.75,4.75,0,0,0-3.61-1.32,5.58,5.58,0,0,0-4.18,1.55,6,6,0,0,0-1.53,4.44v9.28h-3.27v-18H318V348a6.38,6.38,0,0,1,2.67-2.14,9.32,9.32,0,0,1,3.83-.75A7.48,7.48,0,0,1,330,347.1Z"/><path class="cls-2" d="M341.75,343.72v1.56H347V348h-5.17v15.34h-3.27V348h-3.06v-2.69h3.06v-1.6a5.73,5.73,0,0,1,1.57-4.25,5.92,5.92,0,0,1,4.38-1.56,7.52,7.52,0,0,1,2.05.27,5,5,0,0,1,1.63.78l-1,2.49a4.07,4.07,0,0,0-2.52-.86Q341.75,340.55,341.75,343.72Z"/><path class="cls-2" d="M366.31,355.39H351.68a5.68,5.68,0,0,0,2.09,3.82,6.79,6.79,0,0,0,4.44,1.45,6.7,6.7,0,0,0,5.21-2.18l1.8,2.11a8,8,0,0,1-3,2.18,11.45,11.45,0,0,1-9.14-.43,8.38,8.38,0,0,1-3.42-3.28,9.46,9.46,0,0,1-1.2-4.76,9.59,9.59,0,0,1,1.17-4.73,8.35,8.35,0,0,1,3.23-3.28,9.12,9.12,0,0,1,4.64-1.18,8.94,8.94,0,0,1,4.61,1.18,8.21,8.21,0,0,1,3.17,3.28,10,10,0,0,1,1.14,4.83C366.38,354.65,366.35,355,366.31,355.39Zm-12.77-6.09a5.73,5.73,0,0,0-1.86,3.74h11.57a5.8,5.8,0,0,0-1.86-3.73,6.09,6.09,0,0,0-7.85,0Z"/><path class="cls-2" d="M376.55,345.93a9.05,9.05,0,0,1,4.05-.82v3.17a5.11,5.11,0,0,0-.75,0,5.52,5.52,0,0,0-4.17,1.58,6.27,6.27,0,0,0-1.51,4.51v9H370.9v-18H374v3A5.59,5.59,0,0,1,376.55,345.93Z"/><path class="cls-2" d="M401.07,355.39H386.45a5.64,5.64,0,0,0,2.09,3.82,6.79,6.79,0,0,0,4.44,1.45,6.68,6.68,0,0,0,5.2-2.18l1.8,2.11a7.9,7.9,0,0,1-3,2.18,11.43,11.43,0,0,1-9.13-.43,8.26,8.26,0,0,1-3.42-3.28,9.36,9.36,0,0,1-1.21-4.76,9.59,9.59,0,0,1,1.17-4.73,8.38,8.38,0,0,1,3.24-3.28,9.1,9.1,0,0,1,4.64-1.18,9,9,0,0,1,4.61,1.18,8.18,8.18,0,0,1,3.16,3.28,10,10,0,0,1,1.14,4.83A8.39,8.39,0,0,1,401.07,355.39ZM388.3,349.3a5.72,5.72,0,0,0-1.85,3.74H398a5.83,5.83,0,0,0-1.85-3.73,6.1,6.1,0,0,0-7.86,0Z"/><path class="cls-2" d="M420.75,347.1a7.83,7.83,0,0,1,2,5.84v10.37h-3.26v-10a5.54,5.54,0,0,0-1.26-3.95,4.75,4.75,0,0,0-3.61-1.32,5.59,5.59,0,0,0-4.18,1.55,6,6,0,0,0-1.53,4.44v9.28h-3.27v-18h3.13V348a6.38,6.38,0,0,1,2.67-2.14,9.35,9.35,0,0,1,3.83-.75A7.48,7.48,0,0,1,420.75,347.1Z"/><path class="cls-2" d="M431.77,362.32a8.6,8.6,0,0,1-3.38-3.28,9.77,9.77,0,0,1,0-9.49,8.55,8.55,0,0,1,3.38-3.26,10.06,10.06,0,0,1,4.92-1.18,9.41,9.41,0,0,1,4.37,1,7,7,0,0,1,3,2.86l-2.48,1.6a5.5,5.5,0,0,0-2.11-1.94,6,6,0,0,0-2.79-.65,6.46,6.46,0,0,0-3.18.78,5.58,5.58,0,0,0-2.21,2.23,7.35,7.35,0,0,0,0,6.67,5.64,5.64,0,0,0,2.21,2.23,6.46,6.46,0,0,0,3.18.78,6,6,0,0,0,2.79-.65,5.5,5.5,0,0,0,2.11-1.94l2.48,1.57a7.15,7.15,0,0,1-3,2.87,9.29,9.29,0,0,1-4.37,1A10,10,0,0,1,431.77,362.32Z"/><path class="cls-2" d="M464.48,355.39H449.85a5.68,5.68,0,0,0,2.09,3.82,6.79,6.79,0,0,0,4.44,1.45,6.7,6.7,0,0,0,5.21-2.18l1.8,2.11a8,8,0,0,1-3,2.18,11.45,11.45,0,0,1-9.14-.43,8.38,8.38,0,0,1-3.42-3.28,9.46,9.46,0,0,1-1.2-4.76,9.59,9.59,0,0,1,1.17-4.73,8.35,8.35,0,0,1,3.23-3.28,9.12,9.12,0,0,1,4.64-1.18,8.94,8.94,0,0,1,4.61,1.18,8.21,8.21,0,0,1,3.17,3.28,10,10,0,0,1,1.14,4.83C464.55,354.65,464.52,355,464.48,355.39ZM451.7,349.3a5.76,5.76,0,0,0-1.85,3.74h11.57a5.8,5.8,0,0,0-1.86-3.73,6.1,6.1,0,0,0-7.86,0Z"/><path class="cls-2" d="M120.75,405v3H103.64v-2.32l9.7-9.35a11.48,11.48,0,0,0,2.38-2.94,5.58,5.58,0,0,0,.61-2.5,3.51,3.51,0,0,0-1.31-2.91,6,6,0,0,0-3.76-1,7.45,7.45,0,0,0-6.09,2.59l-2.31-2a9.27,9.27,0,0,1,3.66-2.65,12.77,12.77,0,0,1,5-1,9.2,9.2,0,0,1,6,1.79,5.92,5.92,0,0,1,2.21,4.85,8.12,8.12,0,0,1-.82,3.6,14.17,14.17,0,0,1-3.09,3.88l-7.28,7Z"/><path class="cls-2" d="M128.25,406.78a9.67,9.67,0,0,1-3.45-4.2,17.55,17.55,0,0,1,0-13.06,9.67,9.67,0,0,1,3.45-4.2,9.35,9.35,0,0,1,10,0,9.54,9.54,0,0,1,3.45,4.2,17.55,17.55,0,0,1,0,13.06,9.54,9.54,0,0,1-3.45,4.2,9.35,9.35,0,0,1-10,0Zm9.59-3.93q1.72-2.34,1.72-6.8t-1.72-6.8a5.66,5.66,0,0,0-9.18,0q-1.72,2.34-1.72,6.8t1.72,6.8a5.66,5.66,0,0,0,9.18,0Z"/><path class="cls-2" d="M163,405v3h-17.1v-2.32l9.69-9.35a11.48,11.48,0,0,0,2.38-2.94,5.58,5.58,0,0,0,.61-2.5,3.48,3.48,0,0,0-1.31-2.91,5.93,5.93,0,0,0-3.76-1,7.42,7.42,0,0,0-6.08,2.59l-2.32-2a9.27,9.27,0,0,1,3.66-2.65,12.81,12.81,0,0,1,5.05-1,9.18,9.18,0,0,1,5.95,1.79,5.89,5.89,0,0,1,2.21,4.85,8.24,8.24,0,0,1-.81,3.6A14.44,14.44,0,0,1,158,398l-7.28,7Z"/><path class="cls-2" d="M182.49,405v3H165.38v-2.32l9.69-9.35a11.27,11.27,0,0,0,2.38-2.94,5.6,5.6,0,0,0,.62-2.5,3.51,3.51,0,0,0-1.31-2.91,6,6,0,0,0-3.76-1,7.45,7.45,0,0,0-6.09,2.59l-2.31-2a9.3,9.3,0,0,1,3.65-2.65,12.86,12.86,0,0,1,5.06-1,9.22,9.22,0,0,1,5.95,1.79,5.92,5.92,0,0,1,2.21,4.85,8.12,8.12,0,0,1-.82,3.6,14.17,14.17,0,0,1-3.09,3.88l-7.28,7Z"/><path class="cls-2" d="M198.12,407.4a10.74,10.74,0,0,1-3.93-2.16l1.26-2.66a10.38,10.38,0,0,0,3.49,2,12.77,12.77,0,0,0,4.37.77,7.87,7.87,0,0,0,4.42-1,3.08,3.08,0,0,0,1.46-2.67,2.65,2.65,0,0,0-.8-2,5.3,5.3,0,0,0-2-1.17c-.78-.27-1.89-.58-3.32-.92a33.66,33.66,0,0,1-4.33-1.29,7.05,7.05,0,0,1-2.83-2,5.32,5.32,0,0,1-1.17-3.62,6.13,6.13,0,0,1,1-3.44,6.91,6.91,0,0,1,3-2.45,12.37,12.37,0,0,1,5.06-.92,16.14,16.14,0,0,1,4.15.55,11,11,0,0,1,3.51,1.56l-1.12,2.72a12.62,12.62,0,0,0-3.2-1.44,12,12,0,0,0-3.34-.49,7.35,7.35,0,0,0-4.33,1.05,3.21,3.21,0,0,0-1.45,2.72,2.58,2.58,0,0,0,.82,2,5.61,5.61,0,0,0,2,1.19,30.79,30.79,0,0,0,3.29.9,34.36,34.36,0,0,1,4.31,1.29,7.31,7.31,0,0,1,2.81,2,5.19,5.19,0,0,1,1.18,3.57,6.09,6.09,0,0,1-1,3.42,6.84,6.84,0,0,1-3.09,2.45,12.83,12.83,0,0,1-5.1.9A16.44,16.44,0,0,1,198.12,407.4Z"/><path class="cls-2" d="M234.06,386.36a8.31,8.31,0,0,1,0,12.17,11,11,0,0,1-7.28,2.22h-5.89V408h-3.4V384.15h9.29A11,11,0,0,1,234.06,386.36Zm-2.45,10.05a5.47,5.47,0,0,0,0-7.93,7.69,7.69,0,0,0-4.94-1.37h-5.78v10.68h5.78A7.69,7.69,0,0,0,231.61,396.41Z"/><path class="cls-2" d="M258,408l-5.14-7.32c-.63.05-1.13.07-1.49.07h-5.89V408h-3.4V384.15h9.29a11,11,0,0,1,7.27,2.21,7.49,7.49,0,0,1,2.66,6.09,8,8,0,0,1-1.36,4.69A7.71,7.71,0,0,1,256,400l5.65,8Zm-1.8-11.53a5.5,5.5,0,0,0,0-7.95,7.69,7.69,0,0,0-4.94-1.37h-5.78v10.71h5.78A7.63,7.63,0,0,0,256.17,396.43Z"/><path class="cls-2" d="M266.78,384.15h3.4V408h-3.4Z"/><path class="cls-2" d="M297.8,384.15V408H295L280.73,390.2V408h-3.41V384.15h2.79L294.4,401.9V384.15Z"/><path class="cls-2" d="M321.44,395.91h3.27v9.29a12.54,12.54,0,0,1-4.12,2.25,15.42,15.42,0,0,1-4.9.78,13.32,13.32,0,0,1-6.49-1.58,11.78,11.78,0,0,1-4.55-4.36,12,12,0,0,1-1.64-6.24,12.16,12.16,0,0,1,1.64-6.26,11.5,11.5,0,0,1,4.56-4.35,13.64,13.64,0,0,1,6.55-1.57,13.86,13.86,0,0,1,5.19.94,10.6,10.6,0,0,1,4,2.74l-2.11,2.11a9.56,9.56,0,0,0-6.9-2.76,10.06,10.06,0,0,0-4.88,1.17,8.74,8.74,0,0,0-3.39,3.27,9.64,9.64,0,0,0,0,9.39A8.76,8.76,0,0,0,311,404a9.78,9.78,0,0,0,4.84,1.19,10.11,10.11,0,0,0,5.58-1.53Z"/><path class="cls-2" d="M105.56,159.47h9.57v67h-9.57Z"/><path class="cls-2" d="M229.84,159.47l-22.39,67h-10L179.13,173l-18.27,53.48H150.62l-22.38-67h9.85l18.08,54.43L175,159.47h8.8l18.46,54.72,18.47-54.72Z"/><path class="cls-2" d="M254.76,222.75a32.75,32.75,0,0,1-12.68-12.25,35.87,35.87,0,0,1,0-35.11,32.59,32.59,0,0,1,12.73-12.24A37.19,37.19,0,0,1,273,158.7a38,38,0,0,1,14.35,2.63,29.35,29.35,0,0,1,11.1,7.8l-6.22,6a25,25,0,0,0-18.84-7.94,27.32,27.32,0,0,0-13.49,3.35,24.39,24.39,0,0,0-9.43,9.23,27.22,27.22,0,0,0,0,26.31,24.35,24.35,0,0,0,9.43,9.24,27.31,27.31,0,0,0,13.49,3.34,25,25,0,0,0,18.84-8l6.22,6a29.77,29.77,0,0,1-11.14,7.84,37.64,37.64,0,0,1-14.4,2.68A36.92,36.92,0,0,1,254.76,222.75Z"/><path class="cls-2" d="M323.93,222.75a32.75,32.75,0,0,1-12.68-12.25,35.87,35.87,0,0,1,0-35.11A32.63,32.63,0,0,1,324,163.15a37.2,37.2,0,0,1,18.18-4.45,38,38,0,0,1,14.35,2.63,29.35,29.35,0,0,1,11.1,7.8l-6.22,6a25,25,0,0,0-18.85-7.94A27.35,27.35,0,0,0,329,170.56a24.36,24.36,0,0,0-9.42,9.23,27.22,27.22,0,0,0,0,26.31,24.32,24.32,0,0,0,9.42,9.24,27.34,27.34,0,0,0,13.49,3.34,25,25,0,0,0,18.85-8l6.22,6a29.73,29.73,0,0,1-11.15,7.84,37.62,37.62,0,0,1-14.39,2.68A36.92,36.92,0,0,1,323.93,222.75Z"/></svg>