<svg id="レイヤー_1" data-name="レイヤー 1" xmlns="http://www.w3.org/2000/svg" viewBox="0 0 566.93 566.93"><defs><style>.cls-1{fill:#f2a1ad;}.cls-2{fill:#fff;}</style></defs><rect class="cls-1" width="566.93" height="566.93"/><rect class="cls-2" x="377.21" y="178.37" width="4.25" height="170.08" transform="translate(115.93 642.74) rotate(-90)"/><path class="cls-2" d="M176.13,294.86h3.4v23.81h-3.4Z"/><path class="cls-2" d="M214.14,302.44q2,2,2,5.85v10.38h-3.26v-10a5.7,5.7,0,0,0-1.21-3.94,4.42,4.42,0,0,0-3.45-1.33,5.19,5.19,0,0,0-4,1.55,6.24,6.24,0,0,0-1.46,4.44v9.29h-3.27v-10a5.65,5.65,0,0,0-1.21-3.94,4.4,4.4,0,0,0-3.45-1.33,5.17,5.17,0,0,0-3.94,1.55,6.19,6.19,0,0,0-1.47,4.44v9.29H186.2v-18h3.13v2.68a6.45,6.45,0,0,1,2.58-2.12,8.64,8.64,0,0,1,3.64-.73,7.9,7.9,0,0,1,3.74.85,5.86,5.86,0,0,1,2.52,2.48,7,7,0,0,1,2.84-2.45,9.24,9.24,0,0,1,4.1-.88A7.32,7.32,0,0,1,214.14,302.44Z"/><path class="cls-2" d="M234.45,302.3a7.09,7.09,0,0,1,2,5.48v10.89h-3.1v-2.39a5.19,5.19,0,0,1-2.33,1.93,8.9,8.9,0,0,1-3.58.66,7.54,7.54,0,0,1-4.85-1.46,4.69,4.69,0,0,1-1.82-3.85,4.74,4.74,0,0,1,1.73-3.82q1.74-1.46,5.51-1.45h5.17v-.65a4.19,4.19,0,0,0-1.22-3.23,5.17,5.17,0,0,0-3.61-1.12,9.62,9.62,0,0,0-3.13.53,8,8,0,0,0-2.58,1.41l-1.36-2.45a9.91,9.91,0,0,1,3.33-1.72,14.2,14.2,0,0,1,4.12-.59A8.18,8.18,0,0,1,234.45,302.3Zm-3.25,13.22a4.77,4.77,0,0,0,2-2.36v-2.52h-5q-4.15,0-4.15,2.79a2.53,2.53,0,0,0,1,2.14,4.86,4.86,0,0,0,2.93.78A6.11,6.11,0,0,0,231.2,315.52Z"/><path class="cls-2" d="M259.74,300.64v15.58q0,4.72-2.35,7c-1.56,1.5-3.9,2.26-7,2.26a16.58,16.58,0,0,1-4.87-.7,9.58,9.58,0,0,1-3.74-2l1.56-2.52a9.18,9.18,0,0,0,3.12,1.72,11.77,11.77,0,0,0,3.82.63,6.42,6.42,0,0,0,4.68-1.5,6.12,6.12,0,0,0,1.51-4.55v-1.43a7.11,7.11,0,0,1-2.84,2.09,9.35,9.35,0,0,1-3.65.7,9.8,9.8,0,0,1-4.68-1.11,8.21,8.21,0,0,1-3.28-3.09,9.27,9.27,0,0,1,0-9.09,8,8,0,0,1,3.28-3.07,9.91,9.91,0,0,1,4.68-1.09,9.53,9.53,0,0,1,3.79.75,6.84,6.84,0,0,1,2.87,2.21v-2.79Zm-6.21,13.67a5.5,5.5,0,0,0,2.21-2.09,5.87,5.87,0,0,0,.8-3,5.55,5.55,0,0,0-1.73-4.24,7,7,0,0,0-8.95,0,5.51,5.51,0,0,0-1.73,4.24,5.78,5.78,0,0,0,.8,3,5.43,5.43,0,0,0,2.21,2.09,7.18,7.18,0,0,0,6.39,0Z"/><path class="cls-2" d="M266,296.56a2,2,0,0,1-.62-1.5,2.07,2.07,0,0,1,.62-1.52,2.38,2.38,0,0,1,3.17,0,2,2,0,0,1,.63,1.48,2.11,2.11,0,0,1-.63,1.55,2.15,2.15,0,0,1-1.58.63A2.22,2.22,0,0,1,266,296.56Zm-.05,4.08h3.27v18H266Z"/><path class="cls-2" d="M290.54,302.46a7.81,7.81,0,0,1,2,5.83v10.38H289.3v-10a5.52,5.52,0,0,0-1.26-3.94,4.72,4.72,0,0,0-3.61-1.33,5.63,5.63,0,0,0-4.18,1.55,6,6,0,0,0-1.53,4.44v9.29h-3.27v-18h3.13v2.72a6.3,6.3,0,0,1,2.67-2.14,9.35,9.35,0,0,1,3.83-.75A7.44,7.44,0,0,1,290.54,302.46Z"/><path class="cls-2" d="M310.92,302.3a7.13,7.13,0,0,1,2,5.48v10.89h-3.1v-2.39a5.19,5.19,0,0,1-2.33,1.93,9,9,0,0,1-3.59.66,7.56,7.56,0,0,1-4.85-1.46,5,5,0,0,1-.08-7.67c1.16-1,3-1.45,5.51-1.45h5.17v-.65a4.19,4.19,0,0,0-1.22-3.23,5.17,5.17,0,0,0-3.61-1.12,9.57,9.57,0,0,0-3.13.53,8.13,8.13,0,0,0-2.59,1.41l-1.36-2.45a10,10,0,0,1,3.34-1.72,14.13,14.13,0,0,1,4.11-.59A8.19,8.19,0,0,1,310.92,302.3Zm-3.25,13.22a4.82,4.82,0,0,0,2-2.36v-2.52h-5q-4.16,0-4.15,2.79a2.53,2.53,0,0,0,1.05,2.14,4.84,4.84,0,0,0,2.93.78A6.14,6.14,0,0,0,307.67,315.52Z"/><path class="cls-2" d="M324.61,301.28a9.18,9.18,0,0,1,4-.81v3.16a7.12,7.12,0,0,0-.74,0,5.48,5.48,0,0,0-4.17,1.58,6.26,6.26,0,0,0-1.51,4.51v9H319v-18h3.13v3A5.64,5.64,0,0,1,324.61,301.28Z"/><path class="cls-2" d="M348.86,300.64l-8.74,19.83a9,9,0,0,1-2.71,3.88,6.21,6.21,0,0,1-3.72,1.12,7.7,7.7,0,0,1-2.57-.43,5.19,5.19,0,0,1-2.06-1.24l1.4-2.45a4.51,4.51,0,0,0,3.23,1.33,3.12,3.12,0,0,0,2-.63,5.39,5.39,0,0,0,1.44-2.16l.58-1.26-8-18h3.4l6.3,14.42,6.22-14.42Z"/><path class="cls-2" d="M395.19,294.86l-8,23.81h-3.57l-6.5-19-6.5,19H367l-8-23.81h3.51L369,314.21l6.7-19.35h3.13l6.56,19.45L392,294.86Z"/><path class="cls-2" d="M402.26,317.68a8.73,8.73,0,0,1-3.35-3.28,10,10,0,0,1,0-9.49,8.56,8.56,0,0,1,3.35-3.27,10.53,10.53,0,0,1,9.65,0,8.51,8.51,0,0,1,3.33,3.27,9.91,9.91,0,0,1,0,9.49,8.67,8.67,0,0,1-3.33,3.28,10.38,10.38,0,0,1-9.65,0Zm7.95-2.47a5.68,5.68,0,0,0,2.16-2.24,7.46,7.46,0,0,0,0-6.64,5.56,5.56,0,0,0-2.16-2.22,6.54,6.54,0,0,0-6.23,0,5.68,5.68,0,0,0-2.18,2.22,7.37,7.37,0,0,0,0,6.64,5.8,5.8,0,0,0,2.18,2.24,6.46,6.46,0,0,0,6.23,0Z"/><path class="cls-2" d="M426.62,301.28a9.2,9.2,0,0,1,4.05-.81v3.16a7.2,7.2,0,0,0-.75,0,5.48,5.48,0,0,0-4.17,1.58,6.26,6.26,0,0,0-1.51,4.51v9H421v-18h3.13v3A5.64,5.64,0,0,1,426.62,301.28Z"/><path class="cls-2" d="M434.92,293.43h3.26v25.24h-3.26Z"/><path class="cls-2" d="M461.42,293.43v25.24h-3.13v-2.86a7.09,7.09,0,0,1-2.76,2.28,8.53,8.53,0,0,1-3.67.78,9.52,9.52,0,0,1-4.7-1.16,8.23,8.23,0,0,1-3.24-3.25,10.35,10.35,0,0,1,0-9.6,8.34,8.34,0,0,1,3.24-3.24,9.51,9.51,0,0,1,4.7-1.15,8.6,8.6,0,0,1,3.57.73,6.92,6.92,0,0,1,2.72,2.16v-9.93Zm-6.19,21.78A5.57,5.57,0,0,0,457.4,313a7.37,7.37,0,0,0,0-6.64,5.46,5.46,0,0,0-2.17-2.22,6.27,6.27,0,0,0-3.1-.79,6.2,6.2,0,0,0-3.11.79,5.61,5.61,0,0,0-2.18,2.22,7.29,7.29,0,0,0,0,6.64,5.73,5.73,0,0,0,2.18,2.24,6,6,0,0,0,3.11.8A6.07,6.07,0,0,0,455.23,315.21Z"/><path class="cls-2" d="M108.69,362a11.55,11.55,0,0,1-4.5-4.35,12.71,12.71,0,0,1,0-12.49,11.54,11.54,0,0,1,4.52-4.35,13.29,13.29,0,0,1,6.46-1.58,13.54,13.54,0,0,1,5.1.93,10.44,10.44,0,0,1,4,2.78L122,345.08a8.88,8.88,0,0,0-6.7-2.82,9.65,9.65,0,0,0-4.8,1.19,8.59,8.59,0,0,0-3.35,3.28,9.64,9.64,0,0,0,0,9.35,8.59,8.59,0,0,0,3.35,3.28,9.66,9.66,0,0,0,4.8,1.2,8.91,8.91,0,0,0,6.7-2.86l2.21,2.14a10.5,10.5,0,0,1-4,2.79,13.33,13.33,0,0,1-5.12.95A13.11,13.11,0,0,1,108.69,362Z"/><path class="cls-2" d="M134.26,345.93a9,9,0,0,1,4-.82v3.17a4.94,4.94,0,0,0-.75,0,5.51,5.51,0,0,0-4.16,1.58,6.28,6.28,0,0,0-1.52,4.51v9h-3.26v-18h3.13v3A5.49,5.49,0,0,1,134.26,345.93Z"/><path class="cls-2" d="M158.78,355.39H144.15a5.65,5.65,0,0,0,2.1,3.82,6.79,6.79,0,0,0,4.43,1.45,6.7,6.7,0,0,0,5.21-2.18l1.8,2.11a7.9,7.9,0,0,1-3,2.18,11.45,11.45,0,0,1-9.14-.43,8.38,8.38,0,0,1-3.42-3.28,9.46,9.46,0,0,1-1.2-4.76,9.59,9.59,0,0,1,1.17-4.73,8.35,8.35,0,0,1,3.23-3.28,9.14,9.14,0,0,1,4.65-1.18,9,9,0,0,1,4.61,1.18,8.25,8.25,0,0,1,3.16,3.28,10,10,0,0,1,1.14,4.83A8.39,8.39,0,0,1,158.78,355.39ZM146,349.3a5.73,5.73,0,0,0-1.86,3.74h11.57a5.8,5.8,0,0,0-1.86-3.73,6.09,6.09,0,0,0-7.85,0Z"/><path class="cls-2" d="M175.67,347a7.08,7.08,0,0,1,2,5.48v10.88h-3.1v-2.38a5.11,5.11,0,0,1-2.33,1.92,8.91,8.91,0,0,1-3.59.67,7.47,7.47,0,0,1-4.84-1.47,4.66,4.66,0,0,1-1.82-3.84,4.76,4.76,0,0,1,1.73-3.83q1.74-1.44,5.51-1.44h5.17v-.65a4.18,4.18,0,0,0-1.22-3.23,5.17,5.17,0,0,0-3.61-1.12,9.6,9.6,0,0,0-3.13.52,8.36,8.36,0,0,0-2.58,1.41l-1.36-2.44a9.91,9.91,0,0,1,3.33-1.72,13.87,13.87,0,0,1,4.12-.6A8.19,8.19,0,0,1,175.67,347Zm-3.25,13.21a4.73,4.73,0,0,0,2-2.36v-2.52h-5q-4.16,0-4.15,2.79a2.55,2.55,0,0,0,1,2.15,4.86,4.86,0,0,0,2.93.78A6,6,0,0,0,172.42,360.16Z"/><path class="cls-2" d="M193.85,362.26a5,5,0,0,1-1.77.93,7.24,7.24,0,0,1-2.18.33,5.74,5.74,0,0,1-4.21-1.47,5.57,5.57,0,0,1-1.5-4.18V348h-3.06v-2.69h3.06v-3.94h3.26v3.94h5.18V348h-5.18v9.76a3.16,3.16,0,0,0,.74,2.25,2.71,2.71,0,0,0,2.09.78,3.91,3.91,0,0,0,2.55-.85Z"/><path class="cls-2" d="M200.69,362.32a8.52,8.52,0,0,1-3.35-3.28,9.91,9.91,0,0,1,0-9.49,8.47,8.47,0,0,1,3.35-3.26,10.43,10.43,0,0,1,9.64,0,8.49,8.49,0,0,1,3.33,3.26,9.91,9.91,0,0,1,0,9.49,8.54,8.54,0,0,1-3.33,3.28,10.28,10.28,0,0,1-9.64,0Zm7.94-2.46a5.58,5.58,0,0,0,2.16-2.25,7.43,7.43,0,0,0,0-6.63,5.52,5.52,0,0,0-2.16-2.23,6.61,6.61,0,0,0-6.23,0,5.68,5.68,0,0,0-2.17,2.23,7.27,7.27,0,0,0,0,6.63,5.73,5.73,0,0,0,2.17,2.25,6.46,6.46,0,0,0,6.23,0Z"/><path class="cls-2" d="M225,345.93a9.05,9.05,0,0,1,4.05-.82v3.17a4.94,4.94,0,0,0-.75,0,5.52,5.52,0,0,0-4.17,1.58,6.27,6.27,0,0,0-1.51,4.51v9h-3.27v-18h3.13v3A5.59,5.59,0,0,1,225,345.93Z"/><path class="cls-2" d="M234.26,362.92a9.45,9.45,0,0,1-3.2-1.51l1.36-2.59a9.8,9.8,0,0,0,2.89,1.36,12,12,0,0,0,3.44.51c2.86,0,4.29-.81,4.29-2.45a1.61,1.61,0,0,0-.58-1.29,3.7,3.7,0,0,0-1.45-.7c-.58-.14-1.4-.31-2.46-.49A25.17,25.17,0,0,1,235,355a5.49,5.49,0,0,1-2.36-1.5,4.15,4.15,0,0,1-1-3,4.63,4.63,0,0,1,2-3.93,9.2,9.2,0,0,1,5.48-1.48,14.79,14.79,0,0,1,3.6.45,9.46,9.46,0,0,1,3,1.19l-1.39,2.58a9.42,9.42,0,0,0-5.21-1.43,6.06,6.06,0,0,0-3.16.68,2.06,2.06,0,0,0-1.09,1.81,1.73,1.73,0,0,0,.61,1.39,3.94,3.94,0,0,0,1.52.75c.6.16,1.44.34,2.53.54a28,28,0,0,1,3.52.8,5.35,5.35,0,0,1,2.3,1.45,4,4,0,0,1,1,2.85,4.51,4.51,0,0,1-2.09,3.9,9.94,9.94,0,0,1-5.7,1.45A15,15,0,0,1,234.26,362.92Z"/><path class="cls-2" d="M252.78,338.53a2.3,2.3,0,0,1,.63,1.65,4.71,4.71,0,0,1-.1,1,12.5,12.5,0,0,1-.44,1.42l-1.64,4.76h-2.14l1.26-5.07a2.18,2.18,0,0,1-1-.8,2.23,2.23,0,0,1-.39-1.31,2.28,2.28,0,0,1,.65-1.67,2.2,2.2,0,0,1,1.63-.64A2.1,2.1,0,0,1,252.78,338.53Z"/><path class="cls-2" d="M271.93,362a11.55,11.55,0,0,1-4.5-4.35,12.71,12.71,0,0,1,0-12.49,11.54,11.54,0,0,1,4.52-4.35,13.29,13.29,0,0,1,6.46-1.58,13.54,13.54,0,0,1,5.1.93,10.44,10.44,0,0,1,3.95,2.78l-2.21,2.14a8.88,8.88,0,0,0-6.7-2.82,9.65,9.65,0,0,0-4.8,1.19,8.59,8.59,0,0,0-3.35,3.28,9.64,9.64,0,0,0,0,9.35,8.59,8.59,0,0,0,3.35,3.28,9.66,9.66,0,0,0,4.8,1.2,8.92,8.92,0,0,0,6.7-2.86l2.21,2.14a10.5,10.5,0,0,1-4,2.79,13.33,13.33,0,0,1-5.12.95A13.11,13.11,0,0,1,271.93,362Z"/><path class="cls-2" d="M294.74,362.32a8.52,8.52,0,0,1-3.35-3.28,9.91,9.91,0,0,1,0-9.49,8.47,8.47,0,0,1,3.35-3.26,9.82,9.82,0,0,1,4.83-1.18,9.69,9.69,0,0,1,4.81,1.18,8.58,8.58,0,0,1,3.34,3.26,10,10,0,0,1,0,9.49,8.63,8.63,0,0,1-3.34,3.28,9.59,9.59,0,0,1-4.81,1.2A9.72,9.72,0,0,1,294.74,362.32Zm7.94-2.46a5.58,5.58,0,0,0,2.16-2.25,7.43,7.43,0,0,0,0-6.63,5.52,5.52,0,0,0-2.16-2.23,6.59,6.59,0,0,0-6.22,0,5.64,5.64,0,0,0-2.18,2.23,7.27,7.27,0,0,0,0,6.63,5.69,5.69,0,0,0,2.18,2.25,6.45,6.45,0,0,0,6.22,0Z"/><path class="cls-2" d="M328.53,347.1a7.84,7.84,0,0,1,2,5.84v10.37h-3.27v-10a5.54,5.54,0,0,0-1.26-3.95,4.74,4.74,0,0,0-3.6-1.32,5.6,5.6,0,0,0-4.19,1.55,6,6,0,0,0-1.53,4.44v9.28h-3.26v-18h3.13V348a6.26,6.26,0,0,1,2.67-2.14,9.27,9.27,0,0,1,3.82-.75A7.48,7.48,0,0,1,328.53,347.1Z"/><path class="cls-2" d="M340.29,343.72v1.56h5.23V348h-5.17v15.34h-3.26V348H334v-2.69h3.06v-1.6a5.76,5.76,0,0,1,1.56-4.25,6,6,0,0,1,4.39-1.56,7.4,7.4,0,0,1,2,.27,5,5,0,0,1,1.64.78l-1,2.49a4.07,4.07,0,0,0-2.52-.86Q340.29,340.55,340.29,343.72Z"/><path class="cls-2" d="M364.85,355.39H350.22a5.64,5.64,0,0,0,2.09,3.82,6.79,6.79,0,0,0,4.44,1.45,6.68,6.68,0,0,0,5.2-2.18l1.81,2.11a7.94,7.94,0,0,1-3.05,2.18,11.43,11.43,0,0,1-9.13-.43,8.32,8.32,0,0,1-3.42-3.28,10,10,0,0,1,0-9.49,8.35,8.35,0,0,1,3.23-3.28,9.12,9.12,0,0,1,4.64-1.18,9,9,0,0,1,4.61,1.18,8.18,8.18,0,0,1,3.16,3.28,10,10,0,0,1,1.14,4.83Q364.91,354.78,364.85,355.39Zm-12.78-6.09a5.76,5.76,0,0,0-1.85,3.74h11.56a5.83,5.83,0,0,0-1.85-3.73,6.1,6.1,0,0,0-7.86,0Z"/><path class="cls-2" d="M375.08,345.93a9.05,9.05,0,0,1,4.05-.82v3.17a4.94,4.94,0,0,0-.75,0,5.49,5.49,0,0,0-4.16,1.58,6.28,6.28,0,0,0-1.52,4.51v9h-3.26v-18h3.13v3A5.52,5.52,0,0,1,375.08,345.93Z"/><path class="cls-2" d="M399.61,355.39H385a5.68,5.68,0,0,0,2.09,3.82,6.79,6.79,0,0,0,4.44,1.45,6.7,6.7,0,0,0,5.21-2.18l1.8,2.11a8,8,0,0,1-3,2.18,11.45,11.45,0,0,1-9.14-.43,8.38,8.38,0,0,1-3.42-3.28,9.46,9.46,0,0,1-1.2-4.76,9.59,9.59,0,0,1,1.17-4.73,8.35,8.35,0,0,1,3.23-3.28,9.12,9.12,0,0,1,4.64-1.18,8.94,8.94,0,0,1,4.61,1.18,8.21,8.21,0,0,1,3.17,3.28,10,10,0,0,1,1.14,4.83C399.68,354.65,399.65,355,399.61,355.39Zm-12.77-6.09A5.73,5.73,0,0,0,385,353h11.57a5.8,5.8,0,0,0-1.86-3.73,6.09,6.09,0,0,0-7.85,0Z"/><path class="cls-2" d="M419.29,347.1a7.83,7.83,0,0,1,2,5.84v10.37h-3.26v-10a5.54,5.54,0,0,0-1.26-3.95,4.75,4.75,0,0,0-3.61-1.32,5.58,5.58,0,0,0-4.18,1.55,6,6,0,0,0-1.53,4.44v9.28H404.2v-18h3.13V348a6.38,6.38,0,0,1,2.67-2.14,9.32,9.32,0,0,1,3.83-.75A7.48,7.48,0,0,1,419.29,347.1Z"/><path class="cls-2" d="M430.31,362.32a8.69,8.69,0,0,1-3.39-3.28,9.84,9.84,0,0,1,0-9.49,8.64,8.64,0,0,1,3.39-3.26,10,10,0,0,1,4.91-1.18,9.38,9.38,0,0,1,4.37,1,7,7,0,0,1,3,2.86l-2.48,1.6a5.5,5.5,0,0,0-2.11-1.94,6,6,0,0,0-2.79-.65,6.46,6.46,0,0,0-3.18.78A5.58,5.58,0,0,0,429.8,351a7.35,7.35,0,0,0,0,6.67,5.64,5.64,0,0,0,2.21,2.23,6.46,6.46,0,0,0,3.18.78A6,6,0,0,0,438,360a5.5,5.5,0,0,0,2.11-1.94l2.48,1.57a7.11,7.11,0,0,1-3,2.87,9.27,9.27,0,0,1-4.37,1A10,10,0,0,1,430.31,362.32Z"/><path class="cls-2" d="M463,355.39H448.39a5.64,5.64,0,0,0,2.09,3.82,6.79,6.79,0,0,0,4.44,1.45,6.68,6.68,0,0,0,5.2-2.18l1.81,2.11a8,8,0,0,1-3.05,2.18,11.43,11.43,0,0,1-9.13-.43,8.26,8.26,0,0,1-3.42-3.28,9.36,9.36,0,0,1-1.21-4.76,9.49,9.49,0,0,1,1.18-4.73,8.29,8.29,0,0,1,3.23-3.28,9.12,9.12,0,0,1,4.64-1.18,9,9,0,0,1,4.61,1.18,8.18,8.18,0,0,1,3.16,3.28,10,10,0,0,1,1.14,4.83A8.39,8.39,0,0,1,463,355.39Zm-12.77-6.09a5.76,5.76,0,0,0-1.85,3.74H460a5.83,5.83,0,0,0-1.85-3.73,6.1,6.1,0,0,0-7.86,0Z"/><path class="cls-2" d="M257.63,405v3H240.52v-2.32l9.7-9.35a11.71,11.71,0,0,0,2.38-2.94,5.72,5.72,0,0,0,.61-2.5,3.51,3.51,0,0,0-1.31-2.91,6,6,0,0,0-3.76-1,7.45,7.45,0,0,0-6.09,2.59l-2.31-2a9.3,9.3,0,0,1,3.65-2.65,12.86,12.86,0,0,1,5.06-1,9.2,9.2,0,0,1,6,1.79,5.92,5.92,0,0,1,2.21,4.85,8.12,8.12,0,0,1-.82,3.6A14.17,14.17,0,0,1,252.7,398l-7.28,7Z"/><path class="cls-2" d="M265.13,406.78a9.67,9.67,0,0,1-3.45-4.2,17.55,17.55,0,0,1,0-13.06,9.67,9.67,0,0,1,3.45-4.2,9.35,9.35,0,0,1,10,0,9.67,9.67,0,0,1,3.45,4.2,17.55,17.55,0,0,1,0,13.06,9.67,9.67,0,0,1-3.45,4.2,9.35,9.35,0,0,1-10,0Zm9.59-3.93q1.72-2.34,1.72-6.8t-1.72-6.8a5.66,5.66,0,0,0-9.18,0q-1.73,2.34-1.72,6.8t1.72,6.8a5.66,5.66,0,0,0,9.18,0Z"/><path class="cls-2" d="M299.84,405v3H282.73v-2.32l9.7-9.35a11.48,11.48,0,0,0,2.38-2.94,5.58,5.58,0,0,0,.61-2.5,3.51,3.51,0,0,0-1.31-2.91,5.93,5.93,0,0,0-3.76-1,7.45,7.45,0,0,0-6.09,2.59l-2.31-2a9.27,9.27,0,0,1,3.66-2.65,12.81,12.81,0,0,1,5.05-1,9.2,9.2,0,0,1,5.95,1.79,5.89,5.89,0,0,1,2.21,4.85,8.24,8.24,0,0,1-.81,3.6,14.44,14.44,0,0,1-3.1,3.88l-7.28,7Z"/><path class="cls-2" d="M319.37,405v3H302.26v-2.32l9.69-9.35a11.27,11.27,0,0,0,2.38-2.94,5.6,5.6,0,0,0,.62-2.5,3.51,3.51,0,0,0-1.31-2.91,6,6,0,0,0-3.76-1,7.45,7.45,0,0,0-6.09,2.59l-2.31-2a9.23,9.23,0,0,1,3.65-2.65,12.81,12.81,0,0,1,5.05-1,9.23,9.23,0,0,1,6,1.79,5.92,5.92,0,0,1,2.21,4.85,8.12,8.12,0,0,1-.82,3.6,14.37,14.37,0,0,1-3.09,3.88l-7.28,7Z"/><path class="cls-2" d="M335,407.4a10.74,10.74,0,0,1-3.93-2.16l1.26-2.66a10.33,10.33,0,0,0,3.48,2,12.86,12.86,0,0,0,4.37.77,7.88,7.88,0,0,0,4.43-1,3.08,3.08,0,0,0,1.46-2.67,2.65,2.65,0,0,0-.8-2,5.3,5.3,0,0,0-2-1.17c-.79-.27-1.89-.58-3.32-.92a34.38,34.38,0,0,1-4.34-1.29,7.09,7.09,0,0,1-2.82-2,5.32,5.32,0,0,1-1.17-3.62,6.13,6.13,0,0,1,1-3.44,6.88,6.88,0,0,1,3-2.45,12.42,12.42,0,0,1,5.07-.92,16.14,16.14,0,0,1,4.15.55,11.07,11.07,0,0,1,3.51,1.56l-1.13,2.72a12.4,12.4,0,0,0-3.19-1.44,12,12,0,0,0-3.34-.49,7.35,7.35,0,0,0-4.33,1.05,3.21,3.21,0,0,0-1.45,2.72,2.58,2.58,0,0,0,.82,2,5.61,5.61,0,0,0,2,1.19,31.18,31.18,0,0,0,3.28.9,34.59,34.59,0,0,1,4.32,1.29,7.31,7.31,0,0,1,2.81,2,5.19,5.19,0,0,1,1.17,3.57,6.08,6.08,0,0,1-1,3.42,6.84,6.84,0,0,1-3.09,2.45,12.88,12.88,0,0,1-5.11.9A16.38,16.38,0,0,1,335,407.4Z"/><path class="cls-2" d="M370.93,386.36a8.29,8.29,0,0,1,0,12.17,11,11,0,0,1-7.27,2.22h-5.89V408h-3.4V384.15h9.29A11,11,0,0,1,370.93,386.36Zm-2.44,10.05a5.47,5.47,0,0,0,0-7.93,7.69,7.69,0,0,0-4.94-1.37h-5.78v10.68h5.78A7.69,7.69,0,0,0,368.49,396.41Z"/><path class="cls-2" d="M394.85,408l-5.14-7.32c-.63.05-1.13.07-1.5.07h-5.88V408h-3.4V384.15h9.28a11,11,0,0,1,7.28,2.21,7.49,7.49,0,0,1,2.66,6.09,8,8,0,0,1-1.36,4.69,7.71,7.71,0,0,1-3.88,2.82l5.64,8ZM393,396.43a5.5,5.5,0,0,0,0-7.95,7.64,7.64,0,0,0-4.93-1.37h-5.78v10.71h5.78A7.58,7.58,0,0,0,393,396.43Z"/><path class="cls-2" d="M403.66,384.15h3.4V408h-3.4Z"/><path class="cls-2" d="M434.68,384.15V408h-2.79L417.6,390.2V408h-3.4V384.15H417l14.29,17.75V384.15Z"/><path class="cls-2" d="M458.32,395.91h3.27v9.29a12.64,12.64,0,0,1-4.12,2.25,15.42,15.42,0,0,1-4.9.78,13.39,13.39,0,0,1-6.5-1.58,11.82,11.82,0,0,1-4.54-4.36,12,12,0,0,1-1.65-6.24,12.07,12.07,0,0,1,1.65-6.26,11.5,11.5,0,0,1,4.56-4.35,13.64,13.64,0,0,1,6.55-1.57,13.9,13.9,0,0,1,5.19.94,10.6,10.6,0,0,1,4,2.74l-2.11,2.11a9.57,9.57,0,0,0-6.9-2.76,10.1,10.1,0,0,0-4.89,1.17,8.71,8.71,0,0,0-3.38,3.27,9.64,9.64,0,0,0,0,9.39,8.74,8.74,0,0,0,3.38,3.28,9.82,9.82,0,0,0,4.85,1.19,10.11,10.11,0,0,0,5.58-1.53Z"/><path class="cls-2" d="M202.34,159.47h9.56v67h-9.56Z"/><path class="cls-2" d="M326.61,159.47l-22.38,67H294.18L275.91,173l-18.28,53.48H247.4l-22.39-67h9.86L253,213.9l18.84-54.43h8.8l18.47,54.72,18.46-54.72Z"/><path class="cls-2" d="M351.53,222.75a32.73,32.73,0,0,1-12.67-12.25,35.87,35.87,0,0,1,0-35.11,32.63,32.63,0,0,1,12.72-12.24,37.2,37.2,0,0,1,18.18-4.45,38,38,0,0,1,14.35,2.63,29.35,29.35,0,0,1,11.1,7.8l-6.22,6a25,25,0,0,0-18.85-7.94,27.35,27.35,0,0,0-13.49,3.35,24.3,24.3,0,0,0-9.42,9.23,27.15,27.15,0,0,0,0,26.31,24.25,24.25,0,0,0,9.42,9.24,27.34,27.34,0,0,0,13.49,3.34,25,25,0,0,0,18.85-8l6.22,6a29.73,29.73,0,0,1-11.15,7.84,37.64,37.64,0,0,1-14.4,2.68A37,37,0,0,1,351.53,222.75Z"/><path class="cls-2" d="M420.7,222.75A32.73,32.73,0,0,1,408,210.5a35.8,35.8,0,0,1,0-35.11,32.63,32.63,0,0,1,12.72-12.24,37.2,37.2,0,0,1,18.18-4.45,38,38,0,0,1,14.35,2.63,29.51,29.51,0,0,1,11.1,7.8l-6.22,6a25,25,0,0,0-18.85-7.94,27.32,27.32,0,0,0-13.49,3.35,24.3,24.3,0,0,0-9.42,9.23,27.15,27.15,0,0,0,0,26.31,24.25,24.25,0,0,0,9.42,9.24,27.31,27.31,0,0,0,13.49,3.34,25,25,0,0,0,18.85-8l6.22,6a29.8,29.8,0,0,1-11.15,7.84,37.64,37.64,0,0,1-14.4,2.68A36.92,36.92,0,0,1,420.7,222.75Z"/></svg>