<?xml version="1.0" encoding="UTF-8" standalone="no"?>
<svg
   width="850.39001"
   height="283.45999"
   viewBox="0 0 224.99902 74.998789"
   version="1.1"
   id="svg8"
   xmlns="http://www.w3.org/2000/svg"
   xmlns:svg="http://www.w3.org/2000/svg"
   xmlns:rdf="http://www.w3.org/1999/02/22-rdf-syntax-ns#"
   xmlns:cc="http://creativecommons.org/ns#"
   xmlns:dc="http://purl.org/dc/elements/1.1/">
  <defs
     id="defs2" />
  <metadata
     id="metadata5">
    <rdf:RDF>
      <cc:Work
         rdf:about="">
        <dc:format>image/svg+xml</dc:format>
        <dc:type
           rdf:resource="http://purl.org/dc/dcmitype/StillImage" />
      </cc:Work>
    </rdf:RDF>
  </metadata>
  <path
     id="rect1102"
     style="fill:#3399ff;stroke-width:1.85208;stroke-linecap:round;fill-opacity:1"
     d="M -1e-6,0 H 224.99902 V 74.99879 H -1e-6 Z" />
  <path
     id="path833"
     style="font-style:normal;font-variant:normal;font-weight:500;font-stretch:normal;font-size:12.7px;line-height:1.25;font-family:Montserrat;-inkscape-font-specification:'Montserrat Medium';letter-spacing:0.105833px;fill:#ffffff;fill-opacity:1;stroke:none;stroke-width:0.264583"
     d="m 103.28517,22.49884 v 30.00111 h 0.74889 V 22.49884 Z m 25.86433,4.83113 a 0.37835518,0.37835518 0 0 0 -0.26044,0.11123 0.36512597,0.36512597 0 0 0 -0.11124,0.26477 0.35189677,0.35189677 0 0 0 0.11124,0.26452 0.38629269,0.38629269 0 0 0 0.28038,0.10572 0.37570934,0.37570934 0 0 0 0.27774,-0.111 0.37041765,0.37041765 0 0 0 0.11124,-0.26453 0.3466051,0.3466051 0 0 0 -0.11124,-0.26476 0.39423022,0.39423022 0 0 0 -0.27774,-0.10572 0.37835518,0.37835518 0 0 0 -0.0199,-2.3e-4 z m 29.53957,0.0874 v 4.45295 h 0.57686 v -4.45295 z m 4.0904,0 v 1.75413 a 1.1985657,1.1985657 0 0 0 -0.47883,-0.38082 1.508129,1.508129 0 0 0 -0.62972,-0.12973 1.6774628,1.6774628 0 0 0 -0.82818,0.20374 1.4657956,1.4657956 0 0 0 -0.57397,0.56893 1.8520883,1.8520883 0 0 0 0,1.69598 1.4790247,1.4790247 0 0 0 0.57397,0.57398 1.6774628,1.6774628 0 0 0 0.82818,0.20374 1.5001915,1.5001915 0 0 0 0.64822,-0.14007 1.2250241,1.2250241 0 0 0 0.48435,-0.39955 v 0.50262 h 0.55284 v -4.45295 z m -49.74436,0.25395 v 4.199 h 0.60065 v -4.199 z m 32.26866,0 1.40239,4.199 h 0.64294 l 1.14555,-3.35497 1.14579,3.35497 h 0.62972 l 1.40479,-4.199 h -0.57157 l -1.15612,3.43978 -1.15878,-3.43978 h -0.55307 l -1.18015,3.41311 -1.13498,-3.41311 z m -22.9214,0.97425 a 1.4446289,1.4446289 0 0 0 -0.0709,0.002 2.4315273,2.4315273 0 0 0 -0.72774,0.10571 1.7145045,1.7145045 0 0 0 -0.58719,0.30176 l 0.24074,0.43127 a 1.4684414,1.4684414 0 0 1 0.45505,-0.24867 1.7197963,1.7197963 0 0 1 0.55307,-0.0927 0.90487745,0.90487745 0 0 1 0.63501,0.19846 0.73025194,0.73025194 0 0 1 0.21695,0.56893 v 0.11364 h -0.91298 a 1.492254,1.492254 0 0 0 -0.97089,0.26476 0.88635654,0.88635654 0 0 0 0.0132,1.35194 1.3229202,1.3229202 0 0 0 0.85724,0.26452 1.5398792,1.5398792 0 0 0 0.63237,-0.11892 0.89958576,0.89958576 0 0 0 0.41012,-0.33877 v 0.4207 h 0.54755 v -1.92087 a 1.2594201,1.2594201 0 0 0 -0.35174,-0.9656 1.4446289,1.4446289 0 0 0 -0.9399,-0.33829 z m 13.48861,0 a 1.4499205,1.4499205 0 0 0 -0.0711,0.002 2.4209439,2.4209439 0 0 0 -0.72751,0.10571 1.7145045,1.7145045 0 0 0 -0.58743,0.30176 l 0.24074,0.43127 a 1.4684414,1.4684414 0 0 1 0.45505,-0.24867 1.7197963,1.7197963 0 0 1 0.55308,-0.0927 0.91016913,0.91016913 0 0 1 0.635,0.19846 0.7408353,0.7408353 0 0 1 0.21696,0.56893 v 0.11364 h -0.91275 a 1.492254,1.492254 0 0 0 -0.97112,0.26476 0.83343971,0.83343971 0 0 0 -0.30681,0.67465 0.82285635,0.82285635 0 0 0 0.32002,0.67729 1.3229202,1.3229202 0 0 0 0.8546,0.26452 1.5531083,1.5531083 0 0 0 0.635,-0.11892 0.89958576,0.89958576 0 0 0 0.41013,-0.33877 v 0.4207 h 0.54515 v -1.92087 a 1.2594201,1.2594201 0 0 0 -0.34934,-0.9656 1.4499205,1.4499205 0 0 0 -0.93965,-0.33829 z m 4.00847,0.0147 a 1.6219002,1.6219002 0 0 0 -0.6559,0.14367 0.97366927,0.97366927 0 0 0 -0.4392,0.43127 v -0.52929 h -0.55283 v 3.17502 h 0.57686 v -1.5874 a 1.0927321,1.0927321 0 0 1 0.26453,-0.79381 0.96573177,0.96573177 0 0 1 0.73278,-0.28038 0.83608558,0.83608558 0 0 1 0.13238,0 v -0.55836 a 1.6219002,1.6219002 0 0 0 -0.0586,-9.3e-4 z m 17.99418,0 a 1.6219002,1.6219002 0 0 0 -0.65567,0.14367 0.99219018,0.99219018 0 0 0 -0.44183,0.43127 v -0.52929 h -0.55019 v 3.17502 h 0.57397 v -1.5874 a 1.1033155,1.1033155 0 0 1 0.26477,-0.79381 0.97631513,0.97631513 0 0 1 0.73543,-0.28038 0.85989813,0.85989813 0 0 1 0.13238,0 v -0.55836 a 1.6219002,1.6219002 0 0 0 -0.0589,-9.3e-4 z m -4.12645,4.6e-4 a 1.7568381,1.7568381 0 0 0 -0.82601,0.20662 1.508129,1.508129 0 0 0 -0.59007,0.57687 1.7568381,1.7568381 0 0 0 0,1.6722 1.5319417,1.5319417 0 0 0 0.59007,0.57926 1.7303796,1.7303796 0 0 0 0.85196,0.21167 1.6986295,1.6986295 0 0 0 0.84932,-0.21167 1.5319417,1.5319417 0 0 0 0.59007,-0.57926 1.7568381,1.7568381 0 0 0 0,-1.6722 1.508129,1.508129 0 0 0 -0.59007,-0.57687 1.7250879,1.7250879 0 0 0 -0.84932,-0.20638 1.7568381,1.7568381 0 0 0 -0.0259,-2.4e-4 z m -21.42266,0.006 a 1.3070452,1.3070452 0 0 0 -0.0673,0.002 1.6166085,1.6166085 0 0 0 -0.67488,0.13238 1.1138988,1.1138988 0 0 0 -0.47091,0.37817 V 28.6978 h -0.55019 v 3.17502 h 0.57398 v -1.63784 a 1.0583362,1.0583362 0 0 1 0.26476,-0.79357 0.98954431,0.98954431 0 0 1 0.73808,-0.26477 0.83608558,0.83608558 0 0 1 0.63764,0.23305 0.97631513,0.97631513 0 0 1 0.22224,0.69579 v 1.7647 h 0.57422 v -1.83077 a 1.375837,1.375837 0 0 0 -0.35726,-1.02663 1.3070452,1.3070452 0 0 0 -0.8904,-0.34597 z m -13.44992,10e-4 a 1.293816,1.293816 0 0 0 -0.10067,0.003 1.6483585,1.6483585 0 0 0 -0.72486,0.15617 1.22767,1.22767 0 0 0 -0.50022,0.43126 1.0133569,1.0133569 0 0 0 -0.44448,-0.43655 1.3970037,1.3970037 0 0 0 -0.65879,-0.15088 1.508129,1.508129 0 0 0 -0.64293,0.12974 1.1033155,1.1033155 0 0 0 -0.45505,0.37288 V 28.6998 h -0.55308 v 3.17502 h 0.57686 v -1.63784 a 1.1006696,1.1006696 0 0 1 0.26453,-0.79358 0.91016913,0.91016913 0 0 1 0.69603,-0.26476 0.79375212,0.79375212 0 0 1 0.61122,0.23305 1.0133569,1.0133569 0 0 1 0.21167,0.69579 v 1.7647 h 0.57662 v -1.63785 a 1.1006696,1.1006696 0 0 1 0.26452,-0.79357 0.91016913,0.91016913 0 0 1 0.69603,-0.26477 0.79375212,0.79375212 0 0 1 0.61122,0.23306 1.0133569,1.0133569 0 0 1 0.21167,0.69579 v 1.76469 h 0.57662 v -1.83076 a 1.3890662,1.3890662 0 0 0 -0.35174,-1.03192 1.293816,1.293816 0 0 0 -0.86517,-0.33949 z m 7.15514,0.003 a 1.7727131,1.7727131 0 0 0 -0.79453,0.19077 1.4393371,1.4393371 0 0 0 -0.57951,0.54514 1.6377752,1.6377752 0 0 0 0,1.58739 1.4393371,1.4393371 0 0 0 0.57951,0.54515 1.7145045,1.7145045 0 0 0 0.82529,0.19581 1.6695253,1.6695253 0 0 0 0.64581,-0.12181 1.2647117,1.2647117 0 0 0 0.49998,-0.37048 v 0.26453 a 1.076857,1.076857 0 0 1 -0.26453,0.79381 1.1218363,1.1218363 0 0 1 -0.82288,0.26453 2.1007972,2.1007972 0 0 1 -0.67729,-0.11101 1.6510044,1.6510044 0 0 1 -0.54779,-0.30176 l -0.26453,0.44208 a 1.6615878,1.6615878 0 0 0 0.65879,0.35174 2.9580495,2.9580495 0 0 0 0.85725,0.12445 1.7224421,1.7224421 0 0 0 1.22243,-0.39955 1.6377752,1.6377752 0 0 0 0.41541,-1.23301 v -2.74904 l -0.54515,0.0106 v 0.49229 a 1.2356075,1.2356075 0 0 0 -0.5079,-0.38898 1.6510044,1.6510044 0 0 0 -0.6696,-0.13239 1.7727131,1.7727131 0 0 0 -0.0307,-2.4e-4 z m 2.85932,0.0187 v 3.17502 h 0.57686 v -3.17502 z m 11.25275,0 1.40216,3.17502 -0.10043,0.22224 a 0.96837758,0.96837758 0 0 1 -0.26453,0.38105 0.55298066,0.55298066 0 0 1 -0.35198,0.11099 0.79375212,0.79375212 0 0 1 -0.57157,-0.23545 l -0.24603,0.43126 a 0.91810663,0.91810663 0 0 0 0.36519,0.2196 1.375837,1.375837 0 0 0 0.45241,0.0769 1.0847946,1.0847946 0 0 0 0.65615,-0.19845 1.5610458,1.5610458 0 0 0 0.47619,-0.68522 l 1.54271,-3.49792 H 142.949 l -1.09799,2.5453 -1.10855,-2.5453 z m 13.63156,0.47355 a 1.1641698,1.1641698 0 0 1 0.5502,0.13767 0.99483599,0.99483599 0 0 1 0.38081,0.39426 1.3229202,1.3229202 0 0 1 0,1.16934 1.0186485,1.0186485 0 0 1 -0.38081,0.39691 1.1456489,1.1456489 0 0 1 -1.09823,0 1.0239402,1.0239402 0 0 1 -0.38345,-0.39691 1.2885242,1.2885242 0 0 1 0,-1.16934 1.0001277,1.0001277 0 0 1 0.38345,-0.39426 1.1641698,1.1641698 0 0 1 0.54803,-0.13767 z m 7.94151,0 a 1.1588781,1.1588781 0 0 1 0.54875,0.13767 0.96573177,0.96573177 0 0 1 0.3837,0.39426 1.2885242,1.2885242 0 0 1 0,1.16934 0.98954431,0.98954431 0 0 1 -0.3837,0.39691 1.1403572,1.1403572 0 0 1 -1.09533,0 1.0583362,1.0583362 0 0 1 -0.3837,-0.39691 1.2885242,1.2885242 0 0 1 0,-1.16934 1.0186485,1.0186485 0 0 1 0.3837,-0.39426 1.1588781,1.1588781 0 0 1 0.54658,-0.13767 z m -35.61666,0.004 a 1.2303157,1.2303157 0 0 1 0.81424,0.29023 0.97631513,0.97631513 0 0 1 0.30704,0.746 1.0345236,1.0345236 0 0 1 -0.14031,0.52929 0.97896095,0.97896095 0 0 1 -0.39162,0.37048 h -0.0106 a 1.2673576,1.2673576 0 0 1 -1.12705,0 0.97896095,0.97896095 0 0 1 -0.39163,-0.37048 1.0345236,1.0345236 0 0 1 -0.14007,-0.52929 0.97631513,0.97631513 0 0 1 0.30681,-0.746 1.2303157,1.2303157 0 0 1 0.77315,-0.29023 z m -3.89003,1.28754 h 0.8892 v 0.44472 a 0.8307939,0.8307939 0 0 1 -0.34934,0.41541 1.0583362,1.0583362 0 0 1 -0.56893,0.148 0.86518981,0.86518981 0 0 1 -0.51584,-0.13743 0.44714703,0.44714703 0 0 1 -0.18524,-0.37841 c 0,-0.32808 0.24331,-0.49229 0.73015,-0.49229 z m 13.4886,0 h 0.88896 v 0.44472 a 0.84402308,0.84402308 0 0 1 -0.34934,0.41541 1.0583362,1.0583362 0 0 1 -0.56869,0.148 0.85989813,0.85989813 0 0 1 -0.51608,-0.13743 0.44979286,0.44979286 0 0 1 -0.18788,-0.37841 c 0,-0.32808 0.2462,-0.49229 0.73303,-0.49229 z m -57.563337,0.99443 a 6.5537466,6.5537466 0 0 0 -3.113753,0.7943 5.7282443,5.7282443 0 0 0 -2.246419,2.15897 6.3288503,6.3288503 0 0 0 0,6.19386 5.7890989,5.7890989 0 0 0 2.235847,2.15897 6.5272884,6.5272884 0 0 0 3.198805,0.76738 6.6489971,6.6489971 0 0 0 2.540011,-0.47354 5.2387638,5.2387638 0 0 0 1.9658,-1.38389 l -1.09798,-1.05835 a 4.4106159,4.4106159 0 0 1 -3.32326,1.41825 4.8048461,4.8048461 0 0 1 -2.381204,-0.59007 4.2836156,4.2836156 0 0 1 -1.664272,-1.62968 4.8022002,4.8022002 0 0 1 0,-4.64084 4.2968449,4.2968449 0 0 1 1.664272,-1.62727 4.8048461,4.8048461 0 0 1 2.381204,-0.59007 4.3947409,4.3947409 0 0 1 3.32326,1.39975 l 1.09798,-1.05834 a 5.2043679,5.2043679 0 0 0 -1.95787,-1.37597 6.6886848,6.6886848 0 0 0 -2.532084,-0.46298 6.5537466,6.5537466 0 0 0 -0.09034,-4.6e-4 z m 12.200821,0 a 6.5563925,6.5563925 0 0 0 -3.11472,0.7943 5.720307,5.720307 0 0 0 -2.24353,2.15897 6.3288503,6.3288503 0 0 0 0,6.19386 5.770578,5.770578 0 0 0 2.23561,2.15897 6.5087675,6.5087675 0 0 0 3.20432,0.79117 6.6489971,6.6489971 0 0 0 2.54002,-0.47355 5.2387638,5.2387638 0 0 0 1.9658,-1.38389 l -1.09534,-1.05834 a 4.4159076,4.4159076 0 0 1 -3.32591,1.41825 4.8127838,4.8127838 0 0 1 -2.3812,-0.59008 4.2783239,4.2783239 0 0 1 -1.66163,-1.62967 4.7836793,4.7836793 0 0 1 0,-4.64084 4.2889072,4.2889072 0 0 1 1.6537,-1.65106 4.8127838,4.8127838 0 0 1 2.38121,-0.59007 4.4026784,4.4026784 0 0 1 3.3259,1.39975 l 1.09534,-1.05834 a 5.1832016,5.1832016 0 0 0 -1.95787,-1.37597 6.683393,6.683393 0 0 0 -2.52944,-0.46298 6.5563925,6.5563925 0 0 0 -0.0923,-4.6e-4 z M 48.693593,31.59239 V 43.40615 H 50.38165 V 31.59239 Z m 4.000547,0 3.947451,11.81376 h 1.807226 l 3.22259,-9.4352 3.22259,9.4352 h 1.772869 l 3.94745,-11.81376 H 69.008427 L 65.75124,41.2443 62.494293,31.59239 h -1.553032 l -3.323259,9.6017 -3.175019,-9.6017 z m 102.34251,3.6625 a 1.0398153,1.0398153 0 0 0 -0.71044,0.27966 1.0054194,1.0054194 0 0 0 -0.26477,0.74889 v 0.28302 h -0.52905 v 0.47355 h 0.52905 v 2.70412 h 0.57686 v -2.70412 h 0.91275 v -0.47355 h -0.92332 v -0.27774 c 0,-0.37041 0.17189,-0.55836 0.50262,-0.55836 a 0.70379357,0.70379357 0 0 1 0.44208,0.15089 l 0.17443,-0.4392 a 0.88635654,0.88635654 0 0 0 -0.28831,-0.13766 1.3017535,1.3017535 0 0 0 -0.35991,-0.0476 1.0398153,1.0398153 0 0 0 -0.062,-0.002 z m -16.14058,0.002 a 0.38893854,0.38893854 0 0 0 -0.38417,0.40748 0.38364685,0.38364685 0 0 0 0.069,0.23281 0.37041765,0.37041765 0 0 0 0.18236,0.14031 l -0.22224,0.89424 h 0.37841 l 0.28831,-0.84139 a 1.6033793,1.6033793 0 0 0 0.0769,-0.24866 0.79375212,0.79375212 0 0 0 0.0185,-0.17731 0.41275111,0.41275111 0 0 0 -0.11124,-0.29095 0.3730635,0.3730635 0 0 0 -0.28038,-0.11653 0.38893854,0.38893854 0 0 0 -0.0154,0 z m -24.03643,0.24074 a 2.3468604,2.3468604 0 0 0 -1.08357,0.27798 2.0452346,2.0452346 0 0 0 -0.79382,0.76979 2.2436726,2.2436726 0 0 0 0,2.20149 2.0320055,2.0320055 0 0 0 0.79382,0.76715 2.3309854,2.3309854 0 0 0 1.13498,0.28038 2.3812563,2.3812563 0 0 0 0.90217,-0.16915 1.8229841,1.8229841 0 0 0 0.69843,-0.49229 l -0.38874,-0.37816 a 1.5716292,1.5716292 0 0 1 -1.18279,0.50526 1.7171504,1.7171504 0 0 1 -0.84667,-0.21167 1.508129,1.508129 0 0 1 -0.59008,-0.57686 1.6959837,1.6959837 0 0 1 0,-1.65106 1.5319417,1.5319417 0 0 1 0.59008,-0.57926 1.7171504,1.7171504 0 0 1 0.84667,-0.20902 1.5875043,1.5875043 0 0 1 1.18279,0.49733 l 0.38874,-0.37841 a 1.8282757,1.8282757 0 0 0 -0.69578,-0.4894 2.4077148,2.4077148 0 0 0 -0.89954,-0.1641 2.3468604,2.3468604 0 0 0 -0.0567,0 z m 28.79259,0 a 2.3389229,2.3389229 0 0 0 -1.08164,0.27798 2.0531721,2.0531721 0 0 0 -0.79357,0.76979 2.2436726,2.2436726 0 0 0 0,2.20149 2.055818,2.055818 0 0 0 0.79357,0.76715 2.320402,2.320402 0 0 0 1.14843,0.28038 2.3944856,2.3944856 0 0 0 0.90482,-0.16915 1.8520883,1.8520883 0 0 0 0.69843,-0.49229 l -0.39162,-0.37816 a 1.5636917,1.5636917 0 0 1 -1.17991,0.50526 1.7118587,1.7118587 0 0 1 -0.84667,-0.21167 1.4896082,1.4896082 0 0 1 -0.59007,-0.57686 1.6959837,1.6959837 0 0 1 0,-1.65106 1.5160665,1.5160665 0 0 1 0.59007,-0.57926 1.7092129,1.7092129 0 0 1 0.84667,-0.20902 1.5636917,1.5636917 0 0 1 1.17991,0.49733 l 0.37577,-0.37841 a 1.8520883,1.8520883 0 0 0 -0.69579,-0.4894 2.4077148,2.4077148 0 0 0 -0.89953,-0.1641 2.3389229,2.3389229 0 0 0 -0.0589,0 z m -16.56511,0.37048 v 0.69843 h -0.52905 v 0.47355 h 0.52905 v 1.73851 a 0.98160681,0.98160681 0 0 0 0.26477,0.73808 1.0160027,1.0160027 0 0 0 0.74336,0.26452 1.3229202,1.3229202 0 0 0 0.38369,-0.0555 0.90223158,0.90223158 0 0 0 0.3121,-0.16674 l -0.17996,-0.41276 a 0.70114771,0.70114771 0 0 1 -0.44976,0.14824 0.47625129,0.47625129 0 0 1 -0.3676,-0.13767 0.55033479,0.55033479 0 0 1 -0.12974,-0.39403 v -1.72265 h 0.9101 v -0.47355 h -0.9101 v -0.69843 z m -2.43766,0.64629 a 1.4340455,1.4340455 0 0 0 -0.0704,0.002 2.402423,2.402423 0 0 0 -0.7251,0.10595 1.7489006,1.7489006 0 0 0 -0.59008,0.30153 l 0.24098,0.43391 a 1.3652536,1.3652536 0 0 1 0.45505,-0.24867 1.6536503,1.6536503 0 0 1 0.55283,-0.0954 0.90487745,0.90487745 0 0 1 0.63501,0.19845 0.7328978,0.7328978 0 0 1 0.21695,0.57158 v 0.11388 h -0.91274 a 1.5134207,1.5134207 0 0 0 -0.97113,0.26452 0.88635654,0.88635654 0 0 0 0.0158,1.35458 1.3229202,1.3229202 0 0 0 0.8546,0.26453 1.5875043,1.5875043 0 0 0 0.63236,-0.11629 0.91546081,0.91546081 0 0 0 0.41013,-0.33876 v 0.41805 h 0.54778 v -1.91823 a 1.2408991,1.2408991 0 0 0 -0.35198,-0.9656 1.4340455,1.4340455 0 0 0 -0.94013,-0.34597 z m 43.02096,0.014 a 1.3070452,1.3070452 0 0 0 -0.0675,0.001 1.6589419,1.6589419 0 0 0 -0.67464,0.13239 1.1138988,1.1138988 0 0 0 -0.47091,0.37816 v -0.46826 h -0.55308 v 3.17502 h 0.57687 v -1.6376 a 1.0583362,1.0583362 0 0 1 0.26452,-0.79382 1.0001277,1.0001277 0 0 1 0.73832,-0.26452 0.83608558,0.83608558 0 0 1 0.63764,0.23545 0.98425263,0.98425263 0 0 1 0.2196,0.69579 v 1.76206 h 0.57662 v -1.82813 a 1.3784829,1.3784829 0 0 0 -0.35702,-1.02927 1.3070452,1.3070452 0 0 0 -0.8904,-0.35847 z m -16.03583,2.4e-4 a 1.3070452,1.3070452 0 0 0 -0.0337,9.3e-4 1.6589419,1.6589419 0 0 0 -0.67465,0.13238 1.1138988,1.1138988 0 0 0 -0.47115,0.37816 v -0.46826 h -0.55283 v 3.17502 h 0.57686 v -1.6376 a 1.0583362,1.0583362 0 0 1 0.26453,-0.79382 1.0001277,1.0001277 0 0 1 0.73807,-0.26452 0.83343971,0.83343971 0 0 1 0.63501,0.23545 0.97366927,0.97366927 0 0 1 0.22223,0.69579 v 1.76206 h 0.57158 V 37.9161 a 1.3784829,1.3784829 0 0 0 -0.35726,-1.02927 1.3070452,1.3070452 0 0 0 -0.91875,-0.35823 z m -32.70257,0.006 a 1.5875043,1.5875043 0 0 0 -0.6475,0.14632 0.98689849,0.98689849 0 0 0 -0.44183,0.41276 v -0.52929 h -0.55043 v 3.17502 h 0.57421 v -1.58739 a 1.1138988,1.1138988 0 0 1 0.26453,-0.79381 0.97631513,0.97631513 0 0 1 0.73567,-0.26453 h 0.13214 v -0.55836 a 1.5875043,1.5875043 0 0 0 -0.0668,-9.3e-4 z m 16.0154,0 a 1.5875043,1.5875043 0 0 0 -0.64774,0.14632 0.98689849,0.98689849 0 0 0 -0.44183,0.41276 v -0.52929 h -0.55284 v 3.17502 h 0.57662 v -1.58739 a 1.1138988,1.1138988 0 0 1 0.26477,-0.79381 0.97102345,0.97102345 0 0 1 0.73543,-0.26453 h 0.13239 v -0.55836 a 1.5875043,1.5875043 0 0 0 -0.0668,-9.3e-4 z m 26.46377,0 a 1.5875043,1.5875043 0 0 0 -0.64773,0.14632 0.96837758,0.96837758 0 0 0 -0.43919,0.41276 v -0.52929 h -0.55308 v 3.17502 h 0.57686 v -1.58739 a 1.1033155,1.1033155 0 0 1 0.26453,-0.79381 0.96573177,0.96573177 0 0 1 0.73303,-0.26453 h 0.13214 v -0.55836 a 1.5875043,1.5875043 0 0 0 -0.0666,-9.3e-4 z m -30.5585,2.4e-4 a 1.8520883,1.8520883 0 0 0 -0.84979,0.20686 1.508129,1.508129 0 0 0 -0.59008,0.57686 1.7436088,1.7436088 0 0 0 0,1.67484 1.5160665,1.5160665 0 0 0 0.59008,0.57927 1.8362132,1.8362132 0 0 0 1.70127,0 1.5451707,1.5451707 0 0 0 0.58743,-0.57927 1.7436088,1.7436088 0 0 0 0,-1.67484 1.5372332,1.5372332 0 0 0 -0.58743,-0.57686 1.8520883,1.8520883 0 0 0 -0.85148,-0.20686 z m 16.58938,0 a 1.8520883,1.8520883 0 0 0 -0.84979,0.20686 1.508129,1.508129 0 0 0 -0.59007,0.57686 1.7436088,1.7436088 0 0 0 0,1.67484 1.5160665,1.5160665 0 0 0 0.59007,0.57927 1.8362132,1.8362132 0 0 0 1.70127,0 1.508129,1.508129 0 0 0 0.58744,-0.57927 1.7436088,1.7436088 0 0 0 0,-1.67484 1.5028374,1.5028374 0 0 0 -0.58744,-0.57686 1.8520883,1.8520883 0 0 0 -0.85148,-0.20686 z m 23.89806,2.4e-4 a 1.7912339,1.7912339 0 0 0 -0.83466,0.20662 1.5478167,1.5478167 0 0 0 -0.59801,0.57686 1.7436088,1.7436088 0 0 0 0,1.67484 1.5531083,1.5531083 0 0 0 0.59801,0.57927 1.7621297,1.7621297 0 0 0 0.86781,0.20903 1.6192543,1.6192543 0 0 0 0.77003,-0.17708 1.2382533,1.2382533 0 0 0 0.52905,-0.5055 l -0.43655,-0.27774 a 0.98425263,0.98425263 0 0 1 -0.37312,0.34405 1.0874404,1.0874404 0 0 1 -0.49205,0.11365 1.1377114,1.1377114 0 0 1 -0.561,-0.14032 0.97102345,0.97102345 0 0 1 -0.38898,-0.39138 1.3070452,1.3070452 0 0 1 0,-1.1775 0.98954431,0.98954431 0 0 1 0.38898,-0.39163 1.1377114,1.1377114 0 0 1 0.561,-0.13767 1.0583362,1.0583362 0 0 1 0.49205,0.11389 0.99748186,0.99748186 0 0 1 0.37312,0.3414 l 0.43655,-0.28062 a 1.2223783,1.2223783 0 0 0 -0.52905,-0.50526 1.6510044,1.6510044 0 0 0 -0.77003,-0.17467 1.7912339,1.7912339 0 0 0 -0.0332,-2.4e-4 z m -34.63354,9.3e-4 a 1.6007334,1.6007334 0 0 0 -0.8803,0.26644 0.81491885,0.81491885 0 0 0 -0.35967,0.69339 0.7328978,0.7328978 0 0 0 0.17203,0.52905 0.98160681,0.98160681 0 0 0 0.41805,0.26452 4.4238451,4.4238451 0 0 0 0.62707,0.13767 c 0.18786,0.0318 0.33337,0.0608 0.43391,0.0872 a 0.66146012,0.66146012 0 0 1 0.26452,0.12181 0.2883966,0.2883966 0 0 1 0.10043,0.23017 c 0,0.28575 -0.25122,0.43126 -0.75657,0.43126 a 2.1695891,2.1695891 0 0 1 -0.60594,-0.0899 1.7409629,1.7409629 0 0 1 -0.50814,-0.24074 l -0.24074,0.45504 a 1.5875043,1.5875043 0 0 0 0.56365,0.26453 2.619382,2.619382 0 0 0 0.74888,0.10307 1.7409629,1.7409629 0 0 0 1.0026,-0.26453 0.79375212,0.79375212 0 0 0 0.37048,-0.68785 0.69585603,0.69585603 0 0 0 -0.16938,-0.50262 0.90752326,0.90752326 0 0 0 -0.40484,-0.26477 4.9583047,4.9583047 0 0 0 -0.61915,-0.14007 c -0.18256,-0.0371 -0.34129,-0.0689 -0.44712,-0.0954 a 0.72231444,0.72231444 0 0 1 -0.26452,-0.13214 0.30691749,0.30691749 0 0 1 -0.10836,-0.24626 0.35718845,0.35718845 0 0 1 0.19293,-0.31739 1.0318778,1.0318778 0 0 1 0.55572,-0.12181 1.656296,1.656296 0 0 1 0.91803,0.26477 l 0.24626,-0.45505 a 1.6721712,1.6721712 0 0 0 -0.52929,-0.20903 2.6087986,2.6087986 0 0 0 -0.635,-0.0795 1.6007334,1.6007334 0 0 0 -0.0855,-0.002 z m -15.66702,0.007 a 1.6351294,1.6351294 0 0 0 -0.79454,0.20663 1.5160665,1.5160665 0 0 0 -0.56893,0.5795 1.7621297,1.7621297 0 0 0 0,1.67484 1.4816707,1.4816707 0 0 0 0.60329,0.57927 2.0267137,2.0267137 0 0 0 1.61141,0.0742 1.4075871,1.4075871 0 0 0 0.52906,-0.38369 l -0.32003,-0.37313 a 1.1747531,1.1747531 0 0 1 -0.91827,0.38634 1.2038574,1.2038574 0 0 1 -0.78036,-0.26453 0.99483599,0.99483599 0 0 1 -0.37047,-0.67464 h 2.57965 a 1.706567,1.706567 0 0 0 0.0264,-0.16674 1.7859423,1.7859423 0 0 0 -0.2011,-0.85196 1.4896082,1.4896082 0 0 0 -0.55812,-0.5795 1.5875043,1.5875043 0 0 0 -0.81232,-0.20639 1.6351294,1.6351294 0 0 0 -0.0257,-2.4e-4 z m 42.48422,0 a 1.6351294,1.6351294 0 0 0 -0.79454,0.20663 1.5160665,1.5160665 0 0 0 -0.56869,0.5795 1.6933379,1.6933379 0 0 0 -0.20638,0.83346 1.656296,1.656296 0 0 0 0.21167,0.84138 1.4816707,1.4816707 0 0 0 0.60305,0.57927 2.0267137,2.0267137 0 0 0 1.61141,0.0742 1.4075871,1.4075871 0 0 0 0.52905,-0.38369 l -0.31738,-0.37313 a 1.1826907,1.1826907 0 0 1 -0.91803,0.38634 1.2065032,1.2065032 0 0 1 -0.79381,-0.26453 0.99483599,0.99483599 0 0 1 -0.37048,-0.67464 h 2.57966 a 1.706567,1.706567 0 0 0 0.0317,-0.16674 1.7541922,1.7541922 0 0 0 -0.20086,-0.85196 1.4896082,1.4896082 0 0 0 -0.55836,-0.5795 1.5875043,1.5875043 0 0 0 -0.81231,-0.20639 1.6351294,1.6351294 0 0 0 -0.0257,-2.4e-4 z m 11.18381,0 a 1.6351294,1.6351294 0 0 0 -0.7943,0.20663 1.5160665,1.5160665 0 0 0 -0.56893,0.5795 1.6933379,1.6933379 0 0 0 -0.20639,0.83346 1.656296,1.656296 0 0 0 0.21167,0.84138 1.4816707,1.4816707 0 0 0 0.60329,0.57927 2.0267137,2.0267137 0 0 0 1.61142,0.0742 1.4075871,1.4075871 0 0 0 0.52905,-0.38369 l -0.31738,-0.37313 a 1.1826907,1.1826907 0 0 1 -0.91828,0.38634 1.2065032,1.2065032 0 0 1 -0.79357,-0.26453 0.99483599,0.99483599 0 0 1 -0.37048,-0.67464 h 2.57966 a 1.706567,1.706567 0 0 0 0.0317,-0.16674 1.7541922,1.7541922 0 0 0 -0.2011,-0.85196 1.4896082,1.4896082 0 0 0 -0.55812,-0.5795 1.5875043,1.5875043 0 0 0 -0.81231,-0.20639 1.6351294,1.6351294 0 0 0 -0.0259,-2.4e-4 z m -17.29815,2.4e-4 a 1.7171504,1.7171504 0 0 0 -0.81592,0.20639 1.5028374,1.5028374 0 0 0 -0.57134,0.5795 1.6933379,1.6933379 0 0 0 -0.20638,0.83346 1.6589419,1.6589419 0 0 0 0.21431,0.84138 1.457858,1.457858 0 0 0 0.60041,0.57927 2.0267137,2.0267137 0 0 0 1.61142,0.0742 1.3890662,1.3890662 0 0 0 0.52929,-0.38369 l -0.31763,-0.37313 a 1.1800448,1.1800448 0 0 1 -0.91803,0.38634 1.2065032,1.2065032 0 0 1 -0.79381,-0.26453 0.99219018,0.99219018 0 0 1 -0.36784,-0.67464 h 2.57966 a 1.5875043,1.5875043 0 0 0 0.0293,-0.16674 1.7541922,1.7541922 0 0 0 -0.2011,-0.85196 1.4816707,1.4816707 0 0 0 -0.55572,-0.5795 1.7171504,1.7171504 0 0 0 -0.81663,-0.20639 z m -0.0358,0.46827 a 1.0054194,1.0054194 0 0 1 0.0296,0 0.99219018,0.99219018 0 0 1 0.69315,0.26476 1.0318778,1.0318778 0 0 1 0.32819,0.65879 h -2.05061 a 1.0212944,1.0212944 0 0 1 0.32555,-0.66143 h 0.005 a 1.0054194,1.0054194 0 0 1 0.66888,-0.26212 z m -36.3336,0.012 a 1.076857,1.076857 0 0 1 0.70516,0.25275 1.0292319,1.0292319 0 0 1 0.32555,0.65879 h -2.04003 a 1.0133569,1.0133569 0 0 1 0.32819,-0.66143 v 0.003 a 1.076857,1.076857 0 0 1 0.68113,-0.25275 z m 42.47894,0 a 1.076857,1.076857 0 0 1 0.70516,0.25275 1.0292319,1.0292319 0 0 1 0.32555,0.65879 h -2.04004 a 1.0239402,1.0239402 0 0 1 0.32819,-0.66143 v 0.003 a 1.076857,1.076857 0 0 1 0.68114,-0.25275 z m 11.19725,0 a 1.076857,1.076857 0 0 1 0.70516,0.25275 1.0292319,1.0292319 0 0 1 0.32555,0.65879 h -2.04003 a 1.0133569,1.0133569 0 0 1 0.32795,-0.66143 v 0.003 a 1.076857,1.076857 0 0 1 0.68137,-0.25275 z m -43.89214,0.0171 a 1.095378,1.095378 0 0 1 0.0307,0 1.0795029,1.0795029 0 0 1 0.54778,0.13767 0.95250254,0.95250254 0 0 1 0.38082,0.39162 1.293816,1.293816 0 0 1 0,1.17222 0.96044008,0.96044008 0 0 1 -0.38082,0.39403 1.0583362,1.0583362 0 0 1 -0.54778,0.14295 1.0742112,1.0742112 0 0 1 -0.55044,-0.14295 1.0186485,1.0186485 0 0 1 -0.38345,-0.39403 1.293816,1.293816 0 0 1 0,-1.17222 1.010711,1.010711 0 0 1 0.38345,-0.39162 1.095378,1.095378 0 0 1 0.51969,-0.13767 z m 16.58963,0 a 1.0795029,1.0795029 0 0 1 0.0305,0 1.095378,1.095378 0 0 1 0.55043,0.13767 0.98689849,0.98689849 0 0 1 0.38105,0.39162 1.3229202,1.3229202 0 0 1 0,1.17222 0.99483599,0.99483599 0 0 1 -0.38105,0.39403 1.0742112,1.0742112 0 0 1 -0.5425,0.14295 1.0583362,1.0583362 0 0 1 -0.54755,-0.14295 1.0054194,1.0054194 0 0 1 -0.38634,-0.39403 1.293816,1.293816 0 0 1 0,-1.17222 1.0001277,1.0001277 0 0 1 0.37841,-0.39162 1.0795029,1.0795029 0 0 1 0.51704,-0.13767 z m -22.93798,1.28875 h 0.88896 v 0.44448 a 0.84402308,0.84402308 0 0 1 -0.34645,0.41805 1.0795029,1.0795029 0 0 1 -0.57158,0.14535 0.84666894,0.84666894 0 0 1 -0.51608,-0.13743 0.44450119,0.44450119 0 0 1 -0.18499,-0.3784 c 0,-0.32809 0.24331,-0.49205 0.73014,-0.49205 z m -10.37702,5.07378 c -0.32278,0 -0.61584,0.0551 -0.87958,0.1653 -0.2598,0.11022 -0.47049,0.26375 -0.63188,0.46058 l 0.40147,0.34837 c 0.24799,-0.29916 0.60028,-0.4488 1.0569,-0.4488 0.28342,0 0.50008,0.0611 0.64966,0.18307 0.15352,0.11809 0.23017,0.2854 0.23017,0.50191 0,0.14564 -0.0353,0.29114 -0.1062,0.43678 -0.0709,0.14171 -0.20879,0.31109 -0.41348,0.50791 l -1.68278,1.62367 v 0.40147 h 2.97008 v -0.51367 h -2.1198 l 1.26352,-1.21619 c 0.26374,-0.25193 0.44299,-0.47638 0.53746,-0.67321 0.0945,-0.19681 0.14175,-0.40543 0.14175,-0.62587 0,-0.35427 -0.12807,-0.63381 -0.38393,-0.8385 -0.25587,-0.20863 -0.60035,-0.31282 -1.03336,-0.31282 z m 3.79873,0 c -0.32672,0 -0.61795,0.0845 -0.87382,0.25372 -0.25192,0.16532 -0.45067,0.40745 -0.59632,0.7263 -0.14564,0.31885 -0.21863,0.69684 -0.21863,1.13378 0,0.43694 0.073,0.81469 0.21863,1.13354 0.14565,0.31885 0.3444,0.56304 0.59632,0.73231 0.25587,0.16533 0.5471,0.24794 0.87382,0.24794 0.32279,0 0.61013,-0.0826 0.86206,-0.24794 0.25586,-0.16927 0.45668,-0.41346 0.60232,-0.73231 0.14565,-0.31885 0.2184,-0.6966 0.2184,-1.13354 0,-0.43694 -0.0727,-0.81493 -0.2184,-1.13378 -0.14564,-0.31885 -0.34646,-0.56098 -0.60232,-0.7263 -0.25193,-0.16927 -0.53927,-0.25372 -0.86206,-0.25372 z m 3.59187,0 c -0.32278,0 -0.61585,0.0551 -0.87958,0.1653 -0.2598,0.11022 -0.47049,0.26375 -0.63188,0.46058 l 0.40147,0.34837 c 0.24799,-0.29916 0.60027,-0.4488 1.0569,-0.4488 0.28342,0 0.50007,0.0611 0.64966,0.18307 0.15352,0.11809 0.23017,0.2854 0.23017,0.50191 0,0.14564 -0.0353,0.29114 -0.1062,0.43678 -0.0709,0.14171 -0.20879,0.31109 -0.41348,0.50791 l -1.68278,1.62367 v 0.40147 h 2.97008 v -0.51367 h -2.1198 l 1.26352,-1.21619 c 0.26374,-0.25193 0.44298,-0.47638 0.53746,-0.67321 0.0945,-0.19681 0.14175,-0.40543 0.14175,-0.62587 0,-0.35427 -0.12807,-0.63381 -0.38394,-0.8385 -0.25586,-0.20863 -0.60034,-0.31282 -1.03335,-0.31282 z m 19.74494,0 c -0.35034,0 -0.64364,0.053 -0.87982,0.15929 -0.23619,0.10629 -0.41313,0.24812 -0.53122,0.42526 -0.11415,0.17714 -0.1713,0.37589 -0.1713,0.59632 0,0.26374 0.0668,0.47419 0.20062,0.63165 0.13777,0.15351 0.30118,0.26781 0.49012,0.3426 0.19288,0.0748 0.44488,0.14961 0.75586,0.2244 0.24799,0.0591 0.43893,0.11206 0.57277,0.1593 0.13777,0.0472 0.25183,0.11608 0.34237,0.20662 0.0945,0.0866 0.14175,0.2009 0.14175,0.34261 0,0.19288 -0.0847,0.34825 -0.25395,0.46634 -0.16926,0.11415 -0.42516,0.1713 -0.76763,0.1713 -0.2598,0 -0.51362,-0.0434 -0.76162,-0.12998 -0.24406,-0.0905 -0.44487,-0.20666 -0.60232,-0.34837 l -0.2184,0.46057 c 0.16533,0.15352 0.39161,0.27952 0.67897,0.37793 0.29129,0.0945 0.5924,0.14175 0.90337,0.14175 0.35034,0 0.64572,-0.0512 0.88584,-0.15352 0.24012,-0.10628 0.41912,-0.24788 0.53721,-0.42502 0.1181,-0.18107 0.17732,-0.38006 0.17732,-0.59656 0,-0.2598 -0.0691,-0.46635 -0.20687,-0.61987 -0.13383,-0.15352 -0.29517,-0.26758 -0.48412,-0.34237 -0.18895,-0.0748 -0.43887,-0.14961 -0.74985,-0.2244 -0.24012,-0.0551 -0.43106,-0.10629 -0.57277,-0.15352 -0.13778,-0.0512 -0.2539,-0.12027 -0.34838,-0.20687 -0.0945,-0.0905 -0.14175,-0.20642 -0.14175,-0.34813 0,-0.19289 0.0829,-0.35056 0.24819,-0.47259 0.16926,-0.12203 0.42102,-0.18284 0.75561,-0.18284 0.18895,0 0.38196,0.0294 0.57878,0.0884 0.19683,0.0551 0.3818,0.13773 0.555,0.24795 l 0.19485,-0.47235 c -0.16926,-0.1181 -0.37191,-0.20851 -0.60809,-0.27149 -0.23619,-0.063 -0.47648,-0.0944 -0.72054,-0.0944 z m 6.15663,0 c -0.41726,0 -0.79318,0.0925 -1.12777,0.2775 -0.3346,0.18108 -0.59829,0.43283 -0.79117,0.75561 -0.18895,0.32279 -0.28351,0.68311 -0.28351,1.08069 0,0.39757 0.0946,0.75766 0.28351,1.08044 0.19288,0.32278 0.45657,0.57685 0.79117,0.76186 0.33459,0.18107 0.71051,0.27149 1.12777,0.27149 0.41332,0 0.78717,-0.0904 1.12177,-0.27149 0.33459,-0.18501 0.59646,-0.437 0.7854,-0.75585 0.18895,-0.32279 0.28327,-0.68494 0.28327,-1.08645 0,-0.40151 -0.0943,-0.76184 -0.28327,-1.08069 -0.18894,-0.32278 -0.45081,-0.57453 -0.7854,-0.75561 -0.3346,-0.18501 -0.70845,-0.2775 -1.12177,-0.2775 z m -23.8387,0.0471 v 0.51367 h 1.98982 l -1.03936,1.27554 v 0.41324 h 0.33083 c 0.34247,0 0.59812,0.0631 0.76739,0.18909 0.16927,0.12596 0.25395,0.3029 0.25395,0.53121 0,0.22831 -0.0865,0.40756 -0.25971,0.53746 -0.16927,0.1299 -0.4075,0.19485 -0.71453,0.19485 -0.248,0 -0.48208,-0.0395 -0.70252,-0.11821 -0.22044,-0.0827 -0.40151,-0.19075 -0.54322,-0.32459 l -0.27174,0.46634 c 0.1732,0.15746 0.39559,0.28139 0.6672,0.37192 0.27161,0.0866 0.55505,0.12998 0.85028,0.12998 0.33852,0 0.62403,-0.0551 0.85628,-0.16529 0.23618,-0.11416 0.41312,-0.26563 0.53121,-0.45457 0.11809,-0.19289 0.17731,-0.40747 0.17731,-0.64366 0,-0.32672 -0.10626,-0.59455 -0.31882,-0.80318 -0.21257,-0.21256 -0.52171,-0.33832 -0.92716,-0.37769 l 1.08068,-1.33463 v -0.40148 z m 5.46564,0 v 4.13317 h 2.99939 v -0.51367 h -2.40908 v -1.3344 h 2.07247 v -0.5019 h -2.07247 v -1.26953 h 2.32643 v -0.51367 z m 4.00511,0 v 4.13317 h 2.82832 v -0.51367 h -2.23776 v -3.6195 z m 2.48187,0 1.64169,2.69258 v 1.44059 h 0.58455 v -1.42882 l 1.64145,-2.70435 h -0.58455 l -1.32863,2.17891 -1.32263,-2.17891 z m 8.14045,0 v 4.13317 h 0.59055 v -4.13317 z m 6.88869,0 v 4.13317 h 0.59056 v -3.08203 l 2.47995,3.08203 h 0.48412 v -4.13317 h -0.59031 v 3.08228 l -2.47995,-3.08228 z m -32.6365,0.47836 c 0.33066,0 0.59436,0.13586 0.79118,0.40748 0.20075,0.27161 0.30128,0.6652 0.30128,1.18087 0,0.51567 -0.10053,0.90926 -0.30128,1.18087 -0.19682,0.27161 -0.46052,0.40748 -0.79118,0.40748 -0.33459,0 -0.60218,-0.13587 -0.80294,-0.40748 -0.19682,-0.27161 -0.29527,-0.6652 -0.29527,-1.18087 0,-0.51567 0.0985,-0.90926 0.29527,-1.18087 0.20076,-0.27162 0.46835,-0.40748 0.80294,-0.40748 z m 29.49344,0 c 0.3031,0 0.5746,0.0688 0.81472,0.20662 0.24405,0.13777 0.435,0.32872 0.57278,0.57278 0.14171,0.24012 0.21262,0.50978 0.21262,0.80895 0,0.29917 -0.0709,0.57066 -0.21262,0.81472 -0.13778,0.24011 -0.32873,0.42923 -0.57278,0.56701 -0.24012,0.13777 -0.51162,0.20662 -0.81472,0.20662 -0.3031,0 -0.57874,-0.0688 -0.82673,-0.20662 -0.24406,-0.13778 -0.43683,-0.3269 -0.57854,-0.56701 -0.13777,-0.24406 -0.20663,-0.51555 -0.20663,-0.81472 0,-0.29917 0.0689,-0.56883 0.20663,-0.80895 0.14171,-0.24406 0.33448,-0.43501 0.57854,-0.57278 0.24799,-0.13778 0.52363,-0.20662 0.82673,-0.20662 z" />
</svg>
