<?xml version="1.0" encoding="UTF-8" standalone="no"?>
<svg
   xmlns:dc="http://purl.org/dc/elements/1.1/"
   xmlns:cc="http://creativecommons.org/ns#"
   xmlns:rdf="http://www.w3.org/1999/02/22-rdf-syntax-ns#"
   xmlns:svg="http://www.w3.org/2000/svg"
   xmlns="http://www.w3.org/2000/svg"
   xmlns:sodipodi="http://sodipodi.sourceforge.net/DTD/sodipodi-0.dtd"
   xmlns:inkscape="http://www.inkscape.org/namespaces/inkscape"
   id="レイヤー_1"
   data-name="レイヤー 1"
   viewBox="0 0 850.39 283.46"
   version="1.1"
   sodipodi:docname="iwcc2022aut_logo_p.svg"
   inkscape:version="0.92.4 (5da689c313, 2019-01-14)"
   width="850.39001"
   height="283.45999"
   inkscape:export-filename="D:\Users\haruka.dev\ResDev\_Orgs\CL-GDAL\CL_KIITA\IWCC\IWCC\docs\assets\logo\iwcc2022aut_logo_p.png"
   inkscape:export-xdpi="959.55969"
   inkscape:export-ydpi="959.55969">
  <metadata
     id="metadata109">
    <rdf:RDF>
      <cc:Work
         rdf:about="">
        <dc:format>image/svg+xml</dc:format>
        <dc:type
           rdf:resource="http://purl.org/dc/dcmitype/StillImage" />
        <dc:title />
      </cc:Work>
    </rdf:RDF>
  </metadata>
  <sodipodi:namedview
     pagecolor="#ffffff"
     bordercolor="#111111"
     borderopacity="1"
     objecttolerance="10"
     gridtolerance="10"
     guidetolerance="10"
     inkscape:pageopacity="0"
     inkscape:pageshadow="2"
     inkscape:window-width="1842"
     inkscape:window-height="1051"
     id="namedview107"
     showgrid="false"
     inkscape:zoom="1.4581545"
     inkscape:cx="282.13368"
     inkscape:cy="46.67505"
     inkscape:window-x="1669"
     inkscape:window-y="-9"
     inkscape:window-maximized="1"
     inkscape:current-layer="レイヤー_1"
     inkscape:showpageshadow="false" />
  <defs
     id="defs4">
    <style
       id="style2">.cls-1{fill:none;}.cls-2{fill:#91002c;}</style>
  </defs>
  <path
     style="fill:#ffe6c1;fill-opacity:1"
     d="M 0,-4.1449219e-6 H 850.39001 V 283.45999 H 0 Z"
     id="rect4629"
     inkscape:connector-curvature="0" />
  <rect
     class="cls-1"
     x="-24.99"
     y="-24.730001"
     width="887.65002"
     height="332.92001"
     id="rect6"
     style="fill:none" />
  <rect
     class="cls-2"
     x="151.80066"
     y="-441.3327"
     width="10.25451"
     height="70.289795"
     id="rect8"
     transform="rotate(90)"
     style="fill:#db5425;fill-opacity:1;stroke-width:1.49872863" />
  <path
     class="cls-2"
     d="m 119.98952,177.75895 h 3.19412 v 22.33068 h -3.19412 z"
     id="path10"
     inkscape:connector-curvature="0"
     style="fill:#91002c;stroke-width:1.40710032" />
  <path
     class="cls-2"
     d="m 155.64544,184.86481 a 7.3872773,7.3872773 0 0 1 1.87144,5.48767 v 9.73715 h -3.06748 v -9.38535 a 5.3891945,5.3891945 0 0 0 -1.12567,-3.70068 4.2213011,4.2213011 0 0 0 -3.25041,-1.23826 4.8404255,4.8404255 0 0 0 -3.70067,1.40709 5.8535378,5.8535378 0 0 0 -1.40711,4.22133 v 8.70995 h -3.06748 v -9.38537 a 5.3891945,5.3891945 0 0 0 -1.12567,-3.70066 4.2213011,4.2213011 0 0 0 -3.25042,-1.23826 4.8404255,4.8404255 0 0 0 -3.70067,1.40709 5.8535378,5.8535378 0 0 0 -1.40708,4.22132 v 8.70993 h -3.06748 v -16.88521 h 2.94083 v 2.51873 a 5.8676088,5.8676088 0 0 1 2.4202,-1.98403 8.0204724,8.0204724 0 0 1 3.41927,-0.68946 7.4294902,7.4294901 0 0 1 3.50369,0.80204 5.4595495,5.4595495 0 0 1 2.36393,2.32172 6.528946,6.5289459 0 0 1 2.65939,-2.29358 8.7662356,8.7662356 0 0 1 3.85549,-0.83018 6.8807211,6.8807211 0 0 1 5.1359,1.78702 z"
     id="path12"
     inkscape:connector-curvature="0"
     style="fill:#91002c;stroke-width:1.40710032" />
  <path
     class="cls-2"
     d="m 174.69757,184.73818 a 6.697798,6.697798 0 0 1 1.87146,5.13589 v 10.21556 h -2.91271 v -2.2373 a 4.7841415,4.7841415 0 0 1 -2.18099,1.80111 8.1893244,8.1893244 0 0 1 -3.36298,0.63319 7.0355021,7.0355021 0 0 1 -4.54494,-1.40712 4.6997154,4.6997154 0 0 1 -0.0843,-7.19027 8.0204724,8.0204724 0 0 1 5.16406,-1.40711 h 4.8545 v -0.60505 a 3.8835972,3.8835972 0 0 0 -1.15382,-3.02526 4.8122835,4.8122835 0 0 0 -3.37704,-1.05533 9.1461527,9.1461527 0 0 0 -2.94084,0.49249 7.8094073,7.8094073 0 0 0 -2.42022,1.32266 l -1.28046,-2.29355 a 9.1180107,9.1180107 0 0 1 3.12377,-1.60411 12.931253,12.931253 0 0 1 3.86951,-0.56284 7.6827683,7.6827683 0 0 1 5.37514,1.78704 z m -3.05341,12.39654 a 4.4182953,4.4182953 0 0 0 1.8574,-2.20915 v -2.36393 h -4.72788 q -3.8836,0 -3.8836,2.61721 a 2.3779997,2.3779997 0 0 0 0.98497,2.01215 4.5027213,4.5027213 0 0 0 2.74386,0.73169 5.6284017,5.6284016 0 0 0 3.02525,-0.78797 z"
     id="path14"
     inkscape:connector-curvature="0"
     style="fill:#91002c;stroke-width:1.40710032" />
  <path
     class="cls-2"
     d="m 198.42128,183.17628 v 14.61978 a 8.7099515,8.7099515 0 0 1 -2.20913,6.55708 9.1602236,9.1602236 0 0 1 -6.5008,2.12472 15.731382,15.731382 0 0 1 -4.55902,-0.66133 9.0054427,9.0054427 0 0 1 -3.50369,-1.85737 l 1.40711,-2.36393 a 8.7803067,8.7803065 0 0 0 2.9127,1.6041 11.172378,11.172378 0 0 0 3.60218,0.59098 5.9661058,5.9661058 0 0 0 4.37609,-1.40711 5.6284017,5.6284016 0 0 0 1.40709,-4.22129 v -1.40711 a 6.7259401,6.7259401 0 0 1 -2.65942,1.96995 8.8788037,8.8788037 0 0 1 -3.43331,0.64726 9.2727918,9.2727918 0 0 1 -4.39015,-1.02718 7.6546263,7.6546263 0 0 1 -3.06748,-2.9127 8.6114546,8.6114546 0 0 1 0,-8.4426 7.5279873,7.5279873 0 0 1 3.06748,-2.89864 9.4275728,9.4275728 0 0 1 4.39015,-1.0131 9.0335847,9.0335847 0 0 1 3.55995,0.70354 6.5711589,6.5711589 0 0 1 2.70164,2.06844 v -2.61722 z m -5.82539,12.83276 a 5.2062716,5.2062716 0 0 0 2.08251,-1.96995 5.5017626,5.5017626 0 0 0 0.74578,-2.8142 5.1922004,5.1922004 0 0 0 -1.63224,-3.96802 6.543017,6.543017 0 0 0 -8.44261,0 5.1922004,5.1922004 0 0 0 -1.63224,3.96802 5.5017626,5.5017626 0 0 0 0.74575,2.8142 5.2062716,5.2062716 0 0 0 2.08251,1.96995 6.3741651,6.3741651 0 0 0 3.01121,0.70355 6.3038099,6.3038099 0 0 0 3.03933,-0.70355 z"
     id="path16"
     inkscape:connector-curvature="0"
     style="fill:#91002c;stroke-width:1.40710032" />
  <path
     class="cls-2"
     d="m 204.30298,179.34897 a 1.8714437,1.8714437 0 0 1 -0.59099,-1.40712 1.9417985,1.9417985 0 0 1 0.59099,-1.40708 2.0121536,2.0121536 0 0 1 1.49152,-0.59098 2.0965796,2.0965796 0 0 1 1.47746,0.56283 1.8433016,1.8433016 0 0 1 0.59098,1.4071 1.9699405,1.9699405 0 0 1 -0.59098,1.40711 1.9980826,1.9980826 0 0 1 -1.47746,0.59098 2.0543667,2.0543667 0 0 1 -1.49152,-0.56284 z m 0,3.82731 h 3.06747 v 16.8852 h -3.06747 z"
     id="path18"
     inkscape:connector-curvature="0"
     style="fill:#91002c;stroke-width:1.40710032" />
  <path
     class="cls-2"
     d="m 227.30906,184.89294 a 7.3169222,7.3169222 0 0 1 1.89959,5.45954 v 9.73715 h -3.0534 v -9.38535 a 5.1922004,5.1922004 0 0 0 -1.18197,-3.70068 4.4464373,4.4464373 0 0 0 -3.39112,-1.23826 5.2625557,5.2625557 0 0 0 -3.92581,1.40709 5.6284017,5.6284016 0 0 0 -1.40709,4.22133 v 8.70995 h -3.05341 V 183.2185 h 2.92677 v 2.56092 a 5.9238928,5.9238928 0 0 1 2.50463,-2.01217 8.8225197,8.8225197 0 0 1 3.58811,-0.70353 6.951076,6.951076 0 0 1 5.0937,1.82922 z"
     id="path20"
     inkscape:connector-curvature="0"
     style="fill:#91002c;stroke-width:1.40710032" />
  <path
     class="cls-2"
     d="m 246.43155,184.73818 a 6.697798,6.697798 0 0 1 1.85736,5.13589 v 10.21556 h -2.8986 v -2.2373 a 4.7841415,4.7841415 0 0 1 -2.18102,1.80111 8.2596795,8.2596795 0 0 1 -3.37704,0.63319 7.0355021,7.0355021 0 0 1 -4.54493,-1.40712 4.3760824,4.3760824 0 0 1 -1.70258,-3.60217 4.4323663,4.4323663 0 0 1 1.63223,-3.5881 8.0204724,8.0204724 0 0 1 5.16405,-1.40711 h 4.8545 v -0.60505 a 3.9398812,3.9398812 0 0 0 -1.15381,-3.02526 4.8404255,4.8404255 0 0 0 -3.37705,-1.05533 9.1461527,9.1461527 0 0 0 -2.94084,0.49249 7.8094073,7.8094073 0 0 0 -2.42021,1.32266 l -1.28048,-2.29355 a 9.1180107,9.1180107 0 0 1 3.12378,-1.60411 12.874969,12.874969 0 0 1 3.86952,-0.56284 7.7109102,7.7109102 0 0 1 5.37512,1.78704 z m -3.0534,12.39654 a 4.4886505,4.4886504 0 0 0 1.85737,-2.20915 v -2.36393 h -4.72786 c -2.58905,0 -3.89766,0.87241 -3.89766,2.61721 a 2.3920706,2.3920706 0 0 0 0.99905,2.01215 4.4745794,4.4745794 0 0 0 2.74382,0.73169 5.6284017,5.6284016 0 0 0 3.02528,-0.78797 z"
     id="path22"
     inkscape:connector-curvature="0"
     style="fill:#91002c;stroke-width:1.40710032" />
  <path
     class="cls-2"
     d="m 259.26432,183.78133 a 8.6255257,8.6255257 0 0 1 3.79916,-0.75984 v 2.96899 a 4.7982125,4.7982125 0 0 0 -0.70354,0 5.1499875,5.1499875 0 0 0 -3.89766,1.40708 5.8113248,5.8113248 0 0 0 -1.40712,4.22133 v 8.44259 h -3.06748 v -16.8852 h 2.94083 v 2.8142 a 5.2484846,5.2484846 0 0 1 2.33581,-2.20915 z"
     id="path24"
     inkscape:connector-curvature="0"
     style="fill:#91002c;stroke-width:1.40710032" />
  <path
     class="cls-2"
     d="m 282.01714,183.17628 -8.20341,18.60186 a 8.3018925,8.3018925 0 0 1 -2.53278,3.6444 5.7691117,5.7691117 0 0 1 -3.4896,1.05532 7.3169222,7.3169222 0 0 1 -2.40615,-0.40805 5.0233487,5.0233487 0 0 1 -1.9418,-1.15382 l 1.3086,-2.30764 a 4.2213011,4.2213011 0 0 0 3.03935,1.25231 2.9408399,2.9408399 0 0 0 1.87143,-0.59099 5.1499875,5.1499875 0 0 0 1.40712,-2.02624 l 0.54876,-1.18195 -7.4717,-16.8852 h 3.19412 l 5.89575,13.53631 5.83947,-13.53631 z"
     id="path26"
     inkscape:connector-curvature="0"
     style="fill:#91002c;stroke-width:1.40710032" />
  <path
     class="cls-2"
     d="m 325.48246,177.75895 -7.4717,22.33068 h -3.34889 l -6.09275,-17.84202 -6.09274,17.84202 h -3.41927 l -7.45763,-22.33068 h 3.27854 l 6.03646,18.1516 6.27567,-18.1516 h 2.94086 l 6.16307,18.29229 6.14904,-18.29229 z"
     id="path28"
     inkscape:connector-curvature="0"
     style="fill:#91002c;stroke-width:1.40710032" />
  <path
     class="cls-2"
     d="m 332.12398,199.16094 a 8.0908276,8.0908274 0 0 1 -3.15193,-3.08155 9.3431469,9.3431469 0 0 1 0,-8.89288 7.9641885,7.9641885 0 0 1 3.15193,-3.06747 9.8497029,9.8497029 0 0 1 9.03357,0 8.0204724,8.0204724 0 0 1 3.13784,3.06747 9.3431469,9.3431469 0 0 1 0,8.89288 8.1471114,8.1471114 0 0 1 -3.13784,3.08155 9.6245668,9.6245668 0 0 1 -9.03357,0 z m 7.44355,-2.30764 a 5.3188396,5.3188396 0 0 0 2.02623,-2.11066 7.0355021,7.0355021 0 0 0 0,-6.21938 5.2906976,5.2906976 0 0 0 -2.02623,-2.09657 6.1912418,6.1912418 0 0 0 -5.83947,0 5.3188396,5.3188396 0 0 0 -2.04027,2.09657 6.8525791,6.8525791 0 0 0 0,6.21938 5.3610525,5.3610525 0 0 0 2.04027,2.11066 6.0927448,6.0927448 0 0 0 5.83947,0 z"
     id="path30"
     inkscape:connector-curvature="0"
     style="fill:#91002c;stroke-width:1.40710032" />
  <path
     class="cls-2"
     d="m 354.96121,183.78133 a 8.6255257,8.6255257 0 0 1 3.79918,-0.75984 v 2.96899 a 4.8967094,4.8967094 0 0 0 -0.70356,0 5.1922004,5.1922004 0 0 0 -3.91173,1.40708 5.8676088,5.8676088 0 0 0 -1.4071,4.22133 v 8.44259 h -3.05341 v -16.8852 h 2.92677 v 2.8142 a 5.3610525,5.3610525 0 0 1 2.34985,-2.20915 z"
     id="path32"
     inkscape:connector-curvature="0"
     style="fill:#91002c;stroke-width:1.40710032" />
  <path
     class="cls-2"
     d="m 362.78469,176.40814 h 3.06748 v 23.68149 h -3.06748 z"
     id="path34"
     inkscape:connector-curvature="0"
     style="fill:#91002c;stroke-width:1.40710032" />
  <path
     class="cls-2"
     d="m 387.60596,176.40814 v 23.68149 h -2.94086 v -2.6735 a 6.669656,6.669656 0 0 1 -2.57498,2.1388 8.1752535,8.1752535 0 0 1 -3.44742,0.7317 8.9210167,8.9210167 0 0 1 -4.40422,-1.08346 7.9641885,7.9641885 0 0 1 -3.0534,-3.05343 9.8497029,9.8497029 0 0 1 0,-9.0195 7.8797624,7.8797623 0 0 1 3.0534,-3.02528 8.9210167,8.9210167 0 0 1 4.40422,-1.08347 8.0204724,8.0204724 0 0 1 3.34891,0.68948 6.289739,6.2897389 0 0 1 2.54686,2.02623 v -9.32906 z m -5.81134,20.44516 a 5.1781296,5.1781295 0 0 0 2.04029,-2.11066 6.8525791,6.8525791 0 0 0 0,-6.21938 5.1359166,5.1359166 0 0 0 -2.04029,-2.09657 6.1349578,6.1349578 0 0 0 -5.81133,0 5.3469816,5.3469816 0 0 0 -2.05437,2.09657 6.8525791,6.8525791 0 0 0 0,6.21938 5.3891945,5.3891945 0 0 0 2.05437,2.11066 6.0364608,6.0364608 0 0 0 5.81133,0 z"
     id="path36"
     inkscape:connector-curvature="0"
     style="fill:#91002c;stroke-width:1.40710032" />
  <path
     class="cls-2"
     d="m 404.41763,199.24631 a 10.806532,10.806532 0 0 1 -4.22131,-4.08057 11.932212,11.932212 0 0 1 0,-11.70708 10.975383,10.975383 0 0 1 4.22131,-4.09467 12.480981,12.480981 0 0 1 6.06461,-1.47744 12.804612,12.804612 0 0 1 4.78413,0.87238 9.8497029,9.8497029 0 0 1 3.70067,2.60314 l -2.06844,2.01216 a 8.4426026,8.4426026 0 0 0 -6.28974,-2.64534 9.1320817,9.1320817 0 0 0 -4.50271,1.11159 8.1471114,8.1471114 0 0 0 -3.13783,3.08156 9.0195138,9.0195138 0 0 0 0,8.78031 8.0204724,8.0204724 0 0 0 3.13783,3.06747 9.1320817,9.1320817 0 0 0 4.50271,1.12569 8.3581765,8.3581765 0 0 0 6.28974,-2.68757 l 2.06844,2.01215 a 9.6949218,9.6949218 0 0 1 -3.71474,2.61721 12.663904,12.663904 0 0 1 -4.7982,0.90057 12.241773,12.241773 0 0 1 -6.03647,-1.49156 z"
     id="path38"
     inkscape:connector-curvature="0"
     style="fill:#91002c;stroke-width:1.40710032" />
  <path
     class="cls-2"
     d="m 428.39461,184.17626 a 8.4426026,8.4426026 0 0 1 3.79918,-0.77388 v 2.96897 h -0.70357 a 5.1922004,5.1922004 0 0 0 -3.91172,1.40709 5.9238928,5.9238928 0 0 0 -1.40711,4.22131 v 8.44259 h -3.06748 v -16.88518 h 2.92677 v 2.81419 a 5.2484846,5.2484846 0 0 1 2.36393,-2.19509 z"
     id="path40"
     inkscape:connector-curvature="0"
     style="fill:#91002c;stroke-width:1.40710032" />
  <path
     class="cls-2"
     d="m 451.4007,193.041 h -13.71923 a 5.2906976,5.2906976 0 0 0 1.96995,3.58811 6.3460229,6.3460229 0 0 0 4.22131,1.40712 6.2756679,6.2756679 0 0 0 4.86857,-2.04032 l 1.70259,1.96995 a 7.3450642,7.3450642 0 0 1 -2.8142,2.04029 10.77839,10.77839 0 0 1 -8.56926,-0.39398 7.8797624,7.8797623 0 0 1 -3.20818,-3.08156 8.7662356,8.7662356 0 0 1 -1.13975,-4.46049 8.8788037,8.8788037 0 0 1 1.11161,-4.44645 7.9219753,7.9219753 0 0 1 3.02527,-3.06748 8.5692415,8.5692414 0 0 1 4.36201,-1.1116 8.4426026,8.4426026 0 0 1 4.3198,1.1116 7.7812655,7.7812655 0 0 1 2.96898,3.06748 9.4979279,9.4979279 0 0 1 1.0694,4.53087 9.0757979,9.0757979 0 0 1 -0.16887,0.88646 z m -11.97441,-5.71282 a 5.3891945,5.3891945 0 0 0 -1.74482,3.51774 h 10.84875 a 5.4736208,5.4736208 0 0 0 -1.73074,-3.50366 5.7268987,5.7268987 0 0 0 -7.37319,0 z"
     id="path42"
     inkscape:connector-curvature="0"
     style="fill:#91002c;stroke-width:1.40710032" />
  <path
     class="cls-2"
     d="m 467.24466,185.1331 a 6.599301,6.599301 0 0 1 1.87144,5.13593 v 10.21554 h -2.91269 v -2.2373 a 4.8685674,4.8685674 0 0 1 -2.18101,1.80108 8.4426026,8.4426026 0 0 1 -3.36297,0.61913 7.0355021,7.0355021 0 0 1 -4.54494,-1.4071 4.4182953,4.4182953 0 0 1 -1.71666,-3.61623 4.4745794,4.4745794 0 0 1 1.63223,-3.58812 8.0486143,8.0486143 0 0 1 5.16407,-1.40709 h 4.85449 v -0.60505 a 3.8976683,3.8976683 0 0 0 -1.15382,-3.03933 4.8122835,4.8122835 0 0 0 -3.37704,-1.04128 8.7803067,8.7803065 0 0 0 -2.94082,0.4925 7.2606381,7.2606381 0 0 0 -2.42022,1.32266 l -1.28048,-2.30764 a 9.3009338,9.3009338 0 0 1 3.13784,-1.60409 13.226744,13.226744 0 0 1 3.85546,-0.56283 7.6264843,7.6264843 0 0 1 5.37512,1.82922 z m -3.03934,12.39656 a 4.4886505,4.4886504 0 0 0 1.8433,-2.22322 v -2.36393 h -4.72787 q -3.88358,0 -3.88358,2.61721 a 2.3639287,2.3639287 0 0 0 0.98497,2.01213 4.5027213,4.5027213 0 0 0 2.74384,0.73171 5.7409697,5.7409697 0 0 0 3.03934,-0.7739 z"
     id="path44"
     inkscape:connector-curvature="0"
     style="fill:#91002c;stroke-width:1.40710032" />
  <path
     class="cls-2"
     d="m 484.27057,199.48551 a 4.7982125,4.7982125 0 0 1 -1.66036,0.88648 7.0355021,7.0355021 0 0 1 -2.04031,0.29549 5.4032657,5.4032657 0 0 1 -3.95395,-1.4071 5.2203425,5.2203425 0 0 1 -1.4071,-3.92579 v -9.24468 h -2.8142 v -2.51868 h 2.8142 v -3.70069 h 3.06747 v 3.70069 h 4.8545 v 2.51868 h -4.8545 v 9.16025 a 2.926769,2.9267688 0 0 0 0.68948,2.09656 2.5327807,2.5327807 0 0 0 1.95588,0.73171 3.658461,3.658461 0 0 0 2.39208,-0.78798 z"
     id="path46"
     inkscape:connector-curvature="0"
     style="fill:#91002c;stroke-width:1.40710032" />
  <path
     class="cls-2"
     d="m 490.7151,199.55588 a 8.0626855,8.0626855 0 0 1 -3.13784,-3.08154 9.2727918,9.2727918 0 0 1 0,-8.90694 7.8938334,7.8938334 0 0 1 3.13784,-3.05342 9.765277,9.765277 0 0 1 9.04764,0 8.0486143,8.0486143 0 0 1 3.12378,3.05342 9.2727918,9.2727918 0 0 1 0,8.90694 8.2174664,8.2174664 0 0 1 -3.12378,3.08154 9.765277,9.765277 0 0 1 -9.04764,0 z m 7.45764,-2.32173 a 5.1640585,5.1640585 0 0 0 2.01215,-2.09655 6.8807211,6.8807211 0 0 0 0,-6.23348 5.1218454,5.1218454 0 0 0 -2.01215,-2.0825 6.2193838,6.2193838 0 0 0 -5.85354,0 5.3751237,5.3751237 0 0 0 -2.0403,2.0825 6.8807211,6.8807211 0 0 0 0,6.23348 5.4173367,5.4173367 0 0 0 2.0403,2.09655 6.0223898,6.0223898 0 0 0 5.85354,0 z"
     id="path48"
     inkscape:connector-curvature="0"
     style="fill:#91002c;stroke-width:1.40710032" />
  <path
     class="cls-2"
     d="m 513.56642,184.17626 a 8.4426026,8.4426026 0 0 1 3.79916,-0.77388 v 2.96897 h -0.70356 a 5.1640585,5.1640585 0 0 0 -3.91173,1.40709 5.9238928,5.9238928 0 0 0 -1.40711,4.22131 v 8.44259 h -3.06747 v -16.88518 h 2.94083 v 2.81419 a 5.2484846,5.2484846 0 0 1 2.34988,-2.19509 z"
     id="path50"
     inkscape:connector-curvature="0"
     style="fill:#91002c;stroke-width:1.40710032" />
  <path
     class="cls-2"
     d="m 522.26229,200.16093 a 8.7521646,8.7521646 0 0 1 -2.99713,-1.4071 l 1.28048,-2.43428 a 9.1742947,9.1742947 0 0 0 2.71569,1.28046 10.905028,10.905028 0 0 0 3.22226,0.47842 c 2.67349,0 4.01023,-0.75984 4.01023,-2.29356 a 1.5337394,1.5337394 0 0 0 -0.5347,-1.2242 3.5177511,3.5177511 0 0 0 -1.4071,-0.64727 c -0.53469,-0.1407 -1.3086,-0.29548 -2.30765,-0.46433 a 21.71156,21.71156 0 0 1 -3.33481,-0.73169 5.2203425,5.2203425 0 0 1 -2.22321,-1.40711 3.8835972,3.8835972 0 0 1 -0.91463,-2.8142 4.3338693,4.3338693 0 0 1 1.91366,-3.6866 8.5129575,8.5129575 0 0 1 5.13592,-1.40709 13.874011,13.874011 0 0 1 3.37703,0.42212 8.8928747,8.8928747 0 0 1 2.8142,1.1116 l -1.3086,2.42022 a 8.7943777,8.7943777 0 0 0 -4.86856,-1.40711 5.5017626,5.5017626 0 0 0 -2.96898,0.64727 1.8995856,1.8995856 0 0 0 -1.0272,1.68852 1.6322364,1.6322364 0 0 0 0.57692,1.30863 3.8413842,3.8413842 0 0 0 1.40711,0.70354 c 0.56284,0.14071 1.4071,0.30955 2.378,0.50655 a 26.369062,26.369062 0 0 1 3.2926,0.74575 4.8263545,4.8263545 0 0 1 2.15288,1.4071 3.7006742,3.7006742 0 0 1 0.90054,2.6735 4.2213011,4.2213011 0 0 1 -1.96994,3.65847 9.2305789,9.2305788 0 0 1 -5.33293,1.40708 13.930294,13.930294 0 0 1 -3.98208,-0.53469 z"
     id="path52"
     inkscape:connector-curvature="0"
     style="fill:#91002c;stroke-width:1.40710032" />
  <path
     class="cls-2"
     d="m 539.58369,177.2252 a 2.1950767,2.1950767 0 0 1 0.59098,1.5478 4.2213011,4.2213011 0 0 1 -0.0986,0.94276 8.5270286,8.5270286 0 0 1 -0.40806,1.32269 l -1.53374,4.47457 h -2.01216 l 1.18196,-4.75599 a 1.9699405,1.9699405 0 0 1 -0.97089,-0.74579 2.0402955,2.0402955 0 0 1 -0.36585,-1.23824 2.0684376,2.0684376 0 0 1 2.12472,-2.16694 1.9840118,1.9840118 0 0 1 1.49154,0.61914 z"
     id="path54"
     inkscape:connector-curvature="0"
     style="fill:#91002c;stroke-width:1.40710032" />
  <path
     class="cls-2"
     d="m 557.55236,199.24631 a 10.93317,10.93317 0 0 1 -4.22128,-4.08057 11.932212,11.932212 0 0 1 0,-11.70708 11.017596,11.017596 0 0 1 4.22128,-4.09467 12.438767,12.438767 0 0 1 6.0646,-1.47744 12.804612,12.804612 0 0 1 4.78416,0.87238 9.9904131,9.9904131 0 0 1 3.70068,2.60314 l -1.9981,2.01216 a 8.3159635,8.3159635 0 0 0 -6.27567,-2.64534 9.0898687,9.0898687 0 0 0 -4.50272,1.11159 8.0626855,8.0626855 0 0 0 -3.13783,3.08156 9.0195138,9.0195138 0 0 0 0,8.78031 7.9219753,7.9219753 0 0 0 3.13783,3.06747 9.1039397,9.1039397 0 0 0 4.50272,1.12569 8.3159635,8.3159635 0 0 0 6.27567,-2.68757 l 2.08252,2.01215 a 9.8497029,9.8497029 0 0 1 -3.71475,2.61721 12.734258,12.734258 0 0 1 -4.81228,0.90057 12.18549,12.18549 0 0 1 -6.10683,-1.49156 z"
     id="path56"
     inkscape:connector-curvature="0"
     style="fill:#91002c;stroke-width:1.40710032" />
  <path
     class="cls-2"
     d="m 578.94029,199.55588 a 8.0626855,8.0626855 0 0 1 -3.13784,-3.08154 9.2727918,9.2727918 0 0 1 0,-8.90694 7.8938334,7.8938334 0 0 1 3.13784,-3.05342 9.765277,9.765277 0 0 1 9.04766,0 7.8516204,7.8516204 0 0 1 3.12374,3.05342 9.2727918,9.2727918 0 0 1 0,8.90694 8.0204724,8.0204724 0 0 1 -3.12374,3.08154 9.765277,9.765277 0 0 1 -9.04766,0 z m 7.45765,-2.32173 a 5.2906976,5.2906976 0 0 0 2.02622,-2.09655 7.0355021,7.0355021 0 0 0 0,-6.23348 5.2484846,5.2484846 0 0 0 -2.02622,-2.0825 5.8253958,5.8253958 0 0 0 -2.92678,-0.73171 5.7409697,5.7409697 0 0 0 -2.9127,0.73171 5.3188396,5.3188396 0 0 0 -2.01216,2.0825 6.8807211,6.8807211 0 0 0 0,6.23348 5.3469816,5.3469816 0 0 0 2.05437,2.09655 5.6284017,5.6284016 0 0 0 2.9127,0.75985 5.7128278,5.7128278 0 0 0 2.88457,-0.75985 z"
     id="path58"
     inkscape:connector-curvature="0"
     style="fill:#91002c;stroke-width:1.40710032" />
  <path
     class="cls-2"
     d="m 610.64226,185.2738 a 7.3309931,7.3309931 0 0 1 1.89959,5.47364 v 9.73713 h -3.03933 v -9.38537 a 5.1781296,5.1781295 0 0 0 -1.18197,-3.70066 4.4323663,4.4323663 0 0 0 -3.37704,-1.25232 5.3188396,5.3188396 0 0 0 -3.92582,1.40709 5.6284017,5.6284016 0 0 0 -1.4071,4.2213 v 8.72402 h -3.06747 v -16.8852 h 2.94085 v 2.47648 a 5.9238928,5.9238928 0 0 1 2.50463,-2.01212 8.8225197,8.8225197 0 0 1 3.58809,-0.70356 7.0355021,7.0355021 0 0 1 5.06557,1.89957 z"
     id="path60"
     inkscape:connector-curvature="0"
     style="fill:#91002c;stroke-width:1.40710032" />
  <path
     class="cls-2"
     d="m 621.67393,182.09376 v 1.47747 h 4.9108 v 2.51868 h -4.85452 v 14.39466 h -3.06748 v -14.39466 h -2.8142 v -2.51868 h 2.8142 v -1.50561 a 5.3469816,5.3469816 0 0 1 1.40711,-3.98209 5.5299046,5.5299046 0 0 1 4.10872,-1.47747 6.922934,6.922934 0 0 1 1.91366,0.25328 4.4605084,4.4605084 0 0 1 1.53375,0.74578 l -0.92868,2.32171 a 3.742887,3.742887 0 0 0 -2.34986,-0.80204 c -1.75887,0 -2.6735,0.99904 -2.6735,2.96897 z"
     id="path62"
     inkscape:connector-curvature="0"
     style="fill:#91002c;stroke-width:1.40710032" />
  <path
     class="cls-2"
     d="m 644.68003,193.041 h -13.71924 a 5.2766266,5.2766266 0 0 0 1.95588,3.58811 6.9370052,6.9370052 0 0 0 9.04764,-0.6754 l 1.68852,1.96994 a 7.2465672,7.2465672 0 0 1 -2.81421,2.04029 10.77839,10.77839 0 0 1 -8.56921,-0.39399 7.7531235,7.7531235 0 0 1 -3.19413,-3.08154 8.7662356,8.7662356 0 0 1 -1.13975,-4.46051 9.0195138,9.0195138 0 0 1 1.09753,-4.44644 7.8656913,7.8656913 0 0 1 3.03933,-3.06748 9.0335847,9.0335847 0 0 1 8.68181,0 7.7531235,7.7531235 0 0 1 2.95492,3.06748 9.3290757,9.3290757 0 0 1 1.06939,4.53085 8.4426026,8.4426026 0 0 1 -0.0985,0.92869 z m -11.9885,-5.71282 a 5.4314076,5.4314076 0 0 0 -1.73074,3.51774 h 10.90504 a 5.4876917,5.4876917 0 0 0 -1.7448,-3.50366 5.2484846,5.2484846 0 0 0 -3.6866,-1.4071 5.3469816,5.3469816 0 0 0 -3.71475,1.39302 z"
     id="path64"
     inkscape:connector-curvature="0"
     style="fill:#91002c;stroke-width:1.40710032" />
  <path
     class="cls-2"
     d="m 654.30459,184.17626 a 8.4426026,8.4426026 0 0 1 3.79918,-0.77388 v 2.96897 h -0.70355 a 5.1359166,5.1359166 0 0 0 -3.89767,1.40709 5.8676088,5.8676088 0 0 0 -1.40711,4.22131 v 8.44259 h -3.06748 v -16.88518 h 2.94085 v 2.81419 a 5.1499875,5.1499875 0 0 1 2.33578,-2.19509 z"
     id="path66"
     inkscape:connector-curvature="0"
     style="fill:#91002c;stroke-width:1.40710032" />
  <path
     class="cls-2"
     d="m 677.31068,193.041 h -13.71923 a 5.2906976,5.2906976 0 0 0 1.96996,3.58811 6.9370052,6.9370052 0 0 0 9.04763,-0.6754 l 1.68852,1.96994 a 7.3450642,7.3450642 0 0 1 -2.81419,2.04029 10.77839,10.77839 0 0 1 -8.56924,-0.39399 7.8797624,7.8797623 0 0 1 -3.20818,-3.08154 8.7521646,8.7521646 0 0 1 -1.12568,-4.46051 9.0195138,9.0195138 0 0 1 1.09754,-4.44644 7.9219753,7.9219753 0 0 1 3.02524,-3.06748 8.5692415,8.5692414 0 0 1 4.36202,-1.1116 8.3300345,8.3300344 0 0 1 4.3198,1.1116 7.7812655,7.7812655 0 0 1 2.96898,3.06748 9.3290757,9.3290757 0 0 1 1.0694,4.53085 9.0757979,9.0757979 0 0 1 -0.11252,0.92869 z m -11.97441,-5.71282 a 5.4454787,5.4454787 0 0 0 -1.74482,3.51774 h 10.84875 a 5.4736208,5.4736208 0 0 0 -1.73074,-3.50366 5.7268987,5.7268987 0 0 0 -7.37319,0 z"
     id="path68"
     inkscape:connector-curvature="0"
     style="fill:#91002c;stroke-width:1.40710032" />
  <path
     class="cls-2"
     d="m 695.77184,185.2738 a 7.3309931,7.3309931 0 0 1 1.89959,5.47364 v 9.73713 h -3.06747 v -9.38537 a 5.1640585,5.1640585 0 0 0 -1.16792,-3.70066 4.4464373,4.4464373 0 0 0 -3.3911,-1.25232 5.3188396,5.3188396 0 0 0 -3.92582,1.40709 5.6284017,5.6284016 0 0 0 -1.40709,4.2213 v 8.72402 h -3.06748 v -16.8852 h 2.94084 v 2.47648 a 5.9238928,5.9238928 0 0 1 2.50464,-2.01212 8.8225197,8.8225197 0 0 1 3.58811,-0.70356 7.0355021,7.0355021 0 0 1 5.0937,1.89957 z"
     id="path70"
     inkscape:connector-curvature="0"
     style="fill:#91002c;stroke-width:1.40710032" />
  <path
     class="cls-2"
     d="m 706.11404,199.55588 a 8.2596795,8.2596795 0 0 1 -3.18004,-3.08154 9.2727918,9.2727918 0 0 1 0,-8.90694 8.0908276,8.0908274 0 0 1 3.18004,-3.05342 9.3712888,9.3712888 0 0 1 4.61528,-1.1116 8.7803067,8.7803065 0 0 1 4.09466,0.92868 6.430449,6.430449 0 0 1 2.81419,2.68756 l -2.3217,1.49152 a 5.3047685,5.3047685 0 0 0 -1.98402,-1.81515 5.6284017,5.6284016 0 0 0 -2.6172,-0.60508 6.0505318,6.0505318 0 0 0 -2.98307,0.73171 5.2625557,5.2625557 0 0 0 -2.06843,2.0825 6.951076,6.951076 0 0 0 0,6.26162 5.2906976,5.2906976 0 0 0 2.06843,2.09656 6.2053129,6.2053129 0 0 0 2.98307,0.7317 5.7831828,5.7831828 0 0 0 2.6172,-0.60505 5.2344136,5.2344136 0 0 0 1.98402,-1.82923 l 2.3217,1.47745 a 6.5008039,6.5008039 0 0 1 -2.81419,2.68757 8.6114546,8.6114546 0 0 1 -4.09466,0.94274 9.3712888,9.3712888 0 0 1 -4.61528,-1.1116 z"
     id="path72"
     inkscape:connector-curvature="0"
     style="fill:#91002c;stroke-width:1.40710032" />
  <path
     class="cls-2"
     d="m 736.78883,193.041 h -13.71924 a 5.2906976,5.2906976 0 0 0 1.96994,3.58811 6.9370052,6.9370052 0 0 0 9.04766,-0.6754 l 1.68852,1.96994 a 7.3450642,7.3450642 0 0 1 -2.8142,2.04029 10.77839,10.77839 0 0 1 -8.56926,-0.39399 7.8797624,7.8797623 0 0 1 -3.20818,-3.08154 8.7521646,8.7521646 0 0 1 -1.12568,-4.46051 9.0195138,9.0195138 0 0 1 1.09755,-4.44644 7.9219753,7.9219753 0 0 1 3.02527,-3.06748 8.5692415,8.5692414 0 0 1 4.36199,-1.1116 8.3300345,8.3300344 0 0 1 4.31981,1.1116 7.7812655,7.7812655 0 0 1 2.96899,3.06748 9.3290757,9.3290757 0 0 1 1.06939,4.53085 9.0757979,9.0757979 0 0 1 -0.11252,0.92869 z m -11.90408,-5.71282 a 5.4454787,5.4454787 0 0 0 -1.74481,3.51774 h 10.84875 a 5.4736208,5.4736208 0 0 0 -1.73073,-3.50366 5.7268987,5.7268987 0 0 0 -7.37321,0 z"
     id="path74"
     inkscape:connector-curvature="0"
     style="fill:#91002c;stroke-width:1.40710032" />
  <path
     class="cls-2"
     d="m 403.13082,137.72861 v 5.62945 H 371.0429 v -4.33469 l 18.18316,-17.56391 a 21.701568,21.701567 0 0 0 4.47543,-5.62943 10.611532,10.611532 0 0 0 1.15404,-4.70061 6.5301734,6.5301734 0 0 0 -2.47698,-5.46058 11.090036,11.090035 0 0 0 -7.00864,-1.71697 14.07365,14.07365 0 0 0 -11.42784,4.86948 l -4.33468,-3.77177 a 17.254295,17.254295 0 0 1 6.8398,-4.98206 24.460004,24.460004 0 0 1 9.48563,-1.80141 17.338737,17.338737 0 0 1 11.25894,3.34951 11.090036,11.090035 0 0 1 4.13765,9.09158 15.621753,15.621753 0 0 1 -1.51997,6.7835 26.458462,26.458462 0 0 1 -5.79833,7.26199 l -13.79218,12.97592 z"
     id="path76"
     style="fill:#8a8000;fill-opacity:1;stroke-width:2.81473017"
     inkscape:connector-curvature="0" />
  <path
     class="cls-2"
     d="m 417.20447,141.13442 a 18.492777,18.492776 0 0 1 -6.47388,-7.88122 32.960487,32.960487 0 0 1 0,-24.51629 18.155006,18.155006 0 0 1 6.47388,-7.88124 16.606905,16.606905 0 0 1 9.42934,-2.81474 16.409876,16.409876 0 0 1 9.34492,2.81474 17.957978,17.957978 0 0 1 6.47388,7.88124 32.960487,32.960487 0 0 1 0,24.51629 18.295745,18.295745 0 0 1 -6.47388,7.88122 16.606905,16.606905 0 0 1 -9.34492,2.81472 16.88838,16.88838 0 0 1 -9.42934,-2.81472 z m 18.01428,-7.37457 a 26.993259,26.993259 0 0 0 0,-25.52958 10.611532,10.611532 0 0 0 -17.22614,0 26.796227,26.796227 0 0 0 0,25.52958 10.639679,10.639679 0 0 0 17.22614,0 z"
     id="path78"
     style="fill:#8a8000;fill-opacity:1;stroke-width:2.81473017"
     inkscape:connector-curvature="0" />
  <path
     class="cls-2"
     d="m 496.74033,153.82295 v 8.23223 H 449.7753 v -6.33886 l 26.59016,-25.68475 a 31.735406,31.735406 0 0 0 6.54473,-8.23223 15.517831,15.517831 0 0 0 1.68755,-6.87388 9.631757,9.631757 0 0 0 -3.58105,-7.98529 16.464544,16.464544 0 0 0 -10.33146,-2.84016 20.580679,20.580679 0 0 0 -16.71153,7.12091 l -6.33884,-5.51561 a 25.108428,25.108428 0 0 1 10.04337,-7.2856 35.398767,35.398767 0 0 1 13.83021,-2.634346 25.273074,25.273075 0 0 1 16.4646,4.898206 16.464544,16.464544 0 0 1 6.09183,13.29518 22.885714,22.885714 0 0 1 -2.2639,9.91992 38.691669,38.691669 0 0 1 -8.47921,10.61953 l -20.08674,19.30475 z"
     id="path80"
     style="fill:#8a8000;fill-opacity:1;stroke-width:4.11613607"
     inkscape:connector-curvature="0" />
  <path
     class="cls-2"
     d="m 581.19003,95.128715 v 29.962975 h -4.28041 v -13.35037 h -17.17826 v 13.35037 h -4.28043 V 95.128715 h 4.28043 V 108.0077 h 17.17826 V 95.128715 Z"
     id="path84"
     inkscape:connector-curvature="0"
     style="fill:#db5425;fill-opacity:1;stroke-width:1.88564909" />
  <path
     class="cls-2"
     d="m 609.2485,117.5491 h -15.91491 l -3.29986,7.54259 h -4.39355 l 13.55777,-29.944112 h 4.22388 l 13.59555,29.944112 h -4.48789 z m -1.50854,-3.41304 -6.44894,-14.67037 -6.43003,14.70807 z"
     id="path86"
     inkscape:connector-curvature="0"
     style="fill:#db5425;fill-opacity:1;stroke-width:1.88564909" />
  <path
     class="cls-2"
     d="m 641.49309,125.09169 -6.46779,-9.20195 c -0.79194,0 -1.43306,0 -1.88562,0 h -7.39175 v 9.20195 H 621.4675 V 95.128715 h 11.67218 a 13.91609,13.91609 0 0 1 9.16425,2.790769 9.4282458,9.4282458 0 0 1 3.31873,7.655706 10.088223,10.088223 0 0 1 -1.69709,5.90211 9.6922367,9.6922367 0 0 1 -4.88382,3.54501 l 7.10891,10.06938 z m -2.28164,-14.50063 a 6.0717901,6.0717901 0 0 0 2.14966,-4.99699 6.015221,6.0152205 0 0 0 -2.14966,-4.9781 9.4282458,9.4282458 0 0 0 -6.18493,-1.73482 h -7.27859 v 13.46357 h 7.27859 a 9.4282458,9.4282458 0 0 0 6.18493,-1.77253 z"
     id="path88"
     inkscape:connector-curvature="0"
     style="fill:#db5425;fill-opacity:1;stroke-width:1.88564909" />
  <path
     class="cls-2"
     d="m 678.56497,95.128715 -13.19954,29.944125 h -4.22389 L 647.942,95.128715 h 4.61983 l 10.78595,24.513465 10.86132,-24.513465 z"
     id="path90"
     inkscape:connector-curvature="0"
     style="fill:#db5425;fill-opacity:1;stroke-width:1.88564909" />
  <path
     class="cls-2"
     d="m 704.71891,121.32039 v 3.7713 H 682.99623 V 95.128715 h 21.23242 V 98.9 h -16.97087 v 9.22083 h 15.08519 v 3.63932 h -15.08519 v 9.56024 z"
     id="path92"
     inkscape:connector-curvature="0"
     style="fill:#db5425;fill-opacity:1;stroke-width:1.88564909" />
  <path
     class="cls-2"
     d="m 713.86431,124.35628 a 13.199544,13.199544 0 0 1 -4.9404,-2.71534 l 1.58395,-3.31874 a 13.199544,13.199544 0 0 0 4.37469,2.48907 16.084587,16.084586 0 0 0 5.48725,0.96166 9.8242319,9.8242319 0 0 0 5.65695,-1.26338 3.8844372,3.884437 0 0 0 1.88564,-3.35647 3.2621733,3.2621732 0 0 0 -1.01826,-2.48904 6.8637627,6.8637627 0 0 0 -2.47017,-1.48966 c -0.98058,-0.3394 -2.37592,-0.71654 -4.16728,-1.15023 a 39.334641,39.334641 0 0 1 -5.44956,-1.62168 9.1076854,9.1076855 0 0 1 -3.56388,-2.5079 6.6563414,6.6563414 0 0 1 -1.4708,-4.54444 7.5425966,7.5425966 0 0 1 1.26341,-4.31812 8.5797037,8.5797037 0 0 1 3.77127,-3.07362 15.462323,15.462323 0 0 1 6.3735,-1.169102 19.591895,19.591895 0 0 1 5.22325,0.697728 14.010373,14.010373 0 0 1 4.39358,1.885628 l -1.41426,3.413026 A 15.443466,15.443466 0 0 0 725.36675,98.9 a 14.915484,14.915484 0 0 0 -4.18613,-0.62226 9.3151067,9.3151067 0 0 0 -5.44954,1.31998 4.110715,4.110715 0 0 0 -1.88565,3.43187 3.2810293,3.2810293 0 0 0 1.03712,2.48905 7.0711842,7.071184 0 0 0 2.54565,1.50852 36.921011,36.92101 0 0 0 4.12955,1.13141 42.67224,42.67224 0 0 1 5.4307,1.62164 9.2585371,9.2585372 0 0 1 3.52614,2.48907 6.524346,6.524346 0 0 1 1.47081,4.48784 7.7123048,7.7123048 0 0 1 -1.28226,4.29927 8.6362731,8.6362731 0 0 1 -3.88443,3.07361 16.216583,16.216583 0 0 1 -6.43007,1.13138 20.440437,20.440437 0 0 1 -6.52433,-0.9051 z"
     id="path94"
     inkscape:connector-curvature="0"
     style="fill:#db5425;fill-opacity:1;stroke-width:1.88564909" />
  <path
     class="cls-2"
     d="M 744.14781,98.86229 H 733.8899 v -3.771303 h 24.75857 v 3.771303 h -10.25793 v 26.2294 h -4.24272 z"
     id="path96"
     inkscape:connector-curvature="0"
     style="fill:#db5425;fill-opacity:1;stroke-width:1.88564909" />
  <path
     class="cls-2"
     d="m 103.49609,98.25351 h 8.97732 v 62.82703 h -8.97732 z"
     id="path98"
     style="fill:#5b5300;fill-opacity:1;stroke-width:1.40710032"
     inkscape:connector-curvature="0" />
  <path
     class="cls-2"
     d="m 220.07436,98.25351 -20.99391,62.82703 h -9.42759 l -17.13847,-50.17721 -17.13851,50.17721 H 145.7654 L 124.77146,98.25351 h 9.30094 l 16.88521,51.06366 17.67318,-51.06366 h 8.25966 l 17.32141,51.33103 17.32141,-51.33103 z"
     id="path100"
     style="fill:#5b5300;fill-opacity:1;stroke-width:1.40710032"
     inkscape:connector-curvature="0" />
  <path
     class="cls-2"
     d="m 243.44631,157.61907 a 30.787358,30.787358 0 0 1 -11.88999,-11.48194 33.657841,33.657841 0 0 1 0,-32.94021 30.463725,30.463723 0 0 1 11.94627,-11.48195 34.853878,34.853877 0 0 1 17.04,-4.221282 35.571499,35.571499 0 0 1 13.46593,2.462412 27.677665,27.677665 0 0 1 10.41255,7.31692 l -5.83946,5.62839 a 23.371938,23.371938 0 0 0 -17.67318,-7.44355 25.552944,25.552944 0 0 0 -12.6639,3.13783 22.851311,22.851311 0 0 0 -8.85067,8.65367 25.538874,25.538874 0 0 0 0,24.68056 22.780955,22.780955 0 0 0 8.85067,8.66773 25.552944,25.552944 0 0 0 12.6639,3.13783 23.456364,23.456364 0 0 0 17.67318,-7.54205 l 5.83946,5.62839 a 27.860589,27.860589 0 0 1 -10.45475,7.35915 35.360434,35.360434 0 0 1 -13.50815,2.51869 34.713167,34.713167 0 0 1 -17.01186,-4.08059 z"
     id="path102"
     style="fill:#5b5300;fill-opacity:1;stroke-width:1.40710032"
     inkscape:connector-curvature="0" />
  <path
     class="cls-2"
     d="m 308.34178,157.61907 a 30.68886,30.68886 0 0 1 -11.88999,-11.48194 33.657841,33.657841 0 0 1 0,-32.94021 30.421511,30.421511 0 0 1 11.93221,-11.48195 34.867947,34.867947 0 0 1 17.05405,-4.221282 35.543357,35.543357 0 0 1 13.45188,2.462412 27.565098,27.565098 0 0 1 10.41255,7.31692 l -5.8254,5.62839 a 23.414151,23.414151 0 0 0 -17.68727,-7.44355 25.595157,25.595157 0 0 0 -12.66389,3.13783 22.809098,22.809098 0 0 0 -8.79437,8.78031 25.440376,25.440376 0 0 0 0,24.68054 22.752814,22.752814 0 0 0 8.83659,8.66775 25.595157,25.595157 0 0 0 12.66391,3.13783 23.484506,23.484506 0 0 0 17.68724,-7.54206 l 5.82538,5.62841 a 27.860589,27.860589 0 0 1 -10.45474,7.35912 35.360434,35.360434 0 0 1 -13.50815,2.51871 34.614671,34.614671 0 0 1 -17.04,-4.20723 z"
     id="path104"
     style="fill:#5b5300;fill-opacity:1;stroke-width:1.40710032"
     inkscape:connector-curvature="0" />
  <path
     inkscape:connector-curvature="0"
     class="cls-2"
     d="m 550.29129,153.82295 v 8.23223 h -46.92404 v -6.33886 l 26.59031,-25.68475 a 32.640958,32.640958 0 0 0 6.54466,-8.23223 15.517831,15.517831 0 0 0 1.68767,-6.87388 9.6729189,9.6729191 0 0 0 -3.62224,-7.98529 16.464544,16.464544 0 0 0 -10.29029,-2.84016 20.580679,20.580679 0 0 0 -16.71157,7.07972 l -6.37997,-5.47442 a 25.396558,25.396558 0 0 1 10.04335,-7.2856 35.028313,35.028314 0 0 1 13.87136,-2.634346 25.355398,25.355398 0 0 1 16.4645,4.898206 16.217575,16.217575 0 0 1 6.0508,13.29518 22.844555,22.844555 0 0 1 -2.22276,9.91992 38.773992,38.773998 0 0 1 -8.52035,10.61953 l -20.08675,19.30475 z"
     id="path82-0"
     style="fill:#8a8000;fill-opacity:1;stroke-width:4.11613607" />
</svg>
