<?xml version="1.0" encoding="UTF-8" standalone="no"?>
<svg
   viewBox="0 0 43.86 57.09"
   version="1.1"
   id="svg9"
   sodipodi:docname="momiji_iwcc_or.svg"
   inkscape:version="1.1 (c68e22c387, 2021-05-23)"
   xmlns:inkscape="http://www.inkscape.org/namespaces/inkscape"
   xmlns:sodipodi="http://sodipodi.sourceforge.net/DTD/sodipodi-0.dtd"
   xmlns="http://www.w3.org/2000/svg"
   xmlns:svg="http://www.w3.org/2000/svg">
  <sodipodi:namedview
     id="namedview11"
     pagecolor="#505050"
     bordercolor="#eeeeee"
     borderopacity="1"
     inkscape:pageshadow="0"
     inkscape:pageopacity="0"
     inkscape:pagecheckerboard="0"
     showgrid="false"
     inkscape:zoom="5.3424415"
     inkscape:cx="38.93351"
     inkscape:cy="36.406576"
     inkscape:window-width="1600"
     inkscape:window-height="837"
     inkscape:window-x="-8"
     inkscape:window-y="-8"
     inkscape:window-maximized="1"
     inkscape:current-layer="svg9" />
  <defs
     id="defs4">
    <style
       id="style2">.cls-1{fill:#c18f00;}</style>
  </defs>
  <g
     id="編集モード"
     style="fill:#e3d4ad;fill-opacity:1;opacity:1">
    <path
       class="cls-1"
       d="M 18.78,34.47 A 88.06,88.06 0 0 1 11.52,50.2 c -1.74,2.53 -2.75,3.33 -3,4.45 l -0.58,2.18 1,0.26 a 13.67,13.67 0 0 1 0.35,-2.3 c 0.26,-1 1.68,-2.82 3,-4.94 1.32,-2.12 5.63,-10.3 7.14,-15.23 a 10.69,10.69 0 0 0 4.47,4.5 34.89,34.89 0 0 0 7.79,3.06 11.13,11.13 0 0 0 -3.16,-4 C 26.45,36.64 23.71,34.93 23.71,34.93 A 16.51,16.51 0 0 0 31,36.21 c 3.94,-0.31 11.66,-2.94 11.66,-2.94 0,0 -5.76,-2.21 -9.45,-2.52 a 58.9,58.9 0 0 0 -7.38,-0.07 c 0,0 5.91,-1.22 9.5,-5.63 3.59,-4.41 8.53,-11.55 8.53,-11.55 0,0 -8.12,2.15 -12.22,5.06 A 52.72,52.72 0 0 0 24.94,24.17 39.75,39.75 0 0 0 27.5,11.72 86.59,86.59 0 0 0 27.45,0 a 46.53,46.53 0 0 0 -6,10.63 60.42,60.42 0 0 0 -2.69,8.12 c 0,0 -2,-5.29 -4.5,-7.77 -2.5,-2.48 -5.41,-6 -5.41,-6 0,0 -0.09,8 0.89,11.41 a 71.63,71.63 0 0 0 2.85,7.7 A 18.62,18.62 0 0 0 6.7,21.5 L 0,20 c 0,0 4.22,6.56 7.22,8.34 A 73.38,73.38 0 0 0 14.56,32 13,13 0 0 0 9.12,32.59 c -2.14,0.94 -5.94,3 -5.94,3 a 49,49 0 0 0 7.74,0.7 27.44,27.44 0 0 0 7.86,-1.82 z"
       id="path6-4"
       style="fill:#e3d4ad;fill-opacity:1" />
  </g>
</svg>
